<?xml version="1.0" encoding="utf-8"?>
<!-- Generator: Adobe Illustrator 22.1.0, SVG Export Plug-In . SVG Version: 6.00 Build 0)  -->
<svg version="1.1" id="Layer_1" xmlns="http://www.w3.org/2000/svg" xmlns:xlink="http://www.w3.org/1999/xlink" x="0px" y="0px"
	 viewBox="0 0 100 100" style="enable-background:new 0 0 100 100;" xml:space="preserve">
<style type="text/css">
	.st0{fill:#D2FAFD;}
	.st1{fill:#FDE880;}
	.st2{fill:#111111;}
	.st3{fill:#91DEE3;}
	.st4{fill:#FFFFFF;}
	.st5{fill:#FDC604;}
</style>
<g>
	<g>
		<path class="st0" d="M80.9,38.8c-3.9,1.6-7.5,3.9-10.4,6.7c0,0,0.1,0,0.1,0.1c1.8,1.5,2.8,3.6,2.8,6c0,2.1-0.8,4.1-2.3,5.6
			c2.9,2.4,6.4,4.2,10.2,5.3l-0.1-2.6C80.9,53,80.7,45.9,80.9,38.8z"/>
		<path class="st0" d="M68.9,56.4c0.2-0.1,0.3-0.2,0.4-0.3c1.3-1.2,2.1-2.8,2.1-4.6c0-1.7-0.7-3.3-2-4.4c-0.3-0.2-0.6-0.5-0.9-0.7
			c-6.2-4.8-14.4-7.1-22.9-6.6c-4,0.2-7.9,1.1-11.6,2.5c1.9,3.2,3,7.2,3.1,11.3c0.1,3.7-0.7,7.3-2.1,10.4c3.5,1,7.1,1.4,10.8,1.3
			C54.4,65.1,62.6,61.9,68.9,56.4z"/>
		<path class="st1" d="M32.8,63.4c1.4-2.9,2.1-6.2,2.1-9.7c-0.1-3.8-1.1-7.5-2.9-10.5c-5.3,2.5-9.8,6.2-12.7,10.7
			C22.5,58.1,27.3,61.4,32.8,63.4z M26.8,51c0.2-0.1,0.5,0,0.6,0.2c0.4,0.7,1,0.8,1.3,0.8c0.7,0,1.3-0.4,1.7-1
			c0.1-0.2,0.4-0.3,0.6-0.2c0.2,0.1,0.3,0.4,0.2,0.6c-0.5,0.9-1.5,1.5-2.5,1.5c0,0,0,0,0,0c-0.9,0-1.7-0.5-2.2-1.3
			C26.5,51.4,26.6,51.1,26.8,51z"/>
		<path class="st2" d="M83.1,37.3c0-0.3-0.1-0.7-0.4-0.9c-0.3-0.2-0.6-0.3-1-0.1c-4.8,1.7-9.3,4.5-12.8,7.9
			c-6.5-4.7-14.9-7-23.6-6.5c-4.7,0.3-9.2,1.3-13.4,3.2c0,0,0,0,0,0c-6.3,2.7-11.5,7.1-14.8,12.4c-0.2,0.4-0.2,0.8,0,1.1
			c3.6,5.1,9.2,9,15.8,11.2c0,0,0,0,0,0h0c3.7,1.2,7.6,1.8,11.6,1.8c0.4,0,0.7,0,1.1,0c8.9-0.3,17.4-3.4,23.8-8.8
			c3.6,3,7.9,5.1,12.6,6.3c0.1,0,0.2,0,0.2,0c0.2,0,0.5-0.1,0.6-0.2c0.3-0.2,0.4-0.5,0.4-0.8l-0.1-4C83,52.5,82.7,44.9,83.1,37.3z
			 M34.8,64c1.5-3.1,2.2-6.6,2.1-10.4c-0.1-4.1-1.2-8.1-3.1-11.3c3.7-1.5,7.5-2.3,11.6-2.5c8.6-0.5,16.7,1.9,22.9,6.6
			c0.3,0.2,0.6,0.5,0.9,0.7c1.3,1.1,2,2.7,2,4.4c0,1.7-0.8,3.4-2.1,4.6c-0.1,0.1-0.2,0.2-0.4,0.3c-6.2,5.5-14.5,8.6-23.2,8.9
			C41.9,65.4,38.3,65,34.8,64z M31.9,43.2c1.8,3,2.9,6.7,2.9,10.5c0.1,3.5-0.6,6.8-2.1,9.7c-5.6-2-10.3-5.3-13.6-9.6
			C22.2,49.4,26.6,45.6,31.9,43.2z M71.1,57.2c1.4-1.5,2.3-3.5,2.3-5.6c0-2.3-1-4.5-2.8-6c0,0-0.1,0-0.1-0.1c3-2.8,6.5-5.1,10.4-6.7
			c-0.3,7.1,0,14.2,0.2,21.1l0.1,2.6C77.5,61.4,74,59.6,71.1,57.2z"/>
		<path class="st2" d="M28.8,53C28.8,53,28.8,53,28.8,53c1,0,2-0.6,2.5-1.5c0.1-0.2,0-0.5-0.2-0.6c-0.2-0.1-0.5,0-0.6,0.2
			c-0.3,0.6-1,1-1.7,1c-0.3,0-1-0.1-1.3-0.8c-0.1-0.2-0.4-0.3-0.6-0.2c-0.2,0.1-0.3,0.4-0.2,0.6C27.1,52.5,27.9,53,28.8,53z"/>
		<path class="st3" d="M36.9,53.2c0,0.1,0,0.3,0,0.4c0.1,3.7-0.7,7.3-2.1,10.4c3.5,1,7.1,1.4,10.8,1.3c8.7-0.3,17-3.4,23.2-8.9
			c0.2-0.1,0.3-0.2,0.4-0.3c1.3-1.2,2.1-2.8,2.1-4.6c0-0.5-0.1-1-0.2-1.4C60.9,56.5,46.9,58.5,36.9,53.2z"/>
		<path class="st4" d="M59.5,61.6C56,62.5,52.3,63,48.7,63c-4.5,0-8.8-0.7-12.6-2.6c-0.3,1.2-0.8,2.4-1.3,3.6
			c3.5,1,7.1,1.4,10.8,1.3c6.1-0.2,11.9-1.8,17-4.6C61.6,61.1,60.5,61.4,59.5,61.6z"/>
		<path class="st5" d="M31.4,57.1c-0.9-0.1-1.9-0.2-2.8-0.4c-0.4,0-0.8,0-1.2-0.1c-2.8-0.4-5.5-1.6-7.4-3.6
			c-0.2,0.3-0.4,0.6-0.6,0.9c3.2,4.2,8,7.6,13.6,9.6c1-2,1.6-4.2,1.9-6.5C33.6,57.1,32.5,57.2,31.4,57.1z"/>
		<path class="st3" d="M81,56.2c-0.1-0.1-0.2-0.2-0.3-0.2c-1.4-1-2.6-2.1-3.7-3.2c-1.9-2-4.1-4.8-5.7-7.9c-0.3,0.3-0.6,0.5-0.9,0.8
			c0,0,0.1,0,0.1,0.1c1.8,1.5,2.8,3.6,2.8,6c0,2.1-0.8,4.1-2.3,5.6c2.9,2.4,6.4,4.2,10.2,5.3l-0.1-2.6C81.1,58.6,81.1,57.4,81,56.2z
			"/>
	</g>
</g>
</svg>
