<?xml version="1.0" encoding="utf-8"?>
<!-- Generator: Adobe Illustrator 22.1.0, SVG Export Plug-In . SVG Version: 6.00 Build 0)  -->
<svg version="1.1" id="Layer_1" xmlns="http://www.w3.org/2000/svg" xmlns:xlink="http://www.w3.org/1999/xlink" x="0px" y="0px"
	 viewBox="0 0 100 100" style="enable-background:new 0 0 100 100;" xml:space="preserve">
<style type="text/css">
	.st0{fill:#D2FAFD;}
	.st1{fill:#FDE880;}
	.st2{fill:#111111;}
	.st3{fill:#91DEE3;}
	.st4{fill:#FFFFFF;}
	.st5{fill:#FDC604;}
</style>
<g>
	<g>
		<g>
			<path class="st0" d="M80.9,26.1c-3.9,1.6-7.5,3.9-10.4,6.7c0,0,0.1,0,0.1,0.1c1.8,1.5,2.8,3.6,2.8,6c0,2.1-0.8,4.1-2.3,5.6
				c2.9,2.4,6.4,4.2,10.2,5.3l-0.1-2.6C80.9,40.2,80.6,33.1,80.9,26.1z"/>
			<path class="st0" d="M68.8,43.7c0.2-0.1,0.3-0.2,0.4-0.3c1.3-1.2,2.1-2.8,2.1-4.6c0-1.7-0.7-3.3-2-4.4c-0.3-0.2-0.6-0.5-0.9-0.7
				c-6.2-4.8-14.4-7.1-22.9-6.6c-4,0.2-7.9,1.1-11.6,2.5c1.9,3.2,3,7.2,3.1,11.3c0.1,3.7-0.7,7.3-2.1,10.4c3.5,1,7.1,1.4,10.8,1.3
				C54.3,52.3,62.6,49.2,68.8,43.7z"/>
			<path class="st1" d="M32.8,50.6c1.4-2.9,2.1-6.2,2.1-9.7c-0.1-3.8-1.1-7.5-2.9-10.5c-5.3,2.5-9.8,6.2-12.7,10.7
				C22.4,45.3,27.2,48.7,32.8,50.6z M26.8,38.3c0.2-0.1,0.5,0,0.6,0.2c0.4,0.7,1,0.8,1.3,0.8c0.7,0,1.3-0.4,1.7-1
				c0.1-0.2,0.4-0.3,0.6-0.2c0.2,0.1,0.3,0.4,0.2,0.6c-0.5,0.9-1.5,1.5-2.5,1.5l0,0c-0.9,0-1.7-0.5-2.2-1.3
				C26.4,38.7,26.5,38.4,26.8,38.3z"/>
			<path class="st2" d="M83,24.6c0-0.3-0.1-0.7-0.4-0.9c-0.3-0.2-0.6-0.3-1-0.1c-4.8,1.7-9.3,4.5-12.8,7.9c-6.5-4.7-14.9-7-23.6-6.5
				c-4.7,0.3-9.2,1.3-13.4,3.2l0,0c-6.3,2.7-11.5,7.1-14.8,12.4c-0.2,0.4-0.2,0.8,0,1.1c3.6,5.1,9.2,9,15.8,11.2l0,0l0,0
				c3.7,1.2,7.6,1.8,11.6,1.8c0.4,0,0.7,0,1.1,0c8.9-0.3,17.4-3.4,23.8-8.8c3.6,3,7.9,5.1,12.6,6.3c0.1,0,0.2,0,0.2,0
				c0.2,0,0.5-0.1,0.6-0.2c0.3-0.2,0.4-0.5,0.4-0.8l-0.1-4C82.9,39.7,82.6,32.1,83,24.6z M34.7,51.3c1.5-3.1,2.2-6.6,2.1-10.4
				c-0.1-4.1-1.2-8.1-3.1-11.3c3.7-1.5,7.5-2.3,11.6-2.5c8.6-0.5,16.7,1.9,22.9,6.6c0.3,0.2,0.6,0.5,0.9,0.7c1.3,1.1,2,2.7,2,4.4
				s-0.8,3.4-2.1,4.6c-0.1,0.1-0.2,0.2-0.4,0.3c-6.2,5.5-14.5,8.6-23.2,8.9C41.8,52.7,38.2,52.2,34.7,51.3z M31.9,30.4
				c1.8,3,2.9,6.7,2.9,10.5c0.1,3.5-0.6,6.8-2.1,9.7c-5.6-2-10.3-5.3-13.6-9.6C22.1,36.6,26.6,32.9,31.9,30.4z M71,44.4
				c1.4-1.5,2.3-3.5,2.3-5.6c0-2.3-1-4.5-2.8-6c0,0-0.1,0-0.1-0.1c3-2.8,6.5-5.1,10.4-6.7c-0.3,7.1,0,14.2,0.2,21.1l0.1,2.6
				C77.4,48.6,74,46.8,71,44.4z"/>
			<path class="st2" d="M28.7,40.2L28.7,40.2c1,0,2-0.6,2.5-1.5c0.1-0.2,0-0.5-0.2-0.6c-0.2-0.1-0.5,0-0.6,0.2c-0.3,0.6-1,1-1.7,1
				c-0.3,0-1-0.1-1.3-0.8c-0.1-0.2-0.4-0.3-0.6-0.2c-0.2,0.1-0.3,0.4-0.2,0.6C27,39.8,27.8,40.2,28.7,40.2z"/>
			<path class="st3" d="M36.9,40.5c0,0.1,0,0.3,0,0.4c0.1,3.7-0.7,7.3-2.1,10.4c3.5,1,7.1,1.4,10.8,1.3c8.7-0.3,17-3.4,23.2-8.9
				c0.2-0.1,0.3-0.2,0.4-0.3c1.3-1.2,2.1-2.8,2.1-4.6c0-0.5-0.1-1-0.2-1.4C60.8,43.8,46.8,45.8,36.9,40.5z"/>
			<path class="st4" d="M59.4,48.9c-3.5,0.9-7.2,1.4-10.8,1.3c-4.5,0-8.8-0.7-12.6-2.6c-0.3,1.2-0.8,2.4-1.3,3.6
				c3.5,1,7.1,1.4,10.8,1.3c6.1-0.2,11.9-1.8,17-4.6C61.5,48.4,60.4,48.7,59.4,48.9z"/>
			<path class="st5" d="M31.3,44.4c-0.9-0.1-1.9-0.2-2.8-0.4c-0.4,0-0.8,0-1.2-0.1c-2.8-0.4-5.5-1.6-7.4-3.6
				c-0.2,0.3-0.4,0.6-0.6,0.9c3.2,4.2,8,7.6,13.6,9.6c1-2,1.6-4.2,1.9-6.5C33.6,44.4,32.5,44.4,31.3,44.4z"/>
			<path class="st3" d="M81,43.4c-0.1-0.1-0.2-0.2-0.3-0.2c-1.4-1-2.6-2.1-3.7-3.2c-1.9-2-4.1-4.8-5.7-7.9c-0.3,0.3-0.6,0.5-0.9,0.8
				c0,0,0.1,0,0.1,0.1c1.8,1.5,2.8,3.6,2.8,6c0,2.1-0.8,4.1-2.3,5.6c2.9,2.4,6.4,4.2,10.2,5.3l-0.1-2.6C81.1,45.9,81,44.7,81,43.4z"
				/>
		</g>
	</g>
	<g>
		<g>
			<path class="st0" d="M80.9,37c-3.9,1.6-7.5,3.9-10.4,6.7c0,0,0.1,0,0.1,0.1c1.8,1.5,2.8,3.6,2.8,6c0,2.1-0.8,4.1-2.3,5.6
				c2.9,2.4,6.4,4.2,10.2,5.3l-0.1-2.6C80.9,51.2,80.6,44.1,80.9,37z"/>
			<path class="st0" d="M68.8,54.6c0.2-0.1,0.3-0.2,0.4-0.3c1.3-1.2,2.1-2.8,2.1-4.6c0-1.7-0.7-3.3-2-4.4c-0.3-0.2-0.6-0.5-0.9-0.7
				C62.2,39.8,54,37.5,45.5,38c-4,0.2-7.9,1.1-11.6,2.5c1.9,3.2,3,7.2,3.1,11.3c0.1,3.7-0.7,7.3-2.1,10.4c3.5,1,7.1,1.4,10.8,1.3
				C54.3,63.3,62.6,60.1,68.8,54.6z"/>
			<path class="st1" d="M32.8,61.6c1.4-2.9,2.1-6.2,2.1-9.7c-0.1-3.8-1.1-7.5-2.9-10.5c-5.3,2.5-9.8,6.2-12.7,10.7
				C22.4,56.3,27.2,59.6,32.8,61.6z M26.8,49.2c0.2-0.1,0.5,0,0.6,0.2c0.4,0.7,1,0.8,1.3,0.8c0.7,0,1.3-0.4,1.7-1
				c0.1-0.2,0.4-0.3,0.6-0.2s0.3,0.4,0.2,0.6c-0.5,0.9-1.5,1.5-2.5,1.5l0,0c-0.9,0-1.7-0.5-2.2-1.3C26.4,49.6,26.5,49.3,26.8,49.2z"
				/>
			<path class="st2" d="M83,35.5c0-0.3-0.1-0.7-0.4-0.9c-0.3-0.2-0.6-0.3-1-0.1c-4.8,1.7-9.3,4.5-12.8,7.9c-6.5-4.7-14.9-7-23.6-6.5
				c-4.7,0.3-9.2,1.3-13.4,3.2l0,0c-6.3,2.7-11.5,7.1-14.8,12.4c-0.2,0.4-0.2,0.8,0,1.1c3.6,5.1,9.2,9,15.8,11.2l0,0l0,0
				c3.7,1.2,7.6,1.8,11.6,1.8c0.4,0,0.7,0,1.1,0c8.9-0.3,17.4-3.4,23.8-8.8c3.6,3,7.9,5.1,12.6,6.3c0.1,0,0.2,0,0.2,0
				c0.2,0,0.5-0.1,0.6-0.2c0.3-0.2,0.4-0.5,0.4-0.8l-0.1-4C82.9,50.7,82.6,43.1,83,35.5z M34.7,62.2c1.5-3.1,2.2-6.6,2.1-10.4
				c-0.1-4.1-1.2-8.1-3.1-11.3c3.7-1.5,7.5-2.3,11.6-2.5c8.6-0.5,16.7,1.9,22.9,6.6c0.3,0.2,0.6,0.5,0.9,0.7c1.3,1.1,2,2.7,2,4.4
				s-0.8,3.4-2.1,4.6c-0.1,0.1-0.2,0.2-0.4,0.3c-6.2,5.5-14.5,8.6-23.2,8.9C41.8,63.6,38.2,63.2,34.7,62.2z M31.9,41.4
				c1.8,3,2.9,6.7,2.9,10.5c0.1,3.5-0.6,6.8-2.1,9.7c-5.6-2-10.3-5.3-13.6-9.6C22.1,47.6,26.6,43.8,31.9,41.4z M71,55.4
				c1.4-1.5,2.3-3.5,2.3-5.6c0-2.3-1-4.5-2.8-6c0,0-0.1,0-0.1-0.1c3-2.8,6.5-5.1,10.4-6.7c-0.3,7.1,0,14.2,0.2,21.1l0.1,2.6
				C77.4,59.6,74,57.8,71,55.4z"/>
			<path class="st2" d="M28.7,51.2L28.7,51.2c1,0,2-0.6,2.5-1.5c0.1-0.2,0-0.5-0.2-0.6s-0.5,0-0.6,0.2c-0.3,0.6-1,1-1.7,1
				c-0.3,0-1-0.1-1.3-0.8c-0.1-0.2-0.4-0.3-0.6-0.2s-0.3,0.4-0.2,0.6C27,50.7,27.8,51.2,28.7,51.2z"/>
			<path class="st3" d="M36.9,51.4c0,0.1,0,0.3,0,0.4c0.1,3.7-0.7,7.3-2.1,10.4c3.5,1,7.1,1.4,10.8,1.3c8.7-0.3,17-3.4,23.2-8.9
				c0.2-0.1,0.3-0.2,0.4-0.3c1.3-1.2,2.1-2.8,2.1-4.6c0-0.5-0.1-1-0.2-1.4C60.8,54.7,46.8,56.7,36.9,51.4z"/>
			<path class="st4" d="M59.4,59.9c-3.5,0.9-7.2,1.4-10.8,1.3c-4.5,0-8.8-0.7-12.6-2.6c-0.3,1.2-0.8,2.4-1.3,3.6
				c3.5,1,7.1,1.4,10.8,1.3c6.1-0.2,11.9-1.8,17-4.6C61.5,59.3,60.4,59.6,59.4,59.9z"/>
			<path class="st5" d="M31.3,55.3c-0.9-0.1-1.9-0.2-2.8-0.4c-0.4,0-0.8,0-1.2-0.1c-2.8-0.4-5.5-1.6-7.4-3.6
				c-0.2,0.3-0.4,0.6-0.6,0.9c3.2,4.2,8,7.6,13.6,9.6c1-2,1.6-4.2,1.9-6.5C33.6,55.3,32.5,55.4,31.3,55.3z"/>
			<path class="st3" d="M81,54.4c-0.1-0.1-0.2-0.2-0.3-0.2c-1.4-1-2.6-2.1-3.7-3.2c-1.9-2-4.1-4.8-5.7-7.9c-0.3,0.3-0.6,0.5-0.9,0.8
				c0,0,0.1,0,0.1,0.1c1.8,1.5,2.8,3.6,2.8,6c0,2.1-0.8,4.1-2.3,5.6c2.9,2.4,6.4,4.2,10.2,5.3l-0.1-2.6C81.1,56.9,81,55.6,81,54.4z"
				/>
		</g>
	</g>
	<g>
		<g>
			<path class="st0" d="M80.9,48c-3.9,1.6-7.5,3.9-10.4,6.7c0,0,0.1,0,0.1,0.1c1.8,1.5,2.8,3.6,2.8,6c0,2.1-0.8,4.1-2.3,5.6
				c2.9,2.4,6.4,4.2,10.2,5.3l-0.1-2.6C80.9,62.2,80.6,55.1,80.9,48z"/>
			<path class="st0" d="M68.8,65.6c0.2-0.1,0.3-0.2,0.4-0.3c1.3-1.2,2.1-2.8,2.1-4.6c0-1.7-0.7-3.3-2-4.4c-0.3-0.2-0.6-0.5-0.9-0.7
				C62.2,50.8,54,48.5,45.5,49c-4,0.2-7.9,1.1-11.6,2.5c1.9,3.2,3,7.2,3.1,11.3c0.1,3.7-0.7,7.3-2.1,10.4c3.5,1,7.1,1.4,10.8,1.3
				C54.3,74.2,62.6,71.1,68.8,65.6z"/>
			<path class="st1" d="M32.8,72.5c1.4-2.9,2.1-6.2,2.1-9.7c-0.1-3.8-1.1-7.5-2.9-10.5c-5.3,2.5-9.8,6.2-12.7,10.7
				C22.4,67.2,27.2,70.6,32.8,72.5z M26.8,60.2c0.2-0.1,0.5,0,0.6,0.2c0.4,0.7,1,0.8,1.3,0.8c0.7,0,1.3-0.4,1.7-1
				c0.1-0.2,0.4-0.3,0.6-0.2s0.3,0.4,0.2,0.6c-0.5,0.9-1.5,1.5-2.5,1.5l0,0c-0.9,0-1.7-0.5-2.2-1.3C26.4,60.6,26.5,60.3,26.8,60.2z"
				/>
			<path class="st2" d="M83,46.5c0-0.3-0.1-0.7-0.4-0.9s-0.6-0.3-1-0.1c-4.8,1.7-9.2,4.4-12.8,7.9c-6.5-4.7-14.9-7-23.6-6.5
				c-4.7,0.3-9.2,1.3-13.4,3.2l0,0c-6.3,2.7-11.5,7.1-14.8,12.4c-0.2,0.4-0.2,0.8,0,1.1c3.6,5.1,9.2,9,15.8,11.2l0,0l0,0
				c3.7,1.2,7.6,1.8,11.6,1.8c0.4,0,0.7,0,1.1,0c8.9-0.3,17.4-3.4,23.8-8.8c3.6,3,7.9,5.1,12.6,6.3c0.1,0,0.2,0,0.2,0
				c0.2,0,0.5-0.1,0.6-0.2c0.3-0.2,0.4-0.5,0.4-0.8l-0.1-4C82.9,61.6,82.6,54,83,46.5z M34.7,73.2c1.5-3.1,2.2-6.6,2.1-10.4
				c-0.1-4.1-1.2-8.1-3.1-11.3c3.7-1.5,7.5-2.3,11.6-2.5c8.6-0.5,16.7,1.9,22.9,6.6c0.3,0.2,0.6,0.5,0.9,0.7c1.3,1.1,2,2.7,2,4.4
				s-0.8,3.4-2.1,4.6c-0.1,0.1-0.2,0.2-0.4,0.3c-6.2,5.5-14.5,8.6-23.2,8.9C41.8,74.6,38.2,74.1,34.7,73.2z M31.9,52.3
				c1.8,3,2.9,6.7,2.9,10.5c0.1,3.5-0.6,6.8-2.1,9.7c-5.6-2-10.3-5.3-13.6-9.6C22.1,58.5,26.6,54.8,31.9,52.3z M71,66.3
				c1.4-1.5,2.3-3.5,2.3-5.6c0-2.3-1-4.5-2.8-6c0,0-0.1,0-0.1-0.1c3-2.8,6.5-5.1,10.4-6.7C80.5,55,80.8,62.1,81,69l0.1,2.6
				C77.4,70.5,74,68.7,71,66.3z"/>
			<path class="st2" d="M28.7,62.2L28.7,62.2c1,0,2-0.6,2.5-1.5c0.1-0.2,0-0.5-0.2-0.6s-0.5,0-0.6,0.2c-0.3,0.6-1,1-1.7,1
				c-0.3,0-1-0.1-1.3-0.8c-0.1-0.2-0.4-0.3-0.6-0.2s-0.3,0.4-0.2,0.6C27,61.7,27.8,62.2,28.7,62.2z"/>
			<path class="st3" d="M36.9,62.4c0,0.1,0,0.3,0,0.4c0.1,3.7-0.7,7.3-2.1,10.4c3.5,1,7.1,1.4,10.8,1.3c8.7-0.3,17-3.4,23.2-8.9
				c0.2-0.1,0.3-0.2,0.4-0.3c1.3-1.2,2.1-2.8,2.1-4.6c0-0.5-0.1-1-0.2-1.4C60.8,65.7,46.8,67.7,36.9,62.4z"/>
			<path class="st4" d="M59.4,70.8c-3.5,0.9-7.2,1.4-10.8,1.3c-4.5,0-8.8-0.7-12.6-2.6c-0.3,1.2-0.8,2.4-1.3,3.6
				c3.5,1,7.1,1.4,10.8,1.3c6.1-0.2,11.9-1.8,17-4.6C61.5,70.3,60.4,70.6,59.4,70.8z"/>
			<path class="st5" d="M31.3,66.3c-0.9-0.1-1.9-0.2-2.8-0.4c-0.4,0-0.8,0-1.2-0.1c-2.8-0.4-5.5-1.6-7.4-3.6
				c-0.2,0.3-0.4,0.6-0.6,0.9c3.2,4.2,8,7.6,13.6,9.6c1-2,1.6-4.2,1.9-6.5C33.6,66.3,32.5,66.4,31.3,66.3z"/>
			<path class="st3" d="M81,65.3c-0.1-0.1-0.2-0.2-0.3-0.2c-1.4-1-2.6-2.1-3.7-3.2c-1.9-2-4.1-4.8-5.7-7.9c-0.3,0.3-0.6,0.5-0.9,0.8
				c0,0,0.1,0,0.1,0.1c1.8,1.5,2.8,3.6,2.8,6c0,2.1-0.8,4.1-2.3,5.6c2.9,2.4,6.4,4.2,10.2,5.3l-0.1-2.6C81.1,67.8,81,66.6,81,65.3z"
				/>
		</g>
	</g>
</g>
</svg>
