<?xml version="1.0" encoding="utf-8"?>
<!-- Generator: Adobe Illustrator 22.1.0, SVG Export Plug-In . SVG Version: 6.00 Build 0)  -->
<svg version="1.1" id="Layer_1" xmlns="http://www.w3.org/2000/svg" xmlns:xlink="http://www.w3.org/1999/xlink" x="0px" y="0px"
	 viewBox="0 0 100 100" style="enable-background:new 0 0 100 100;" xml:space="preserve">
<style type="text/css">
	.st0{fill:#D2FAFD;}
	.st1{fill:#FDE880;}
	.st2{fill:#111111;}
	.st3{fill:#91DEE3;}
	.st4{fill:#FFFFFF;}
	.st5{fill:#FDC604;}
</style>
<g>
	<g>
		<path class="st0" d="M82.1,13.7c-3.9,1.6-7.5,3.9-10.4,6.7c0,0,0.1,0,0.1,0.1c1.8,1.5,2.8,3.6,2.8,6c0,2.1-0.8,4.1-2.3,5.6
			c2.9,2.4,6.4,4.2,10.2,5.3l-0.1-2.6C82.1,27.8,81.8,20.7,82.1,13.7z"/>
		<path class="st0" d="M70,31.3c0.2-0.1,0.3-0.2,0.4-0.3c1.3-1.2,2.1-2.8,2.1-4.6c0-1.7-0.7-3.3-2-4.4c-0.3-0.2-0.6-0.5-0.9-0.7
			c-6.2-4.8-14.4-7.1-22.9-6.6c-4,0.2-7.9,1.1-11.6,2.5c1.9,3.2,3,7.2,3.1,11.3c0.1,3.7-0.7,7.3-2.1,10.4c3.5,1,7.1,1.4,10.8,1.3
			C55.5,39.9,63.8,36.8,70,31.3z"/>
		<path class="st1" d="M34,38.2c1.4-2.9,2.1-6.2,2.1-9.7c-0.1-3.8-1.1-7.5-2.9-10.5c-5.3,2.5-9.8,6.2-12.7,10.7
			C23.6,32.9,28.4,36.3,34,38.2z M28,25.9c0.2-0.1,0.5,0,0.6,0.2c0.4,0.7,1,0.8,1.3,0.8c0.7,0,1.3-0.4,1.7-1
			c0.1-0.2,0.4-0.3,0.6-0.2c0.2,0.1,0.3,0.4,0.2,0.6c-0.5,0.9-1.5,1.5-2.5,1.5c0,0,0,0,0,0c-0.9,0-1.7-0.5-2.2-1.3
			C27.6,26.3,27.7,26,28,25.9z"/>
		<path class="st2" d="M84.2,12.2c0-0.3-0.1-0.7-0.4-0.9c-0.3-0.2-0.6-0.3-1-0.1c-4.8,1.7-9.3,4.5-12.8,7.9
			c-6.5-4.7-14.9-7-23.6-6.5c-4.7,0.3-9.2,1.3-13.4,3.2c0,0,0,0,0,0c-6.3,2.7-11.5,7.1-14.8,12.4c-0.2,0.4-0.2,0.8,0,1.1
			c3.6,5.1,9.2,9,15.8,11.2c0,0,0,0,0,0h0c3.7,1.2,7.6,1.8,11.6,1.8c0.4,0,0.7,0,1.1,0c8.9-0.3,17.4-3.4,23.8-8.8
			c3.6,3,7.9,5.1,12.6,6.3c0.1,0,0.2,0,0.2,0c0.2,0,0.5-0.1,0.6-0.2c0.3-0.2,0.4-0.5,0.4-0.8l-0.1-4C84.1,27.3,83.8,19.7,84.2,12.2z
			 M35.9,38.9c1.5-3.1,2.2-6.6,2.1-10.4c-0.1-4.1-1.2-8.1-3.1-11.3c3.7-1.5,7.5-2.3,11.6-2.5c8.6-0.5,16.7,1.9,22.9,6.6
			c0.3,0.2,0.6,0.5,0.9,0.7c1.3,1.1,2,2.7,2,4.4c0,1.7-0.8,3.4-2.1,4.6c-0.1,0.1-0.2,0.2-0.4,0.3c-6.2,5.5-14.5,8.6-23.2,8.9
			C43,40.3,39.4,39.8,35.9,38.9z M33.1,18c1.8,3,2.9,6.7,2.9,10.5c0.1,3.5-0.6,6.8-2.1,9.7c-5.6-2-10.3-5.3-13.6-9.6
			C23.3,24.2,27.8,20.5,33.1,18z M72.2,32c1.4-1.5,2.3-3.5,2.3-5.6c0-2.3-1-4.5-2.8-6c0,0-0.1,0-0.1-0.1c3-2.8,6.5-5.1,10.4-6.7
			c-0.3,7.1,0,14.2,0.2,21.1l0.1,2.6C78.6,36.2,75.2,34.4,72.2,32z"/>
		<path class="st2" d="M29.9,27.8C29.9,27.8,29.9,27.8,29.9,27.8c1,0,2-0.6,2.5-1.5c0.1-0.2,0-0.5-0.2-0.6c-0.2-0.1-0.5,0-0.6,0.2
			c-0.3,0.6-1,1-1.7,1c-0.3,0-1-0.1-1.3-0.8c-0.1-0.2-0.4-0.3-0.6-0.2c-0.2,0.1-0.3,0.4-0.2,0.6C28.2,27.4,29,27.8,29.9,27.8z"/>
		<path class="st3" d="M38.1,28.1c0,0.1,0,0.3,0,0.4c0.1,3.7-0.7,7.3-2.1,10.4c3.5,1,7.1,1.4,10.8,1.3c8.7-0.3,17-3.4,23.2-8.9
			c0.2-0.1,0.3-0.2,0.4-0.3c1.3-1.2,2.1-2.8,2.1-4.6c0-0.5-0.1-1-0.2-1.4C62,31.4,48,33.4,38.1,28.1z"/>
		<path class="st4" d="M60.6,36.5c-3.5,0.9-7.2,1.4-10.8,1.3c-4.5,0-8.8-0.7-12.6-2.6c-0.3,1.2-0.8,2.4-1.3,3.6
			c3.5,1,7.1,1.4,10.8,1.3c6.1-0.2,11.9-1.8,17-4.6C62.7,36,61.6,36.3,60.6,36.5z"/>
		<path class="st5" d="M32.5,32c-0.9-0.1-1.9-0.2-2.8-0.4c-0.4,0-0.8,0-1.2-0.1c-2.8-0.4-5.5-1.6-7.4-3.6c-0.2,0.3-0.4,0.6-0.6,0.9
			c3.2,4.2,8,7.6,13.6,9.6c1-2,1.6-4.2,1.9-6.5C34.8,32,33.7,32,32.5,32z"/>
		<path class="st3" d="M82.2,31c-0.1-0.1-0.2-0.2-0.3-0.2c-1.4-1-2.6-2.1-3.7-3.2c-1.9-2-4.1-4.8-5.7-7.9c-0.3,0.3-0.6,0.5-0.9,0.8
			c0,0,0.1,0,0.1,0.1c1.8,1.5,2.8,3.6,2.8,6c0,2.1-0.8,4.1-2.3,5.6c2.9,2.4,6.4,4.2,10.2,5.3l-0.1-2.6C82.3,33.5,82.2,32.3,82.2,31z
			"/>
	</g>
</g>
<g>
	<g>
		<path class="st0" d="M82.1,24.6c-3.9,1.6-7.5,3.9-10.4,6.7c0,0,0.1,0,0.1,0.1c1.8,1.5,2.8,3.6,2.8,6c0,2.1-0.8,4.1-2.3,5.6
			c2.9,2.4,6.4,4.2,10.2,5.3l-0.1-2.6C82.1,38.8,81.8,31.7,82.1,24.6z"/>
		<path class="st0" d="M70,42.2c0.2-0.1,0.3-0.2,0.4-0.3c1.3-1.2,2.1-2.8,2.1-4.6c0-1.7-0.7-3.3-2-4.4c-0.3-0.2-0.6-0.5-0.9-0.7
			c-6.2-4.8-14.4-7.1-22.9-6.6c-4,0.2-7.9,1.1-11.6,2.5c1.9,3.2,3,7.2,3.1,11.3c0.1,3.7-0.7,7.3-2.1,10.4c3.5,1,7.1,1.4,10.8,1.3
			C55.5,50.9,63.8,47.7,70,42.2z"/>
		<path class="st1" d="M34,49.2c1.4-2.9,2.1-6.2,2.1-9.7c-0.1-3.8-1.1-7.5-2.9-10.5c-5.3,2.5-9.8,6.2-12.7,10.7
			C23.6,43.9,28.4,47.2,34,49.2z M28,36.8c0.2-0.1,0.5,0,0.6,0.2c0.4,0.7,1,0.8,1.3,0.8c0.7,0,1.3-0.4,1.7-1
			c0.1-0.2,0.4-0.3,0.6-0.2c0.2,0.1,0.3,0.4,0.2,0.6c-0.5,0.9-1.5,1.5-2.5,1.5c0,0,0,0,0,0c-0.9,0-1.7-0.5-2.2-1.3
			C27.6,37.2,27.7,36.9,28,36.8z"/>
		<path class="st2" d="M84.2,23.1c0-0.3-0.1-0.7-0.4-0.9c-0.3-0.2-0.6-0.3-1-0.1c-4.8,1.7-9.3,4.5-12.8,7.9
			c-6.5-4.7-14.9-7-23.6-6.5c-4.7,0.3-9.2,1.3-13.4,3.2c0,0,0,0,0,0c-6.3,2.7-11.5,7.1-14.8,12.4c-0.2,0.4-0.2,0.8,0,1.1
			c3.6,5.1,9.2,9,15.8,11.2c0,0,0,0,0,0h0c3.7,1.2,7.6,1.8,11.6,1.8c0.4,0,0.7,0,1.1,0c8.9-0.3,17.4-3.4,23.8-8.8
			c3.6,3,7.9,5.1,12.6,6.3c0.1,0,0.2,0,0.2,0c0.2,0,0.5-0.1,0.6-0.2c0.3-0.2,0.4-0.5,0.4-0.8l-0.1-4C84.1,38.3,83.8,30.7,84.2,23.1z
			 M35.9,49.8c1.5-3.1,2.2-6.6,2.1-10.4c-0.1-4.1-1.2-8.1-3.1-11.3c3.7-1.5,7.5-2.3,11.6-2.5c8.6-0.5,16.7,1.9,22.9,6.6
			c0.3,0.2,0.6,0.5,0.9,0.7c1.3,1.1,2,2.7,2,4.4c0,1.7-0.8,3.4-2.1,4.6c-0.1,0.1-0.2,0.2-0.4,0.3c-6.2,5.5-14.5,8.6-23.2,8.9
			C43,51.2,39.4,50.8,35.9,49.8z M33.1,29c1.8,3,2.9,6.7,2.9,10.5c0.1,3.5-0.6,6.8-2.1,9.7c-5.6-2-10.3-5.3-13.6-9.6
			C23.3,35.2,27.8,31.4,33.1,29z M72.2,43c1.4-1.5,2.3-3.5,2.3-5.6c0-2.3-1-4.5-2.8-6c0,0-0.1,0-0.1-0.1c3-2.8,6.5-5.1,10.4-6.7
			c-0.3,7.1,0,14.2,0.2,21.1l0.1,2.6C78.6,47.2,75.2,45.4,72.2,43z"/>
		<path class="st2" d="M29.9,38.8C29.9,38.8,29.9,38.8,29.9,38.8c1,0,2-0.6,2.5-1.5c0.1-0.2,0-0.5-0.2-0.6c-0.2-0.1-0.5,0-0.6,0.2
			c-0.3,0.6-1,1-1.7,1c-0.3,0-1-0.1-1.3-0.8c-0.1-0.2-0.4-0.3-0.6-0.2c-0.2,0.1-0.3,0.4-0.2,0.6C28.2,38.3,29,38.8,29.9,38.8z"/>
		<path class="st3" d="M38.1,39c0,0.1,0,0.3,0,0.4c0.1,3.7-0.7,7.3-2.1,10.4c3.5,1,7.1,1.4,10.8,1.3c8.7-0.3,17-3.4,23.2-8.9
			c0.2-0.1,0.3-0.2,0.4-0.3c1.3-1.2,2.1-2.8,2.1-4.6c0-0.5-0.1-1-0.2-1.4C62,42.3,48,44.3,38.1,39z"/>
		<path class="st4" d="M60.6,47.5c-3.5,0.9-7.2,1.4-10.8,1.3c-4.5,0-8.8-0.7-12.6-2.6c-0.3,1.2-0.8,2.4-1.3,3.6
			c3.5,1,7.1,1.4,10.8,1.3c6.1-0.2,11.9-1.8,17-4.6C62.7,46.9,61.6,47.2,60.6,47.5z"/>
		<path class="st5" d="M32.5,42.9c-0.9-0.1-1.9-0.2-2.8-0.4c-0.4,0-0.8,0-1.2-0.1c-2.8-0.4-5.5-1.6-7.4-3.6
			c-0.2,0.3-0.4,0.6-0.6,0.9c3.2,4.2,8,7.6,13.6,9.6c1-2,1.6-4.2,1.9-6.5C34.8,42.9,33.7,43,32.5,42.9z"/>
		<path class="st3" d="M82.2,42c-0.1-0.1-0.2-0.2-0.3-0.2c-1.4-1-2.6-2.1-3.7-3.2c-1.9-2-4.1-4.8-5.7-7.9c-0.3,0.3-0.6,0.5-0.9,0.8
			c0,0,0.1,0,0.1,0.1c1.8,1.5,2.8,3.6,2.8,6c0,2.1-0.8,4.1-2.3,5.6c2.9,2.4,6.4,4.2,10.2,5.3l-0.1-2.6C82.3,44.5,82.2,43.2,82.2,42z
			"/>
	</g>
</g>
<g>
	<g>
		<path class="st0" d="M82.1,35.6c-3.9,1.6-7.5,3.9-10.4,6.7c0,0,0.1,0,0.1,0.1c1.8,1.5,2.8,3.6,2.8,6c0,2.1-0.8,4.1-2.3,5.6
			c2.9,2.4,6.4,4.2,10.2,5.3l-0.1-2.6C82.1,49.8,81.8,42.7,82.1,35.6z"/>
		<path class="st0" d="M70,53.2c0.2-0.1,0.3-0.2,0.4-0.3c1.3-1.2,2.1-2.8,2.1-4.6c0-1.7-0.7-3.3-2-4.4c-0.3-0.2-0.6-0.5-0.9-0.7
			c-6.2-4.8-14.4-7.1-22.9-6.6c-4,0.2-7.9,1.1-11.6,2.5c1.9,3.2,3,7.2,3.1,11.3c0.1,3.7-0.7,7.3-2.1,10.4c3.5,1,7.1,1.4,10.8,1.3
			C55.5,61.8,63.8,58.7,70,53.2z"/>
		<path class="st1" d="M34,60.1c1.4-2.9,2.1-6.2,2.1-9.7c-0.1-3.8-1.1-7.5-2.9-10.5c-5.3,2.5-9.8,6.2-12.7,10.7
			C23.6,54.8,28.4,58.2,34,60.1z M28,47.8c0.2-0.1,0.5,0,0.6,0.2c0.4,0.7,1,0.8,1.3,0.8c0.7,0,1.3-0.4,1.7-1
			c0.1-0.2,0.4-0.3,0.6-0.2c0.2,0.1,0.3,0.4,0.2,0.6c-0.5,0.9-1.5,1.5-2.5,1.5c0,0,0,0,0,0c-0.9,0-1.7-0.5-2.2-1.3
			C27.6,48.2,27.7,47.9,28,47.8z"/>
		<path class="st2" d="M84.2,34.1c0-0.3-0.1-0.7-0.4-0.9c-0.3-0.2-0.6-0.3-1-0.1C78,34.8,73.6,37.5,70,41c-6.5-4.7-14.9-7-23.6-6.5
			c-4.7,0.3-9.2,1.3-13.4,3.2c0,0,0,0,0,0c-6.3,2.7-11.5,7.1-14.8,12.4c-0.2,0.4-0.2,0.8,0,1.1c3.6,5.1,9.2,9,15.8,11.2c0,0,0,0,0,0
			h0c3.7,1.2,7.6,1.8,11.6,1.8c0.4,0,0.7,0,1.1,0c8.9-0.3,17.4-3.4,23.8-8.8c3.6,3,7.9,5.1,12.6,6.3c0.1,0,0.2,0,0.2,0
			c0.2,0,0.5-0.1,0.6-0.2c0.3-0.2,0.4-0.5,0.4-0.8l-0.1-4C84.1,49.2,83.8,41.6,84.2,34.1z M35.9,60.8c1.5-3.1,2.2-6.6,2.1-10.4
			c-0.1-4.1-1.2-8.1-3.1-11.3c3.7-1.5,7.5-2.3,11.6-2.5c8.6-0.5,16.7,1.9,22.9,6.6c0.3,0.2,0.6,0.5,0.9,0.7c1.3,1.1,2,2.7,2,4.4
			c0,1.7-0.8,3.4-2.1,4.6c-0.1,0.1-0.2,0.2-0.4,0.3c-6.2,5.5-14.5,8.6-23.2,8.9C43,62.2,39.4,61.7,35.9,60.8z M33.1,39.9
			c1.8,3,2.9,6.7,2.9,10.5c0.1,3.5-0.6,6.8-2.1,9.7c-5.6-2-10.3-5.3-13.6-9.6C23.3,46.1,27.8,42.4,33.1,39.9z M72.2,53.9
			c1.4-1.5,2.3-3.5,2.3-5.6c0-2.3-1-4.5-2.8-6c0,0-0.1,0-0.1-0.1c3-2.8,6.5-5.1,10.4-6.7c-0.3,7.1,0,14.2,0.2,21.1l0.1,2.6
			C78.6,58.1,75.2,56.3,72.2,53.9z"/>
		<path class="st2" d="M29.9,49.8C29.9,49.8,29.9,49.8,29.9,49.8c1,0,2-0.6,2.5-1.5c0.1-0.2,0-0.5-0.2-0.6c-0.2-0.1-0.5,0-0.6,0.2
			c-0.3,0.6-1,1-1.7,1c-0.3,0-1-0.1-1.3-0.8c-0.1-0.2-0.4-0.3-0.6-0.2c-0.2,0.1-0.3,0.4-0.2,0.6C28.2,49.3,29,49.8,29.9,49.8z"/>
		<path class="st3" d="M38.1,50c0,0.1,0,0.3,0,0.4c0.1,3.7-0.7,7.3-2.1,10.4c3.5,1,7.1,1.4,10.8,1.3c8.7-0.3,17-3.4,23.2-8.9
			c0.2-0.1,0.3-0.2,0.4-0.3c1.3-1.2,2.1-2.8,2.1-4.6c0-0.5-0.1-1-0.2-1.4C62,53.3,48,55.3,38.1,50z"/>
		<path class="st4" d="M60.6,58.4c-3.5,0.9-7.2,1.4-10.8,1.3c-4.5,0-8.8-0.7-12.6-2.6c-0.3,1.2-0.8,2.4-1.3,3.6
			c3.5,1,7.1,1.4,10.8,1.3c6.1-0.2,11.9-1.8,17-4.6C62.7,57.9,61.6,58.2,60.6,58.4z"/>
		<path class="st5" d="M32.5,53.9c-0.9-0.1-1.9-0.2-2.8-0.4c-0.4,0-0.8,0-1.2-0.1c-2.8-0.4-5.5-1.6-7.4-3.6
			c-0.2,0.3-0.4,0.6-0.6,0.9c3.2,4.2,8,7.6,13.6,9.6c1-2,1.6-4.2,1.9-6.5C34.8,53.9,33.7,54,32.5,53.9z"/>
		<path class="st3" d="M82.2,52.9c-0.1-0.1-0.2-0.2-0.3-0.2c-1.4-1-2.6-2.1-3.7-3.2c-1.9-2-4.1-4.8-5.7-7.9
			c-0.3,0.3-0.6,0.5-0.9,0.8c0,0,0.1,0,0.1,0.1c1.8,1.5,2.8,3.6,2.8,6c0,2.1-0.8,4.1-2.3,5.6c2.9,2.4,6.4,4.2,10.2,5.3l-0.1-2.6
			C82.3,55.4,82.2,54.2,82.2,52.9z"/>
	</g>
</g>
<g>
	<g>
		<path class="st0" d="M82.1,46.5c-3.9,1.6-7.5,3.9-10.4,6.7c0,0,0.1,0,0.1,0.1c1.8,1.5,2.8,3.6,2.8,6c0,2.1-0.8,4.1-2.3,5.6
			c2.9,2.4,6.4,4.2,10.2,5.3l-0.1-2.6C82.1,60.7,81.8,53.6,82.1,46.5z"/>
		<path class="st0" d="M70,64.2c0.2-0.1,0.3-0.2,0.4-0.3c1.3-1.2,2.1-2.8,2.1-4.6c0-1.7-0.7-3.3-2-4.4c-0.3-0.2-0.6-0.5-0.9-0.7
			c-6.2-4.8-14.4-7.1-22.9-6.6c-4,0.2-7.9,1.1-11.6,2.5c1.9,3.2,3,7.2,3.1,11.3c0.1,3.7-0.7,7.3-2.1,10.4c3.5,1,7.1,1.4,10.8,1.3
			C55.5,72.8,63.8,69.6,70,64.2z"/>
		<path class="st1" d="M34,71.1c1.4-2.9,2.1-6.2,2.1-9.7c-0.1-3.8-1.1-7.5-2.9-10.5c-5.3,2.5-9.8,6.2-12.7,10.7
			C23.6,65.8,28.4,69.1,34,71.1z M28,58.7c0.2-0.1,0.5,0,0.6,0.2c0.4,0.7,1,0.8,1.3,0.8c0.7,0,1.3-0.4,1.7-1
			c0.1-0.2,0.4-0.3,0.6-0.2c0.2,0.1,0.3,0.4,0.2,0.6c-0.5,0.9-1.5,1.5-2.5,1.5c0,0,0,0,0,0c-0.9,0-1.7-0.5-2.2-1.3
			C27.6,59.1,27.7,58.9,28,58.7z"/>
		<path class="st2" d="M84.2,45.1c0-0.3-0.1-0.7-0.4-0.9c-0.3-0.2-0.6-0.3-1-0.1C78,45.8,73.6,48.5,70,52c-6.5-4.7-14.9-7-23.6-6.5
			c-4.7,0.3-9.2,1.3-13.4,3.2c0,0,0,0,0,0c-6.3,2.7-11.5,7.1-14.8,12.4c-0.2,0.4-0.2,0.8,0,1.1c3.6,5.1,9.2,9,15.8,11.2c0,0,0,0,0,0
			h0c3.7,1.2,7.6,1.8,11.6,1.8c0.4,0,0.7,0,1.1,0c8.9-0.3,17.4-3.4,23.8-8.8c3.6,3,7.9,5.1,12.6,6.3c0.1,0,0.2,0,0.2,0
			c0.2,0,0.5-0.1,0.6-0.2c0.3-0.2,0.4-0.5,0.4-0.8l-0.1-4C84.1,60.2,83.8,52.6,84.2,45.1z M35.9,71.7c1.5-3.1,2.2-6.6,2.1-10.4
			c-0.1-4.1-1.2-8.1-3.1-11.3c3.7-1.5,7.5-2.3,11.6-2.5c8.6-0.5,16.7,1.9,22.9,6.6c0.3,0.2,0.6,0.5,0.9,0.7c1.3,1.1,2,2.7,2,4.4
			c0,1.7-0.8,3.4-2.1,4.6c-0.1,0.1-0.2,0.2-0.4,0.3c-6.2,5.5-14.5,8.6-23.2,8.9C43,73.1,39.4,72.7,35.9,71.7z M33.1,50.9
			c1.8,3,2.9,6.7,2.9,10.5c0.1,3.5-0.6,6.8-2.1,9.7c-5.6-2-10.3-5.3-13.6-9.6C23.3,57.1,27.8,53.3,33.1,50.9z M72.2,64.9
			c1.4-1.5,2.3-3.5,2.3-5.6c0-2.3-1-4.5-2.8-6c0,0-0.1,0-0.1-0.1c3-2.8,6.5-5.1,10.4-6.7c-0.3,7.1,0,14.2,0.2,21.1l0.1,2.6
			C78.6,69.1,75.2,67.3,72.2,64.9z"/>
		<path class="st2" d="M29.9,60.7C29.9,60.7,29.9,60.7,29.9,60.7c1,0,2-0.6,2.5-1.5c0.1-0.2,0-0.5-0.2-0.6c-0.2-0.1-0.5,0-0.6,0.2
			c-0.3,0.6-1,1-1.7,1c-0.3,0-1-0.1-1.3-0.8c-0.1-0.2-0.4-0.3-0.6-0.2c-0.2,0.1-0.3,0.4-0.2,0.6C28.2,60.2,29,60.7,29.9,60.7z"/>
		<path class="st3" d="M38.1,60.9c0,0.1,0,0.3,0,0.4c0.1,3.7-0.7,7.3-2.1,10.4c3.5,1,7.1,1.4,10.8,1.3c8.7-0.3,17-3.4,23.2-8.9
			c0.2-0.1,0.3-0.2,0.4-0.3c1.3-1.2,2.1-2.8,2.1-4.6c0-0.5-0.1-1-0.2-1.4C62,64.2,48,66.3,38.1,60.9z"/>
		<path class="st4" d="M60.6,69.4c-3.5,0.9-7.2,1.4-10.8,1.3c-4.5,0-8.8-0.7-12.6-2.6c-0.3,1.2-0.8,2.4-1.3,3.6
			c3.5,1,7.1,1.4,10.8,1.3c6.1-0.2,11.9-1.8,17-4.6C62.7,68.8,61.6,69.1,60.6,69.4z"/>
		<path class="st5" d="M32.5,64.8c-0.9-0.1-1.9-0.2-2.8-0.4c-0.4,0-0.8,0-1.2-0.1c-2.8-0.4-5.5-1.6-7.4-3.6
			c-0.2,0.3-0.4,0.6-0.6,0.9c3.2,4.2,8,7.6,13.6,9.6c1-2,1.6-4.2,1.9-6.5C34.8,64.8,33.7,64.9,32.5,64.8z"/>
		<path class="st3" d="M82.2,63.9c-0.1-0.1-0.2-0.2-0.3-0.2c-1.4-1-2.6-2.1-3.7-3.2c-1.9-2-4.1-4.8-5.7-7.9
			c-0.3,0.3-0.6,0.5-0.9,0.8c0,0,0.1,0,0.1,0.1c1.8,1.5,2.8,3.6,2.8,6c0,2.1-0.8,4.1-2.3,5.6c2.9,2.4,6.4,4.2,10.2,5.3l-0.1-2.6
			C82.3,66.4,82.2,65.1,82.2,63.9z"/>
	</g>
</g>
<g>
	<g>
		<path class="st0" d="M82.1,57.5c-3.9,1.6-7.5,3.9-10.4,6.7c0,0,0.1,0,0.1,0.1c1.8,1.5,2.8,3.6,2.8,6c0,2.1-0.8,4.1-2.3,5.6
			c2.9,2.4,6.4,4.2,10.2,5.3l-0.1-2.6C82.1,71.7,81.8,64.6,82.1,57.5z"/>
		<path class="st0" d="M70,75.1c0.2-0.1,0.3-0.2,0.4-0.3c1.3-1.2,2.1-2.8,2.1-4.6c0-1.7-0.7-3.3-2-4.4c-0.3-0.2-0.6-0.5-0.9-0.7
			c-6.2-4.8-14.4-7.1-22.9-6.6c-4,0.2-7.9,1.1-11.6,2.5c1.9,3.2,3,7.2,3.1,11.3c0.1,3.7-0.7,7.3-2.1,10.4c3.5,1,7.1,1.4,10.8,1.3
			C55.5,83.7,63.8,80.6,70,75.1z"/>
		<path class="st1" d="M34,82.1c1.4-2.9,2.1-6.2,2.1-9.7c-0.1-3.8-1.1-7.5-2.9-10.5c-5.3,2.5-9.8,6.2-12.7,10.7
			C23.6,76.7,28.4,80.1,34,82.1z M28,69.7c0.2-0.1,0.5,0,0.6,0.2c0.4,0.7,1,0.8,1.3,0.8c0.7,0,1.3-0.4,1.7-1
			c0.1-0.2,0.4-0.3,0.6-0.2c0.2,0.1,0.3,0.4,0.2,0.6c-0.5,0.9-1.5,1.5-2.5,1.5c0,0,0,0,0,0c-0.9,0-1.7-0.5-2.2-1.3
			C27.6,70.1,27.7,69.8,28,69.7z"/>
		<path class="st2" d="M84.2,56c0-0.3-0.1-0.7-0.4-0.9c-0.3-0.2-0.6-0.3-1-0.1c-4.8,1.7-9.3,4.5-12.8,7.9c-6.5-4.7-14.9-7-23.6-6.5
			c-4.7,0.3-9.2,1.3-13.4,3.2c0,0,0,0,0,0c-6.3,2.7-11.5,7.1-14.8,12.4c-0.2,0.4-0.2,0.8,0,1.1c3.6,5.1,9.2,9,15.8,11.2c0,0,0,0,0,0
			h0c3.7,1.2,7.6,1.8,11.6,1.8c0.4,0,0.7,0,1.1,0c8.9-0.3,17.4-3.4,23.8-8.8c3.6,3,7.9,5.1,12.6,6.3c0.1,0,0.2,0,0.2,0
			c0.2,0,0.5-0.1,0.6-0.2c0.3-0.2,0.4-0.5,0.4-0.8l-0.1-4C84.1,71.1,83.8,63.5,84.2,56z M35.9,82.7c1.5-3.1,2.2-6.6,2.1-10.4
			C38,68.2,36.9,64.3,35,61c3.7-1.5,7.5-2.3,11.6-2.5c8.6-0.5,16.7,1.9,22.9,6.6c0.3,0.2,0.6,0.5,0.9,0.7c1.3,1.1,2,2.7,2,4.4
			c0,1.7-0.8,3.4-2.1,4.6c-0.1,0.1-0.2,0.2-0.4,0.3c-6.2,5.5-14.5,8.6-23.2,8.9C43,84.1,39.4,83.7,35.9,82.7z M33.1,61.8
			c1.8,3,2.9,6.7,2.9,10.5c0.1,3.5-0.6,6.8-2.1,9.7c-5.6-2-10.3-5.3-13.6-9.6C23.3,68.1,27.8,64.3,33.1,61.8z M72.2,75.8
			c1.4-1.5,2.3-3.5,2.3-5.6c0-2.3-1-4.5-2.8-6c0,0-0.1,0-0.1-0.1c3-2.8,6.5-5.1,10.4-6.7c-0.3,7.1,0,14.2,0.2,21.1l0.1,2.6
			C78.6,80.1,75.2,78.2,72.2,75.8z"/>
		<path class="st2" d="M29.9,71.7C29.9,71.7,29.9,71.7,29.9,71.7c1,0,2-0.6,2.5-1.5c0.1-0.2,0-0.5-0.2-0.6c-0.2-0.1-0.5,0-0.6,0.2
			c-0.3,0.6-1,1-1.7,1c-0.3,0-1-0.1-1.3-0.8c-0.1-0.2-0.4-0.3-0.6-0.2c-0.2,0.1-0.3,0.4-0.2,0.6C28.2,71.2,29,71.7,29.9,71.7z"/>
		<path class="st3" d="M38.1,71.9c0,0.1,0,0.3,0,0.4c0.1,3.7-0.7,7.3-2.1,10.4c3.5,1,7.1,1.4,10.8,1.3c8.7-0.3,17-3.4,23.2-8.9
			c0.2-0.1,0.3-0.2,0.4-0.3c1.3-1.2,2.1-2.8,2.1-4.6c0-0.5-0.1-1-0.2-1.4C62,75.2,48,77.2,38.1,71.9z"/>
		<path class="st4" d="M60.6,80.3c-3.5,0.9-7.2,1.4-10.8,1.3c-4.5,0-8.8-0.7-12.6-2.6c-0.3,1.2-0.8,2.4-1.3,3.6
			c3.5,1,7.1,1.4,10.8,1.3c6.1-0.2,11.9-1.8,17-4.6C62.7,79.8,61.6,80.1,60.6,80.3z"/>
		<path class="st5" d="M32.5,75.8c-0.9-0.1-1.9-0.2-2.8-0.4c-0.4,0-0.8,0-1.2-0.1c-2.8-0.4-5.5-1.6-7.4-3.6
			c-0.2,0.3-0.4,0.6-0.6,0.9c3.2,4.2,8,7.6,13.6,9.6c1-2,1.6-4.2,1.9-6.5C34.8,75.8,33.7,75.9,32.5,75.8z"/>
		<path class="st3" d="M82.2,74.8c-0.1-0.1-0.2-0.2-0.3-0.2c-1.4-1-2.6-2.1-3.7-3.2c-1.9-2-4.1-4.8-5.7-7.9
			c-0.3,0.3-0.6,0.5-0.9,0.8c0,0,0.1,0,0.1,0.1c1.8,1.5,2.8,3.6,2.8,6c0,2.1-0.8,4.1-2.3,5.6c2.9,2.4,6.4,4.2,10.2,5.3l-0.1-2.6
			C82.3,77.3,82.2,76.1,82.2,74.8z"/>
	</g>
</g>
</svg>
