<?xml version="1.0" encoding="utf-8"?>
<!-- Generator: Adobe Illustrator 22.1.0, SVG Export Plug-In . SVG Version: 6.00 Build 0)  -->
<svg version="1.1" id="Layer_1" xmlns="http://www.w3.org/2000/svg" xmlns:xlink="http://www.w3.org/1999/xlink" x="0px" y="0px"
	 viewBox="0 0 100 100" style="enable-background:new 0 0 100 100;" xml:space="preserve">
<style type="text/css">
	.st0{fill:#111111;}
	.st1{fill:#EEEEEE;}
	.st2{fill:#767676;}
	.st3{fill:#FFFFFF;}
	.st4{fill:#D2FAFD;}
	.st5{fill:#FDE880;}
	.st6{fill:#91DEE3;}
	.st7{fill:#FDC604;}
</style>
<path class="st0" d="M95.9,88.8c0,2-19.6,3.7-43.9,3.7c-24.2,0-43.9-1.6-43.9-3.7c0-2,19.6-3.7,43.9-3.7
	C76.3,85.1,95.9,86.7,95.9,88.8z"/>
<g>
	<path class="st1" d="M63.7,73.9c-0.7-3.9,0-7.8,1.7-9.8c0.9-1.1,2.1-1.6,3.4-1.6c4.3,0.2,5.3,4.3,6.4,8.6
		C76.6,76.7,78.1,83,86.8,84c0-0.9,0.1-1.8,0-2.7C86.4,58.2,68.5,50,53.2,50c-12.5,0-24.2,6.6-30.6,17.2c0.9,0.3,1.6,0.7,2.3,1.2
		c0.2,0.2,0.3,0.5,0.1,0.7c-0.1,0.1-0.3,0.2-0.4,0.2c-0.1,0-0.2,0-0.3-0.1c-0.7-0.6-1.6-1-2.5-1.2c-1.5-0.4-2.9-0.3-4,0
		c1,0.2,2.1,0.7,3.2,1.3c1.2,0.7,2.3,1.6,3.2,2.5c0.2,0.2,0.2,0.5,0,0.7c-0.2,0.2-0.5,0.2-0.7,0c-0.8-0.9-1.8-1.7-2.9-2.4
		c-1.4-0.9-2.9-1.3-4.1-1.4c-0.5,1.9,0.6,5.1,1.4,6.3c0,0,0,0,0,0c0.3,0.1,0.3,0.4,0.2,0.7c-1.2,2.3-2.1,4.8-2.5,7.4
		c-0.2,1.3-0.3,2.6-0.3,4c0,0.6,0,1.3,0.1,1.9c6.3,1.7,16.2,2.7,25.9,2.8c-1.3-0.7-2.2-1.8-2.2-3.2c0-2,2.6-3.5,6-3.5
		c1.7,0,3.7,0.4,5.9,1.3c0.3,0.1,0.4,0.4,0.3,0.7c-0.1,0.3-0.4,0.4-0.7,0.3c-2.1-0.8-3.9-1.2-5.5-1.2c-2.9,0-4.9,1.3-4.9,2.5
		c0,2.1,2.8,3,4.6,3.1c0.1,0,0.2,0.1,0.3,0.1c3.8-0.1,7.4-0.3,10.7-0.7c0,0,0,0,0,0c8.8-0.3,17.2-1,24.2-2.1
		C71.7,87.7,65,81.5,63.7,73.9z M24.4,80.6c0.2-0.2,0.6-0.1,0.7,0.1c0.2,0.2,0.1,0.6-0.1,0.7c-0.9,0.6-1.9,1-2.8,1
		c-1.2,0-2.4-0.5-3.3-1.5c-0.2-0.2-0.2-0.5,0-0.7c0.2-0.2,0.5-0.2,0.7,0C20.9,81.6,22.8,81.7,24.4,80.6z M17.7,85.7
		c-0.1,0-0.2-0.1-0.2-0.2c0-0.1,0.1-0.2,0.2-0.2l3.4-0.3c0.1,0,0.2,0.1,0.2,0.2c0,0.1-0.1,0.2-0.2,0.2L17.7,85.7
		C17.7,85.7,17.7,85.7,17.7,85.7z M19.2,88c-0.1,0-0.2-0.1-0.2-0.1c0-0.1,0-0.2,0.1-0.2l2.3-0.6c0.1,0,0.2,0,0.2,0.1
		c0,0.1,0,0.2-0.1,0.2L19.2,88C19.3,88,19.2,88,19.2,88z M22.7,88.7L21,89.5c0,0-0.1,0-0.1,0c-0.1,0-0.1,0-0.2-0.1
		c0-0.1,0-0.2,0.1-0.3l1.7-0.8c0.1,0,0.2,0,0.3,0.1C22.8,88.5,22.8,88.7,22.7,88.7z M28,89.1c0.3,0.3,0.8,0.5,1.4,0.5
		c0.2,0,0.4,0.2,0.4,0.4c0,0.2-0.2,0.4-0.4,0.4c-0.9,0-1.6-0.3-2-0.8c-0.2-0.2-0.3-0.5-0.4-0.8c-0.2,0.3-0.5,0.6-0.7,0.8
		c-0.4,0.3-0.8,0.4-1.3,0.4c-0.2,0-0.4,0-0.5-0.1c-0.2,0-0.3-0.2-0.3-0.4c0-0.2,0.2-0.3,0.4-0.3c0.5,0.1,1,0,1.3-0.2
		c0.6-0.4,1-1.2,1.1-2.2l0,0c-0.1-0.1-0.3-0.1-0.4-0.3l-1.5-1.7c-0.1-0.1-0.2-0.3-0.1-0.5c0.1-0.2,0.2-0.3,0.3-0.3
		c1.1-0.3,3-0.2,4.1,0.1c0.2,0.1,0.3,0.2,0.3,0.4c0,0.2,0,0.3-0.1,0.5l-1.6,1.6c-0.1,0.1-0.2,0.2-0.3,0.2c0,0,0,0.1,0,0.1
		c0,0,0,0,0,0C27.6,88,27.7,88.7,28,89.1z M34.4,90.9c0,0.1-0.1,0.1-0.2,0.1c0,0-0.1,0-0.1,0l-1.6-1.1c-0.1-0.1-0.1-0.2-0.1-0.3
		c0.1-0.1,0.2-0.1,0.3-0.1l1.6,1.1C34.4,90.7,34.4,90.8,34.4,90.9z M36.3,89.1c0,0.1-0.1,0.1-0.2,0.1c0,0,0,0,0,0l-3.1-0.8
		c-0.1,0-0.2-0.1-0.1-0.2c0-0.1,0.1-0.2,0.2-0.1l3.1,0.8C36.2,88.9,36.3,89,36.3,89.1z M37.2,86.7l-4,0c0,0,0,0,0,0
		c-0.1,0-0.2-0.1-0.2-0.2c0-0.1,0.1-0.2,0.2-0.2l4,0c0,0,0,0,0,0c0.1,0,0.2,0.1,0.2,0.2C37.4,86.6,37.3,86.7,37.2,86.7z M40.3,81.5
		c-1,1-2.2,1.5-3.4,1.5c-1,0-1.9-0.3-2.8-1c-0.2-0.2-0.3-0.5-0.1-0.7c0.2-0.2,0.5-0.3,0.7-0.1c1.5,1.1,3.4,1,4.8-0.4
		c0.2-0.2,0.5-0.2,0.7,0C40.5,81,40.5,81.3,40.3,81.5z M45.9,71.5c-0.1,0.1-0.2,0.1-0.3,0.1c-0.2,0-0.3-0.1-0.4-0.2
		c-0.9-1.1-1.9-1.9-3.1-2.4c1.5,1.7,2.5,4.1,3,6.2c0.1,0.3-0.1,0.6-0.4,0.6c0,0-0.1,0-0.1,0c-0.2,0-0.5-0.2-0.5-0.4
		c-0.6-3-2.2-5.7-4.1-6.8c-1.9,1-3.7,4.2-4,5.6c-0.1,0.3-0.4,0.4-0.6,0.4c-0.3-0.1-0.4-0.4-0.4-0.6c0.4-1.7,2.5-5.3,4.8-6.4
		c0,0,0,0,0,0c0,0,0,0,0,0c0,0,0,0,0,0c0,0,0,0,0.1,0c0,0,0,0,0,0c0,0,0,0,0.1,0c0,0,0,0,0,0c0,0,0,0,0,0c2.5,0.2,4.4,1.3,6,3.2
		C46.2,71,46.2,71.4,45.9,71.5z"/>
	<path class="st1" d="M88.2,86.7c0.2-0.3,0.3-0.8,0.1-1.1c-0.2-0.4-0.6-0.6-1-0.6c0,0,0,0,0,0c0,0-0.1,0-0.2,0
		c-9.9-0.8-11.6-7.9-13-13.7c-1-4.3-1.9-7.7-5.4-7.8c-0.1,0-0.1,0-0.1,0c-0.9,0-1.7,0.4-2.4,1.2c-1.5,1.8-2.1,5.4-1.5,9
		c1.5,8.3,9.7,14.8,18.6,14.8c0,0,0,0,0,0c0.2,0,0.4,0,0.6,0c1.1,0,2-0.2,2.7-0.6c0,0,0,0,0,0c0,0,0,0,0.1,0
		C87.4,87.6,87.9,87.2,88.2,86.7z"/>
	<path class="st1" d="M14.1,88.9c0-0.6-0.1-1.1-0.1-1.7c0-1.2,0.1-2.3,0.2-3.4c-1.8,0.4-3.1,1.3-3.1,2.3
		C11.2,87.6,12.6,88.5,14.1,88.9z"/>
	<path class="st0" d="M18.9,80.2c-0.2,0.2-0.2,0.5,0,0.7c0.9,1,2.1,1.5,3.3,1.5c1,0,2-0.3,2.8-1c0.2-0.2,0.3-0.5,0.1-0.7
		c-0.2-0.2-0.5-0.3-0.7-0.1c-1.6,1.1-3.5,1-4.8-0.4C19.4,80,19.1,80,18.9,80.2z"/>
	<path class="st0" d="M39.6,80.8c-1.4,1.4-3.3,1.6-4.8,0.4c-0.2-0.2-0.6-0.1-0.7,0.1c-0.2,0.2-0.1,0.6,0.1,0.7c0.8,0.6,1.8,1,2.8,1
		c1.2,0,2.4-0.5,3.4-1.5c0.2-0.2,0.2-0.5,0-0.7C40.1,80.6,39.8,80.6,39.6,80.8z"/>
	<path class="st0" d="M87.8,83.8c-0.2-10.1-2.2-20.3-10.5-26.9c-6.3-4.9-14.6-8-24.1-8c-12.9,0-25,6.9-31.7,18c-2.6-0.5-5.1,0.1-6,1
		c0,0,0,0,0,0c0,0,0,0,0,0c0,0,0,0.1-0.1,0.1c0,0,0,0,0,0c-0.9,2.3,0.5,6.3,1.4,7.6c-1.1,2.2-1.9,4.6-2.3,7
		c-2.6,0.4-4.3,1.8-4.3,3.4c0,2.4,2.5,3.7,4.7,4C21.5,92,32.1,93,42.2,93c4.7,0,9.4-0.2,13.4-0.7C66.2,92,76.3,91,84,89.5
		c1.1,0,2.2-0.3,3-0.6l0.1,0c0.1,0,0.1-0.1,0.2-0.1C89.5,87.7,90.4,84.7,87.8,83.8z M14.1,88.9c-1.5-0.4-2.9-1.3-2.9-2.8
		c0-1,1.3-1.9,3.1-2.3c-0.2,1.1-0.2,2.3-0.2,3.4C14.1,87.8,14.1,88.4,14.1,88.9z M55.5,91.3C55.5,91.3,55.5,91.3,55.5,91.3
		c-3.3,0.4-7,0.6-10.8,0.7c-0.1-0.1-0.2-0.1-0.3-0.1c-1.8-0.1-4.6-1-4.6-3.1c0-1.2,2-2.5,4.9-2.5c1.6,0,3.4,0.4,5.5,1.2
		c0.3,0.1,0.6,0,0.7-0.3c0.1-0.3,0-0.6-0.3-0.7c-2.2-0.9-4.2-1.3-5.9-1.3c-3.3,0-6,1.5-6,3.5c0,1.4,0.9,2.5,2.2,3.2
		c-9.6-0.1-19.5-1.1-25.9-2.8c-0.1-0.6-0.1-1.3-0.1-1.9c0-1.3,0.1-2.7,0.3-4c0.4-2.6,1.2-5.1,2.5-7.4c0.1-0.3,0-0.6-0.2-0.7
		c0,0,0,0,0,0c-0.8-1.2-1.9-4.4-1.4-6.3c1.2,0.1,2.6,0.6,4.1,1.4c1.1,0.7,2.1,1.5,2.9,2.4c0.2,0.2,0.5,0.2,0.7,0
		c0.2-0.2,0.2-0.5,0-0.7c-0.8-0.9-2-1.8-3.2-2.5c-1.1-0.6-2.2-1.1-3.2-1.3c1.1-0.3,2.5-0.4,4,0c1,0.3,1.8,0.7,2.5,1.2
		c0.1,0.1,0.2,0.1,0.3,0.1c0.2,0,0.3-0.1,0.4-0.2c0.2-0.2,0.1-0.6-0.1-0.7c-0.7-0.5-1.4-0.9-2.3-1.2C29.1,56.6,40.8,50,53.2,50
		c15.3,0,33.2,8.2,33.6,31.3c0,0.9,0,1.8,0,2.7c-8.7-0.9-10.2-7.2-11.6-12.8c-1.1-4.3-2.1-8.4-6.4-8.6c-1.3-0.1-2.5,0.5-3.4,1.6
		c-1.7,2.1-2.4,5.9-1.7,9.8c1.4,7.6,8.1,13.8,16,15.3C72.8,90.3,64.4,91,55.5,91.3z M88.3,86.6C88.3,86.7,88.3,86.7,88.3,86.6
		c-0.2,0.3-0.3,0.4-0.5,0.6c0,0-0.1,0.1-0.2,0.1c0,0-0.1,0.1-0.2,0.1c0,0,0,0,0,0c-0.1,0-0.1,0.1-0.2,0.1c-0.2,0.1-0.4,0.2-0.6,0.3
		c0,0,0,0-0.1,0c0,0,0,0,0,0c-0.8,0.3-1.7,0.5-2.7,0.6c-0.2,0-0.4,0-0.6,0h0c-9,0-17.2-6.5-18.6-14.8c-0.1-0.4-0.1-0.7-0.2-1.1
		c-0.1-0.7-0.1-1.5-0.1-2.1c0-0.1,0-0.2,0-0.3c0-0.2,0-0.4,0-0.6c0.2-2,0.8-3.7,1.7-4.8c0.7-0.8,1.5-1.2,2.4-1.2c0,0,0.1,0,0.1,0
		c3.6,0.2,4.4,3.6,5.4,7.8c1.4,5.7,3.2,12.9,13,13.7c0.1,0,0.1,0,0.2,0c0.4,0,0.8,0.2,1,0.6c0,0,0,0.1,0,0.1
		C88.5,86,88.5,86.3,88.3,86.6C88.3,86.6,88.3,86.6,88.3,86.6z"/>
	<path class="st0" d="M21.2,85.2c0-0.1-0.1-0.2-0.2-0.2l-3.4,0.3c-0.1,0-0.2,0.1-0.2,0.2c0,0.1,0.1,0.2,0.2,0.2c0,0,0,0,0,0l3.4-0.3
		C21.2,85.4,21.3,85.3,21.2,85.2z"/>
	<path class="st0" d="M21.7,87.1c0-0.1-0.1-0.2-0.2-0.1l-2.3,0.6c-0.1,0-0.2,0.1-0.1,0.2c0,0.1,0.1,0.1,0.2,0.1c0,0,0,0,0,0l2.3-0.6
		C21.7,87.3,21.8,87.2,21.7,87.1z"/>
	<path class="st0" d="M22.5,88.4l-1.7,0.8c-0.1,0-0.1,0.2-0.1,0.3c0,0.1,0.1,0.1,0.2,0.1c0,0,0.1,0,0.1,0l1.7-0.8
		c0.1,0,0.1-0.2,0.1-0.3C22.8,88.3,22.6,88.3,22.5,88.4z"/>
	<path class="st0" d="M37.2,86.3C37.2,86.3,37.2,86.3,37.2,86.3l-4,0c-0.1,0-0.2,0.1-0.2,0.2c0,0.1,0.1,0.2,0.2,0.2c0,0,0,0,0,0l4,0
		c0.1,0,0.2-0.1,0.2-0.2C37.4,86.4,37.3,86.3,37.2,86.3z"/>
	<path class="st0" d="M36.1,88.9L33,88.1c-0.1,0-0.2,0-0.2,0.1c0,0.1,0,0.2,0.1,0.2l3.1,0.8c0,0,0,0,0,0c0.1,0,0.2-0.1,0.2-0.1
		C36.3,89,36.2,88.9,36.1,88.9z"/>
	<path class="st0" d="M34.3,90.6l-1.6-1.1c-0.1-0.1-0.2,0-0.3,0.1c-0.1,0.1,0,0.2,0.1,0.3l1.6,1.1c0,0,0.1,0,0.1,0
		c0.1,0,0.1,0,0.2-0.1C34.4,90.8,34.4,90.7,34.3,90.6z"/>
	<path class="st0" d="M40.1,67.6C40,67.6,40,67.6,40.1,67.6C40,67.6,40,67.6,40.1,67.6c-0.1,0-0.1,0-0.1,0c0,0,0,0,0,0
		c0,0,0,0-0.1,0c0,0,0,0,0,0c0,0,0,0,0,0c0,0,0,0,0,0c-2.3,1.1-4.4,4.7-4.8,6.4c-0.1,0.3,0.1,0.6,0.4,0.6c0.3,0.1,0.6-0.1,0.6-0.4
		c0.4-1.5,2.2-4.6,4-5.6c1.8,1.1,3.5,3.8,4.1,6.8c0,0.2,0.3,0.4,0.5,0.4c0,0,0.1,0,0.1,0c0.3-0.1,0.5-0.3,0.4-0.6
		c-0.4-2.1-1.4-4.5-3-6.2c1.2,0.5,2.2,1.2,3.1,2.4c0.1,0.1,0.3,0.2,0.4,0.2c0.1,0,0.2,0,0.3-0.1c0.2-0.2,0.3-0.5,0.1-0.7
		C44.5,68.9,42.5,67.8,40.1,67.6z"/>
	<path class="st0" d="M27.8,86.9C27.8,86.9,27.8,86.8,27.8,86.9c0.1-0.1,0.2-0.2,0.3-0.3l1.6-1.6c0.1-0.1,0.2-0.3,0.1-0.5
		c0-0.2-0.2-0.3-0.3-0.4c-1.1-0.4-3-0.4-4.1-0.1c-0.2,0-0.3,0.2-0.3,0.3c-0.1,0.2,0,0.3,0.1,0.5l1.5,1.7c0.1,0.1,0.2,0.2,0.4,0.3
		l0,0c-0.1,1-0.6,1.8-1.1,2.2c-0.4,0.3-0.8,0.3-1.3,0.2c-0.2,0-0.4,0.1-0.4,0.3c0,0.2,0.1,0.4,0.3,0.4c0.2,0,0.4,0.1,0.5,0.1
		c0.5,0,0.9-0.1,1.3-0.4c0.3-0.2,0.5-0.5,0.7-0.8c0.1,0.3,0.2,0.5,0.4,0.8c0.4,0.5,1.1,0.8,2,0.8c0.2,0,0.4-0.2,0.4-0.4
		c0-0.2-0.2-0.4-0.4-0.4c-0.7,0-1.2-0.2-1.4-0.5C27.7,88.7,27.6,88,27.8,86.9C27.8,86.9,27.8,86.9,27.8,86.9z"/>
	<path class="st2" d="M88.3,86.6C88.3,86.6,88.3,86.6,88.3,86.6c-0.2,0.3-0.3,0.5-0.5,0.6c0,0-0.1,0.1-0.2,0.1c0,0-0.1,0.1-0.2,0.1
		c0,0,0,0,0,0c0,0-0.1,0.1-0.2,0.1c-0.2,0.1-0.4,0.2-0.6,0.3c0,0,0,0-0.1,0c0,0,0,0,0,0c-0.8,0.3-1.7,0.5-2.7,0.6
		c-0.2,0-0.4,0-0.6,0h0c-9,0-17.2-6.5-18.6-14.8c-0.1-0.4-0.1-0.7-0.2-1.1c-0.1-0.7-0.1-1.5-0.1-2.1c0-0.1,0-0.2,0-0.3
		c0-0.2,0-0.4,0-0.6c0.2,0.1,0.3,0.1,0.5,0.2c0,0,0,0,0.1,0.1c0.7,1.2,1.3,2.4,1.9,3.7c1.9,4.3,4.4,7.8,8.3,10.5
		c3.8,2.7,8.9,3.3,13.2,1.7C88.5,86,88.5,86.3,88.3,86.6z"/>
	<path class="st2" d="M86.8,81.3c-0.1-4.4-0.8-8.2-2-11.6c0.3,2.6,0.5,5.3,0.6,7.9c0.1,1.7,0.1,3.7-0.9,5.2
		c-0.2,0.2-0.3,0.4-0.5,0.6c0.8,0.2,1.7,0.4,2.7,0.5C86.8,83,86.8,82.1,86.8,81.3z"/>
	<path class="st2" d="M69.8,84.4c1.1,1.7,2.1,3.8,2.3,5.8c2.7-0.3,5.3-0.6,7.7-1C76,88.5,72.5,86.8,69.8,84.4z"/>
	<path class="st2" d="M17.7,75.2c0,0,0.1,0.1,0.1,0.1c0.6-2,2.8-3.6,5-2.7c0.1,0.1,0.3,0.1,0.4,0.2c0.1,0,0.1,0,0.1-0.1
		c-0.1,0-0.1-0.1-0.1-0.1c-0.8-0.9-1.8-1.7-2.9-2.4c-0.5-0.3-1.1-0.6-1.6-0.8c0,0,0,0,0,0c-0.4-0.1-1.3-0.2-2.1-0.6
		c-0.1,0-0.2,0-0.4,0C15.8,70.8,16.8,74,17.7,75.2C17.6,75.2,17.7,75.2,17.7,75.2z"/>
	<path class="st2" d="M40.9,72.9c1,0.2,2,0.7,2.9,1.4c-0.7-2.5-2.2-4.7-3.8-5.6c-1.7,0.9-3.3,3.5-3.9,5.1
		C37.4,72.9,39.1,72.5,40.9,72.9z"/>
	<path class="st2" d="M86.7,78.1c-1.3,1.7-2.9,3.2-4.7,4.5c1.3,0.7,2.9,1.2,4.8,1.4c0-0.9,0.1-1.8,0-2.7
		C86.8,80.2,86.7,79.1,86.7,78.1z"/>
	<path class="st2" d="M67.1,88.8c-2.2,0.5-4.4,0.8-6.7,1c-2,0.2-3.9,0-5.9,0.1c-4.3,0.2-9.1,1.4-13.1-1c-0.5-0.3-0.9-0.8-1.1-1.3
		c-0.3,0.3-0.5,0.7-0.5,1c0,2.1,2.8,3,4.6,3.1c0.1,0,0.2,0.1,0.3,0.1c3.8-0.1,7.4-0.3,10.7-0.7c0,0,0,0,0,0c8.8-0.3,17.2-1,24.2-2.1
		c-2.2-0.4-4.3-1.2-6.2-2.2C71.3,87.8,69.1,88.4,67.1,88.8z"/>
	<path class="st2" d="M39.2,90.3c-3.4,1.2-7.3,1.4-10.7,1c-2.3-0.3-4.9-0.8-7.2-1.8L21,89.5c0,0-0.1,0-0.1,0c-0.1,0-0.1,0-0.2-0.1
		c0-0.1,0-0.2,0.1-0.3l0.1,0c-1.7-0.9-3.1-2.1-3.9-3.8c-0.7-1.4-1-2.9-1.1-4.5c-0.2,0.8-0.4,1.6-0.5,2.4c-0.2,1.3-0.3,2.6-0.3,4
		c0,0.6,0,1.3,0.1,1.9c6.3,1.7,16.2,2.7,25.9,2.8C40.2,91.5,39.6,91,39.2,90.3z"/>
	<path class="st2" d="M14.1,86.4c-0.9-0.1-1.8-0.5-2.5-1.2c-0.2,0.3-0.4,0.6-0.4,0.9c0,1.5,1.4,2.4,2.9,2.8c0-0.6-0.1-1.1-0.1-1.7
		C14.1,87,14.1,86.7,14.1,86.4z"/>
	<path class="st3" d="M26.6,62.9c3.5-3.3,7.6-6.1,12.1-7.8c9.5-3.7,20.9-5.1,30.4-0.5c2.3,1.1,4.3,2.8,6.2,4.5
		c1.3,1.1,2.7,2.2,3.8,3.5c2.6,3,4.9,6.4,6.5,10c0.1,0.2,0.1,0.3,0.2,0.5C81.8,56.2,66.5,50,53.2,50c-11.7,0-22.7,5.8-29.4,15.4
		c0.7-0.6,1.5-1.3,2.2-1.9C26.2,63.3,26.4,63.1,26.6,62.9z"/>
	<path class="st3" d="M87.4,85C87.4,85,87.4,85,87.4,85c-0.1,0-0.1,0-0.2,0c-9.9-0.8-11.6-7.9-13-13.7c-1-4.3-1.9-7.7-5.4-7.8
		c-0.1,0-0.1,0-0.1,0c-0.8,0-1.5,0.3-2.1,0.9c1.3-0.2,2.6,0.1,3.7,1.2c0.1,0.1,0.2,0.3,0.3,0.4c1,1,1.6,2.4,1.7,3.8
		c0.2,1.7,0.1,3.3,0.5,4.9c0.3,1.6,0.8,3.2,1.6,4.1c1.3,1.5,2.4,2.3,4.1,3.3c1.4,0.8,3.2,1.8,4.5,2.3C84.4,84.9,85.9,85.1,87.4,85
		C87.4,85.1,87.4,85.1,87.4,85z"/>
	<path class="st3" d="M49,87c-1.5-0.5-3-0.8-4.2-0.8c-2.9,0-4.9,1.3-4.9,2.5c0,0.1,0,0.1,0,0.2c1.2-0.9,2.8-1.4,4.2-1.6
		C45.8,87,47.4,86.9,49,87z"/>
	<path class="st3" d="M23.9,71.8c0.1-0.2,0.1-0.4,0.2-0.6c0.2-0.6,0.3-1.3,0.4-1.9c0,0,0,0,0,0c-0.1,0-0.2,0-0.3-0.1
		c-0.7-0.6-1.6-1-2.5-1.2c-1.5-0.4-2.9-0.3-4,0c1,0.2,2.1,0.7,3.2,1.3C22,70,23.1,70.9,23.9,71.8z"/>
	<path class="st3" d="M45.4,72.6c0.1-0.3,0.2-0.7,0.3-1c0,0,0,0,0,0c-0.2,0-0.3-0.1-0.4-0.2c-0.9-1.1-1.9-1.9-3.1-2.4
		c1.3,1.4,2.3,3.5,2.8,5.4C45,73.9,45.2,73.2,45.4,72.6z"/>
</g>
<g>
	<path class="st3" d="M71.2,26.6c-0.2,4.2-2.5,8.2-6,10.6l0,0c0,0,0,0,0,0c0,0,0,0,0,0c0,0,0,0,0,0C62.3,39,59,40.6,54.6,42
		c-3.5,1.2-7.4,1.8-11.4,1.8c0,0,0,0,0,0c-8.9,0-17.2-3-22.7-8.2c-3.8-3.6-5-9.1-3.4-14.9c0.9-3.3,4-7.2,6.5-9.4
		c4.3-3.8,11-5.9,20-6.2c0.4,0,0.8,0,1.2,0c7.1,0,14,2.2,18.9,6.2C68.6,15,71.5,21,71.2,26.6z"/>
	<path class="st3" d="M26.2,44.7c-0.8,0-1.7,0.1-2.2,0.3c-0.7,0.3-1.4,0.8-1.6,1.5c-0.2,0.4-0.1,0.8,0.1,1.2
		c0.3,0.5,0.8,0.8,1.6,1.1c0,0,0.1,0,0.1,0c0.8,0.4,1.9,0.6,2.9,0.6c1,0,1.9-0.2,2.5-0.5c0.6-0.4,1-0.9,1-1.6
		C30.5,45.4,28.2,44.7,26.2,44.7z"/>
	<path class="st3" d="M24.1,53c-0.6-0.8-2.1-1-3-0.4c-0.4,0.3-0.7,0.8-0.4,1.3c0,0,0,0,0,0.1c0,0,0,0,0.1,0.1c0,0,0,0,0,0l0,0.1
		c0,0,0,0,0,0c0,0,0,0,0,0c0,0,0.1,0.1,0.1,0.1c0.5,0.3,1.1,0.3,1.4,0.3c0.1,0,0.1,0,0.2,0l0.1,0c0.1,0,0.1,0,0.2,0c0,0,0,0,0,0
		c0.1,0,0.1,0,0.1,0c0,0,0,0,0,0c0,0,0,0,0,0c0,0,0,0,0,0c0.2,0,0.5-0.1,0.6-0.2c0.3-0.2,0.5-0.5,0.5-0.8
		C24.2,53.4,24.2,53.2,24.1,53z"/>
	<path class="st3" d="M21.6,58.1c-0.3-0.4-0.8-0.5-1-0.5c-0.1,0-0.1,0-0.2,0c-0.5,0.1-0.8,0.3-1,0.5c0,0,0,0.1-0.1,0.1
		c-0.1,0.1-0.2,0.3-0.3,0.4c-0.1,0.1,0,0.3,0.1,0.5c0.1,0.2,0.3,0.4,0.6,0.4c0.5,0.1,1.1,0,1.5-0.3C21.4,59,21.8,58.5,21.6,58.1z"/>
	<path class="st0" d="M20.3,56.6c-0.8,0.1-1.3,0.4-1.7,0.9c-0.2,0.2-0.4,0.5-0.5,0.8c-0.2,0.4-0.1,0.9,0.1,1.3
		c0.3,0.5,0.7,0.8,1.3,0.9c0.2,0,0.4,0.1,0.6,0.1c0.6,0,1.3-0.2,1.7-0.5c0.8-0.6,1.3-1.6,0.7-2.6C22,56.8,21.2,56.5,20.3,56.6z
		 M21.1,59.3c-0.4,0.3-1,0.4-1.5,0.3c-0.2-0.1-0.5-0.2-0.6-0.4C19,59,19,58.8,19,58.7c0.1-0.1,0.2-0.3,0.3-0.4c0,0,0-0.1,0.1-0.1
		c0.2-0.3,0.5-0.5,1-0.5c0.1,0,0.1,0,0.2,0c0.2,0,0.7,0,1,0.5C21.8,58.5,21.4,59,21.1,59.3z"/>
	<path class="st0" d="M20.5,51.8c-0.8,0.5-1.3,1.7-0.7,2.7c0.1,0.1,0.1,0.2,0.2,0.2l0,0c0,0,0.1,0.1,0.1,0.2c0,0,0,0,0.1,0.1
		c0.1,0.1,0.2,0.1,0.3,0.2c0.6,0.4,1.3,0.5,1.8,0.5c0.1,0,0.1,0,0.2,0c0.1,0,0.2,0,0.3,0l0.1,0c0.1,0,0.1,0,0.2,0c0,0,0,0,0,0
		c0,0,0,0,0,0c0,0,0,0,0,0c0.4,0,0.8-0.1,1.2-0.3c0.5-0.4,0.9-0.9,1-1.5c0.1-0.5,0-0.9-0.3-1.3C24,51.2,21.8,50.9,20.5,51.8z
		 M23.7,54.3c-0.1,0.1-0.4,0.1-0.6,0.2c0,0,0,0,0,0c0,0,0,0,0,0c0,0,0,0,0,0c0,0-0.1,0-0.1,0c0,0,0,0,0,0c-0.1,0-0.1,0-0.2,0l-0.1,0
		c-0.1,0-0.1,0-0.2,0c-0.3,0-0.9,0-1.4-0.3c-0.1,0-0.1-0.1-0.1-0.1c0,0,0,0,0,0c0,0,0,0,0,0l0-0.1c0,0,0,0,0,0c0,0,0,0-0.1-0.1
		c0,0,0,0,0-0.1c-0.3-0.4,0-1,0.4-1.3c0.9-0.6,2.4-0.4,3,0.4c0.1,0.2,0.2,0.3,0.1,0.5C24.1,53.8,23.9,54.1,23.7,54.3z"/>
	<path class="st0" d="M26.2,43.7c-1,0-1.9,0.1-2.6,0.4c-1,0.4-1.9,1.2-2.2,2.1c-0.3,0.7-0.2,1.4,0.2,2.1c0.4,0.7,1.1,1.2,2.1,1.5
		c0.9,0.4,2.1,0.7,3.4,0.7h0c0.8,0,2-0.1,3-0.7c1-0.6,1.5-1.4,1.5-2.5C31.6,44.6,28.7,43.7,26.2,43.7z M29.6,48.9
		c-0.6,0.3-1.5,0.5-2.5,0.5c-1.1,0-2.2-0.2-2.9-0.6c0,0-0.1,0-0.1,0c-0.8-0.2-1.3-0.6-1.6-1.1c-0.2-0.4-0.3-0.8-0.1-1.2
		c0.2-0.6,0.8-1.2,1.6-1.5c0.6-0.2,1.4-0.3,2.2-0.3c2,0,4.3,0.7,4.3,2.6C30.5,48,30.2,48.6,29.6,48.9z"/>
	<path class="st0" d="M64.4,10.4C59.3,6.3,52.2,4,44.9,4c-0.4,0-0.8,0-1.2,0C34.4,4.4,27.5,6.6,23,10.5c-2.6,2.3-5.9,6.4-6.9,9.9
		c-1.7,6.2-0.4,12,3.7,15.9c5.6,5.4,14.2,8.5,23.4,8.5c0,0,0,0,0,0c4.1,0,8.1-0.6,11.7-1.8c4.4-1.5,7.8-3.1,10.8-5c0,0,0,0,0,0
		c0,0,0,0,0,0c0,0,0,0,0,0l0.1,0c0.1,0,0.1-0.1,0.2-0.1c0.1,0,0.1-0.1,0.1-0.1c3.5-2.5,5.8-6.7,6-11.1
		C72.5,20.7,69.4,14.3,64.4,10.4z M71.2,26.6c-0.2,4.2-2.5,8.2-6,10.6l0,0c0,0,0,0,0,0c0,0,0,0,0,0c0,0,0,0,0,0
		C62.3,39,59,40.6,54.6,42c-3.5,1.2-7.4,1.8-11.4,1.8c0,0,0,0,0,0c-8.9,0-17.2-3-22.7-8.2c-3.8-3.6-5-9.1-3.4-14.9
		c0.9-3.3,4-7.2,6.5-9.4c4.3-3.8,11-5.9,20-6.2c0.4,0,0.8,0,1.2,0c7.1,0,14,2.2,18.9,6.2C68.5,15,71.5,21,71.2,26.6z"/>
	<g>
		<path class="st4" d="M58.3,18.7c-2,0.8-3.8,2-5.2,3.4c0,0,0,0,0,0c0.9,0.7,1.4,1.8,1.4,3c0,1.1-0.4,2.1-1.1,2.8
			c1.5,1.2,3.2,2.1,5.1,2.7l0-1.3C58.3,25.9,58.2,22.3,58.3,18.7z"/>
		<path class="st4" d="M52.2,27.6c0.1-0.1,0.1-0.1,0.2-0.2c0.7-0.6,1-1.4,1-2.3c0-0.9-0.4-1.7-1-2.2c-0.2-0.1-0.3-0.2-0.5-0.4
			c-3.1-2.4-7.3-3.6-11.6-3.3c-2,0.1-4,0.5-5.8,1.3c1,1.6,1.5,3.6,1.6,5.7c0,1.9-0.3,3.7-1.1,5.2c1.7,0.5,3.6,0.7,5.5,0.7
			C44.9,32,49.1,30.4,52.2,27.6z"/>
		<path class="st5" d="M34.1,31.1c0.7-1.4,1.1-3.1,1-4.9c0-1.9-0.6-3.8-1.5-5.3c-2.7,1.2-4.9,3.1-6.4,5.4
			C28.9,28.4,31.3,30.1,34.1,31.1z M31,24.9c0.1-0.1,0.3,0,0.3,0.1c0.2,0.4,0.5,0.4,0.7,0.4c0.3,0,0.7-0.2,0.9-0.5
			c0.1-0.1,0.2-0.2,0.3-0.1c0.1,0.1,0.2,0.2,0.1,0.3c-0.3,0.5-0.7,0.8-1.3,0.8c0,0,0,0,0,0c-0.5,0-0.9-0.3-1.1-0.7
			C30.9,25.1,30.9,25,31,24.9z"/>
		<path class="st0" d="M59.4,18c0-0.2-0.1-0.3-0.2-0.4c-0.1-0.1-0.3-0.1-0.5-0.1c-2.4,0.9-4.7,2.2-6.5,4c-3.3-2.4-7.5-3.5-11.9-3.3
			c-2.4,0.1-4.6,0.7-6.7,1.6c0,0,0,0,0,0c-3.2,1.4-5.8,3.6-7.4,6.2c-0.1,0.2-0.1,0.4,0,0.6c1.8,2.6,4.7,4.6,8,5.6c0,0,0,0,0,0h0
			c1.9,0.6,3.8,0.9,5.9,0.9c0.2,0,0.4,0,0.5,0c4.5-0.1,8.7-1.7,12-4.5c1.8,1.5,4,2.6,6.3,3.2c0,0,0.1,0,0.1,0c0.1,0,0.2,0,0.3-0.1
			c0.1-0.1,0.2-0.3,0.2-0.4l-0.1-2C59.3,25.6,59.2,21.8,59.4,18z M35.1,31.4c0.7-1.6,1.1-3.4,1.1-5.2c0-2.1-0.6-4.1-1.6-5.7
			c1.8-0.7,3.8-1.2,5.8-1.3c4.3-0.2,8.4,0.9,11.6,3.3c0.2,0.1,0.3,0.3,0.5,0.4c0.6,0.5,1,1.3,1,2.2c0,0.9-0.4,1.7-1,2.3
			c-0.1,0.1-0.1,0.1-0.2,0.2c-3.1,2.8-7.3,4.3-11.7,4.5C38.6,32.2,36.8,31.9,35.1,31.4z M33.6,20.9c0.9,1.5,1.4,3.4,1.5,5.3
			c0,1.8-0.3,3.4-1,4.9c-2.8-1-5.2-2.7-6.8-4.8C28.7,24.1,30.9,22.2,33.6,20.9z M53.3,28c0.7-0.8,1.1-1.8,1.1-2.8
			c0-1.2-0.5-2.3-1.4-3c0,0,0,0,0,0c1.5-1.4,3.3-2.6,5.2-3.4c-0.1,3.6,0,7.1,0.1,10.6l0,1.3C56.6,30.1,54.8,29.2,53.3,28z"/>
		<path class="st0" d="M32,25.9C32,25.9,32,25.9,32,25.9c0.5,0,1-0.3,1.3-0.8c0.1-0.1,0-0.3-0.1-0.3c-0.1-0.1-0.3,0-0.3,0.1
			c-0.2,0.3-0.5,0.5-0.9,0.5c-0.2,0-0.5-0.1-0.7-0.4c-0.1-0.1-0.2-0.2-0.3-0.1c-0.1,0.1-0.2,0.2-0.1,0.3
			C31.2,25.6,31.6,25.9,32,25.9z"/>
		<path class="st6" d="M36.1,26c0,0.1,0,0.1,0,0.2c0,1.9-0.3,3.7-1.1,5.2c1.7,0.5,3.6,0.7,5.5,0.7c4.4-0.1,8.5-1.7,11.7-4.5
			c0.1-0.1,0.1-0.1,0.2-0.2c0.7-0.6,1-1.4,1-2.3c0-0.2,0-0.5-0.1-0.7C48.2,27.7,41.1,28.7,36.1,26z"/>
		<path class="st3" d="M47.5,30.3c-1.8,0.4-3.6,0.7-5.4,0.7c-2.3,0-4.4-0.4-6.3-1.3c-0.2,0.6-0.4,1.2-0.7,1.8
			c1.7,0.5,3.6,0.7,5.5,0.7c3.1-0.1,6-0.9,8.6-2.3C48.5,30,48,30.1,47.5,30.3z"/>
		<path class="st7" d="M33.3,28c-0.5,0-1-0.1-1.4-0.2c-0.2,0-0.4,0-0.6,0c-1.4-0.2-2.8-0.8-3.7-1.8c-0.1,0.1-0.2,0.3-0.3,0.4
			c1.6,2.1,4,3.8,6.8,4.8c0.5-1,0.8-2.1,0.9-3.3C34.5,28,33.9,28,33.3,28z"/>
		<path class="st6" d="M58.4,27.5c-0.1,0-0.1-0.1-0.1-0.1c-0.7-0.5-1.3-1.1-1.8-1.6c-1-1-2-2.4-2.9-4c-0.1,0.1-0.3,0.2-0.4,0.4
			c0,0,0,0,0,0c0.9,0.7,1.4,1.8,1.4,3c0,1.1-0.4,2.1-1.1,2.8c1.5,1.2,3.2,2.1,5.1,2.7l0-1.3C58.4,28.7,58.4,28.1,58.4,27.5z"/>
	</g>
	<path class="st1" d="M70,23.2c-3.1,5.6-8.2,10.5-14.1,12.9c-7.4,3.1-15.3,3.5-23.1,1.4c-5.8-1.6-10.8-4.9-15.4-8.7
		c-0.3-0.2-0.5-0.4-0.8-0.7c0.5,2.9,1.8,5.5,3.9,7.5c5.5,5.2,13.7,8.2,22.7,8.2c0,0,0,0,0,0c4,0,7.9-0.6,11.4-1.8
		c4.3-1.4,7.7-3,10.5-4.8c0,0,0,0,0,0c0,0,0,0,0,0c0,0,0,0,0,0l0,0c3.5-2.3,5.8-6.4,6-10.6c0.1-1.4-0.1-2.7-0.4-4.1
		C70.5,22.7,70.3,22.9,70,23.2z"/>
	<path class="st1" d="M27.1,47c-1.5,0.1-3.1-0.3-4.5-1c-0.1,0.2-0.2,0.4-0.3,0.5c-0.2,0.4-0.1,0.8,0.1,1.2c0.3,0.5,0.8,0.8,1.6,1.1
		c0,0,0.1,0,0.1,0c0.8,0.4,1.9,0.6,2.9,0.6c1,0,1.9-0.2,2.5-0.5c0.6-0.4,1-0.9,1-1.6c0-0.3-0.1-0.6-0.2-0.9
		C29.3,46.7,28.4,46.9,27.1,47z"/>
	<path class="st1" d="M23.8,53.4c-0.6,0-1.2-0.1-1.7-0.3c-0.4-0.1-0.7-0.3-1.1-0.4c-0.4,0.3-0.6,0.8-0.3,1.2c0,0,0,0,0,0.1
		c0,0,0,0,0.1,0.1c0,0,0,0,0,0l0,0.1c0,0,0,0,0,0c0,0,0,0,0,0c0,0,0.1,0.1,0.1,0.1c0.5,0.3,1.1,0.3,1.4,0.3c0.1,0,0.1,0,0.2,0l0.1,0
		c0.1,0,0.1,0,0.2,0c0,0,0,0,0,0c0.1,0,0.1,0,0.1,0h0c0,0,0,0,0,0c0,0,0,0,0,0c0.2,0,0.5-0.1,0.6-0.2c0.3-0.2,0.5-0.5,0.5-0.8
		c0,0,0-0.1,0-0.1C24.1,53.4,23.9,53.4,23.8,53.4z"/>
</g>
</svg>
