<?xml version="1.0" encoding="utf-8"?>
<!-- Generator: Adobe Illustrator 22.1.0, SVG Export Plug-In . SVG Version: 6.00 Build 0)  -->
<svg version="1.1" id="Layer_1" xmlns="http://www.w3.org/2000/svg" xmlns:xlink="http://www.w3.org/1999/xlink" x="0px" y="0px"
	 viewBox="0 0 300 300" style="enable-background:new 0 0 300 300;" xml:space="preserve">
<style type="text/css">
	.st0{fill:#FFFFFF;}
	.st1{fill:#999999;}
	.st2{fill:#E3E3E3;}
	.st3{fill:#9CDCED;}
</style>
<rect class="st0" width="300" height="300"/>
<g>
	<g>
		<g>
			<path class="st0" d="M283.7,285.7c1.5,4.7,2.9,9.5,4.1,14.3H74.8c-0.2-0.4-0.3-0.8-0.5-1.2c-0.8-2.2-1.6-4.4-2.4-6.7
				c-1.3-4-2.5-8.1-3.5-12.2c-0.2-0.6-0.3-1.2-0.4-1.8c-0.1-0.6-0.3-1.2-0.4-1.8c-0.3-1.2-0.5-2.4-0.8-3.7c-0.2-1.2-0.5-2.5-0.7-3.7
				c-0.5-2.5-0.9-5-1.3-7.5c-0.2-1.3-0.4-2.5-0.6-3.8c-0.4-2.5-0.7-5.1-1-7.7c-0.1-1.3-0.3-2.5-0.4-3.8c0-0.1,0-0.2,0-0.3
				c-0.1-1.3-0.3-2.7-0.4-4c-1.2-14-1.5-28.4-1.3-42.2c0-4.4,0.2-8.7,0.3-12.9c0.2-2.1,0.3-4,0.4-6c0.4-8.5,1.1-16.6,1.8-24.3
				c0.4-4.3,0.8-8.5,1.3-12.4c0-0.3,0.1-0.7,0.1-1c0.5-4.1,0.9-8,1.4-11.6c0.1-1,0.3-2,0.4-2.9c0.4-3.1,0.8-5.9,1.2-8.5
				c0-0.1,0-0.2,0-0.3c0.1-0.9,0.3-1.8,0.4-2.6c0.1-0.6,0.2-1.2,0.3-1.7c0.1-0.4,0.1-0.9,0.2-1.3c0-0.1,0.1-0.3,0.1-0.4
				c1.2-7.6,2.1-12,2.1-12s-3-9.3-5.5-19.3c-0.1-0.5-0.3-1.1-0.4-1.6c-0.2-1-0.4-1.9-0.7-2.9c-0.7-3.3-1.3-6.5-1.7-9.3
				c0-0.4-0.1-0.7-0.1-1.1c-0.3-3-0.3-5.5,0.2-7.1c0.4-1.2,1.1-1.9,2.2-1.7c4.6,0.6,14.2,5.2,21.9,9.3c0,0,0,0,0,0
				c0.7,0.4,1.3,0.7,1.9,1c0,0,0,0,0,0c1.9,1,3.6,1.9,5,2.7c0.5,0.3,1,0.5,1.4,0.8c0.2,0.1,0.5,0.3,0.7,0.4c0.2,0.1,0.3,0.2,0.4,0.2
				c0.3,0.2,0.6,0.3,0.9,0.5c0.6,0.4,1,0.6,1.1,0.6c0,0,32-5,69.1-3.1c1.2,0.1,2.4,0.1,3.6,0.2c1.2,0.1,2.4,0.2,3.6,0.2
				c0.8,0.1,1.7,0.1,2.5,0.2c0.7,0.1,1.3,0.1,2,0.2c1.5,0.1,3,0.3,4.5,0.5c1.2,0.1,2.5,0.3,3.7,0.4c0.6,0.1,1.2,0.2,1.8,0.2
				c0,0,22.5-18.6,32.1-20.4c0.7-0.1,1.4-0.2,2-0.1c0.2,0,0.4,0.1,0.6,0.1c0.3,0.1,0.6,0.3,0.8,0.5c0.1,0.1,0.2,0.2,0.2,0.2
				c4.8,5.6-5.8,36.3-5.8,36.3s1.1,5.9,2.5,15.1c0.1,1,0.3,2.1,0.5,3.2c0.1,0.7,0.2,1.4,0.3,2.2c0,0,0,0,0,0
				c0.1,0.8,0.2,1.5,0.3,2.3c0.2,1.7,0.4,3.5,0.7,5.3c0.2,1.8,0.4,3.6,0.6,5.5c0,0.2,0,0.4,0.1,0.5c0.1,0.8,0.2,1.5,0.2,2.3
				c0.1,1.5,0.3,3,0.4,4.5c0.1,0.8,0.1,1.6,0.2,2.4c0.1,0.8,0.1,1.5,0.2,2.3c0.1,0.8,0.1,1.5,0.2,2.3c0.1,0.9,0.1,1.9,0.2,2.8
				c0,0.2,0,0.3,0,0.5c0,0.3,0,0.6,0,0.9c0,0.3,0,0.5,0.1,0.8c0,0.2,0,0.4,0,0.6c0,0.8,0.1,1.5,0.1,2.2c0.1,1.6,0.2,3.2,0.2,4.9
				c0,0.9,0.1,1.8,0.1,2.7v0.1c0.1,5.3,0.1,10.4-0.2,15.3c-0.1,2-0.2,3.8-0.4,5.7c0,0.4-0.1,0.9-0.2,1.3c0,0,0,0,0,0
				c0,0.4-0.1,0.8-0.1,1.2c0,0,0,0,0,0c-0.1,0.4-0.1,0.8-0.2,1.2v0c0,0.4-0.1,0.8-0.2,1.2c-0.6,3.5-1.3,6.8-2.2,9.7
				c0,0,0.1,0.1,0.4,0.4c1.8,1.8,10.1,10.1,20.5,23.4c0.2,0.3,0.5,0.6,0.7,0.9s0.5,0.6,0.7,1c1,1.3,2,2.6,3,4c1,1.3,2,2.7,3,4.1
				c0.3,0.4,0.5,0.8,0.8,1.2c0.5,0.7,1,1.5,1.5,2.2c0.8,1.1,1.5,2.3,2.3,3.4c0.8,1.2,1.7,2.5,2.5,3.8c0.7,1.1,1.4,2.3,2.2,3.5
				c0,0,0,0,0,0c0.2,0.4,0.5,0.8,0.8,1.2c0.5,0.8,1,1.7,1.5,2.6c0.5,0.9,1,1.7,1.5,2.6c0.8,1.3,1.5,2.7,2.3,4c0.5,0.9,1,1.8,1.5,2.7
				c0.5,0.9,1,1.9,1.5,2.8c0.2,0.5,0.5,0.9,0.7,1.4c0.8,1.6,1.6,3.2,2.4,4.8c0.3,0.6,0.6,1.2,0.9,1.8c0.2,0.5,0.4,0.9,0.6,1.4
				c0.3,0.5,0.5,1.1,0.8,1.7c1.5,3.2,2.8,6.4,4.2,9.7c0.4,1,0.8,2,1.2,3.1c0.6,1.6,1.2,3.2,1.8,4.8c0.4,1.1,0.8,2.1,1.1,3.2
				C283.4,284.9,283.5,285.3,283.7,285.7z"/>
		</g>
	</g>
	<g>
		<g>
			<path d="M150.6,118.1c-0.2,2.2-6.9,3.2-6.9,3.2s-6.3-2.5-6.1-4.6c0.2-2.2,3.3-3.6,6.9-3.2C148.1,113.9,150.8,116,150.6,118.1z"/>
		</g>
	</g>
	<g>
		<g>
			<path d="M152.8,138.1c-0.2,0-0.4,0-0.7,0c-2.4-0.1-4.6-1-6.5-2.4c-2.1,1.2-4.3,1.8-6.7,1.7c-5.2-0.3-9.7-4.2-11.2-9.6l2.8-0.8
				c1.1,4.2,4.6,7.2,8.6,7.4c2.1,0.1,4-0.5,5.8-1.7l1-0.7l0.9,0.8c1.6,1.5,3.5,2.3,5.5,2.4c3.8,0.1,7.7-2.3,9.4-6.4l2.7,1.1
				C162.4,134.9,157.8,138.1,152.8,138.1z"/>
		</g>
	</g>
	<g>
		<g>
			<g>
				<path class="st1" d="M137.7,70.8c-22.8,0.8-39,3.3-39,3.3S73.5,59.8,65.2,58.6c-8.4-1.2,6,43,6,43s-4.6,22.9-7.6,54.8
					C101.5,143.5,130.2,110.9,137.7,70.8z"/>
			</g>
		</g>
		<g>
			<g>
				<path class="st1" d="M224,52.6c-7.2-2.4-34.6,20.3-34.6,20.3c-9.7-1.3-19.4-1.9-28.7-2.2c6.9,37.1,31.9,67.8,65.6,82.4
					c-0.8-30.2-7-63.5-7-63.5S231.2,55,224,52.6z"/>
			</g>
		</g>
	</g>
	<g>
		<g>
			<g>
				<path d="M110.8,112.9c-0.7-3.1-2.9-5.2-5.5-5.3c-2.6,0-4.9,1.9-5.9,4.9l-2.8-0.9c1.3-4.3,4.9-7.1,8.8-7c3.9,0.1,7.3,3.2,8.2,7.6
					L110.8,112.9z"/>
			</g>
		</g>
	</g>
	<g>
		<g>
			<g>
				<path d="M200.4,112.9c-0.7-3.1-2.9-5.2-5.5-5.3c-2.5,0.1-4.9,1.9-5.9,4.9l-2.8-0.9c1.3-4.3,4.8-7.2,8.8-7
					c3.9,0.1,7.3,3.2,8.2,7.6L200.4,112.9z"/>
			</g>
		</g>
	</g>
	<g>
		<g>
			<path d="M197.8,75.3c0,0,21.5-22.1,23.9-18.5c2.4,3.6-7.2,27.5-7.2,27.5L197.8,75.3z"/>
		</g>
	</g>
	<g>
		<g>
			<path d="M89.4,79.5c0,0-21.5-22.1-23.9-18.5c-2.4,3.6,7.2,27.5,7.2,27.5L89.4,79.5z"/>
		</g>
	</g>
	<g>
		<g>
			<g>
				<path class="st1" d="M225.2,247.3c0,23.1,18.7,41.8,41.8,41.8c5.9,0,11.5-1.2,16.6-3.5c-9.9-30.3-26.5-55.8-39.9-73.1
					C232.6,220.1,225.2,232.9,225.2,247.3z"/>
			</g>
		</g>
		<g>
			<g>
				<path class="st1" d="M98.6,283.1c0,6-1.3,11.7-3.5,16.9H74.8c0.7,1.8,1.4,3.5,2.2,5.2c-0.8-1.7-1.5-3.4-2.2-5.2
					c-0.2-0.4-0.3-0.8-0.5-1.2c-0.8-2.2-1.6-4.4-2.4-6.7c-1.3-4-2.5-8.1-3.5-12.2c-0.2-0.6-0.3-1.2-0.4-1.8
					c-0.1-0.6-0.3-1.2-0.4-1.8c-0.3-1.2-0.5-2.4-0.8-3.7c-0.2-1.2-0.5-2.5-0.7-3.7c-0.5-2.5-0.9-5-1.3-7.5c-0.2-1.3-0.4-2.5-0.6-3.8
					c-0.4-2.5-0.7-5.1-1-7.7c-0.1-1.3-0.3-2.5-0.4-3.8c0-0.1,0-0.2,0-0.3c-0.1-1.3-0.3-2.7-0.4-4h0c0.5,0.1,1,0.1,1.5,0.2
					C83.6,245.4,98.6,262.5,98.6,283.1z"/>
			</g>
		</g>
	</g>
	<g>
		<g>
			<ellipse class="st2" cx="200.5" cy="120.3" rx="8.4" ry="3.2"/>
		</g>
	</g>
	<g>
		<g>
			<path class="st2" d="M103.4,120.3c0,1.8-3.7,3.2-8.4,3.2c-4.6,0-8.4-1.4-8.4-3.2c0-1.8,3.7-3.2,8.4-3.2
				C99.7,117.1,103.4,118.5,103.4,120.3z"/>
		</g>
	</g>
	<g>
		<g>
			<g>
				<polygon points="224.3,120.2 223.7,117.3 258.8,110.1 259.4,113 				"/>
			</g>
		</g>
		<g>
			<g>
				<rect x="225.6" y="128.4" width="35" height="2.9"/>
			</g>
		</g>
		<g>
			<g>
				<rect x="240.5" y="129.1" transform="matrix(0.3023 -0.9532 0.9532 0.3023 29.462 332.6195)" width="2.9" height="34.2"/>
			</g>
		</g>
	</g>
	<g>
		<g>
			<g>
				<polygon points="69.3,120.2 34.2,113 34.8,110.1 69.9,117.3 				"/>
			</g>
		</g>
		<g>
			<g>
				<rect x="32.9" y="128.4" width="35" height="2.9"/>
			</g>
		</g>
		<g>
			<g>
				<polygon points="35.7,152.8 34.9,150 64.4,141 65.3,143.9 				"/>
			</g>
		</g>
	</g>
	<g id="XMLID_1_">
		<g>
			<g id="XMLID_2_">
				<g>
					<g>
						<g>
							<path class="st3" d="M225.1,179.1c0.2-1.6,0.4-3.2,0.6-5C225.5,175.9,225.3,177.5,225.1,179.1z"/>
						</g>
					</g>
					<g>
						<g>
							<path class="st3" d="M61.7,180.7L61.7,180.7c0,2-0.1,3.9-0.3,6C61.5,184.6,61.6,182.6,61.7,180.7z"/>
						</g>
					</g>
				</g>
				<g>
					<g>
						<g>
							<path d="M226.6,179.3l-2.9-0.4c0.2-1.6,0.4-3.2,0.6-5l2.9,0.3C226.9,176.1,226.8,177.7,226.6,179.3z"/>
						</g>
					</g>
				</g>
			</g>
		</g>
	</g>
	<g id="XMLID_3_">
		<g>
			<g>
				<g>
					<path d="M223.8,177.8c0.2-1.2,0.3-2.5,0.4-3.8L223.8,177.8z M224.5,188.4c0.8-2.4,1.4-5.2,2-9.1v0l0.1-1.2l0.4-3.8v0
						c0.2-1.9,0.3-3.8,0.4-5.8c0.4-8,0.2-16.8-0.3-25.5c-0.1-1.1-0.1-2.1-0.2-3.2c-0.2-2.9-0.4-5.8-0.7-8.6c-0.1-1-0.2-2-0.3-2.9
						c-0.3-2.9-0.6-5.7-0.9-8.4c-0.1-1-0.2-2-0.4-2.9c-1.7-14.2-3.7-25.1-4.1-27.3c1.5-4.3,9.7-29.1,6.1-36.3
						c-0.5-1.1-1.3-1.9-2.4-2.2c-7.3-2.4-29.8,15.6-35.5,20.2c-42.3-5.4-84.9,0.4-90.1,1.2c-3.5-2-25.5-14.3-33.5-15.5
						c-1.2-0.2-2.2,0.2-3,1.1c-4.6,5.5,4.9,36.4,7.2,43.5c-0.3,1.4-1.3,6.8-2.5,15c-0.1,0.9-0.3,1.9-0.4,2.9
						c-0.4,2.7-0.8,5.6-1.2,8.8c-0.1,1-0.3,1.9-0.4,2.9c-0.4,3.1-0.8,6.4-1.2,9.9c-0.1,1-0.2,2.1-0.4,3.2c-1.2,10.9-2.3,23.3-3,36.5
						c-0.1,1.8-0.2,3.7-0.4,5.7l-0.1,4.2c-0.1,2.9-0.2,5.8-0.2,8.8c-0.8,41.7,3.7,75.4,13.5,100.5h1.6c0.7,1.8,1.4,3.5,2.2,5.2
						c-0.8-1.7-1.5-3.4-2.2-5.2h1.6c-6.3-15.8-10.5-35.3-12.5-58c-1.2-13.1-1.6-27.3-1.3-42.4c0-2.9,0.1-5.8,0.2-8.7l0.1-4.1
						c0.2-2,0.3-3.9,0.4-6c0.5-8.7,1.1-17.1,1.9-24.9c0.9-9,1.8-17.3,2.8-24.5c0-0.1,0-0.1,0-0.2c2.3-17.7,4.6-29,4.6-29.2l0.1-0.4
						l-0.1-0.3C66.7,83.2,62.2,63,65,60c8,1.1,32.7,15.2,32.9,15.4l0.5,0.3l0.5-0.1c0.3,0,16.3-2.5,38.6-3.3
						c7.3-0.3,15.3-0.3,23.6-0.1c9.2,0.3,18.7,0.9,28.3,2.2l0.6,0.1l0.5-0.4c10.4-8.6,28.6-21.7,33.2-20.1c0.1,0,0.4,0.1,0.7,0.7
						c2.6,5.4-3.7,26.7-6.4,34.5l-0.1,0.4l0.1,0.4c0.1,0.4,6.1,33,7,62.6c0.2,5.5,0.1,10.8-0.1,15.9c-0.1,1.9-0.2,3.8-0.4,5.6
						l-0.4,3.8l-0.1,1.1c0,0,0,0,0,0.1c-0.7,4.1-1.4,7-2.2,9.4l-0.3,0.9l1,1c2.3,2.2,10.4,10.5,20.3,23.2
						c13.4,17.2,30,42.6,39.8,72.8c1.5,4.5,2.8,9.1,3.9,13.8h3C275.1,240.2,231.4,195.1,224.5,188.4z"/>
				</g>
			</g>
		</g>
	</g>
</g>
</svg>
