<?xml version="1.0" encoding="utf-8"?>
<!-- Generator: Adobe Illustrator 22.1.0, SVG Export Plug-In . SVG Version: 6.00 Build 0)  -->
<svg version="1.1" id="Layer_1" xmlns="http://www.w3.org/2000/svg" xmlns:xlink="http://www.w3.org/1999/xlink" x="0px" y="0px"
	 viewBox="0 0 300 300" style="enable-background:new 0 0 300 300;" xml:space="preserve">
<style type="text/css">
	.st0{fill:#FFFFFF;}
	.st1{fill:#F3CD9E;}
	.st2{fill:#F9E4CB;}
</style>
<rect class="st0" width="300" height="300"/>
<g>
	<g>
		<g>
			<g>
				<path class="st1" d="M273.7,300h-18.3c0.3-0.9,0.7-1.8,1-2.7c0.6-1.6,1.2-3.4,1.9-5.2c0.6-1.7,1.2-3.5,1.8-5.3
					c6.5-19.8,13.2-47.8,10-72.8c-5.7-44.5-12.3-76.7,9.5-77.7C297.4,135.4,308.8,228.3,273.7,300z"/>
			</g>
		</g>
		<g>
			<g>
				<path class="st2" d="M282.2,204.4c1.1,7.9,5.9,15.2,12.8,19.1c2-18.2,1.9-35.1,0.4-49.2C286.3,181.1,280.7,193.4,282.2,204.4z"
					/>
			</g>
		</g>
		<g>
			<path d="M290.3,145.3c-3.8-8.9-8.1-10.6-10.8-10.5c-4.8,0.2-8.6,1.9-11.2,5.1c-8.1,9.7-5.2,31.5-1.2,61.6
				c0.5,4.1,1.1,8.2,1.6,12.5c2.9,22.7-2.5,48.1-8.4,67.3c-0.5,1.8-1.1,3.5-1.6,5.1c-0.6,1.7-1.1,3.4-1.7,5c-1.1,3.2-2.2,6-3.1,8.5
				h2.9c0.3-0.8,0.6-1.5,0.9-2.4c0.7-1.8,1.3-3.7,2-5.7c6.9-20,15.2-51,11.7-78.3c-0.5-4.3-1.1-8.5-1.6-12.5
				c-3.8-28.4-6.8-50.8,0.6-59.5c2.2-2.6,5.2-3.9,9.3-4.1c2.8-0.2,5.7,3,8.2,8.8c2.8,6.6,5.1,16.6,6.3,28.9v0
				c1.3,13.6,1.4,29.9-0.4,47.4c-2.6,25.1-9.2,52.5-21.5,77.3h2.9C303.5,241.6,300.9,169.8,290.3,145.3z"/>
		</g>
	</g>
	<g>
		<path class="st1" d="M258.8,286.5c-0.1,1.9-0.3,3.7-0.4,5.6c-0.2,1.9-0.4,3.7-0.6,5.6c-0.1,0.8-0.2,1.6-0.3,2.4H53.4
			c-4-12.9-6.8-26.2-8.9-39.2c-0.3-1.9-0.6-3.7-0.9-5.5c0-0.1,0-0.2,0-0.3c-0.1-0.8-0.2-1.7-0.4-2.5c-0.5-3.3-0.9-6.6-1.3-9.9
			c0,0-0.1-0.5-0.1-1.4c0-0.2,0-0.3,0-0.5c0-0.1,0-0.2,0-0.3c-1-11.8-4.3-68.1,22.4-115.9c0.5-0.8,0.9-1.6,1.4-2.5
			c0.4-0.7,0.8-1.3,1.2-2l5.2-16.5l20.6-43.3l13.4,31.9c0,0,5.6-0.4,13.6-0.7c0.6,0,1.2,0,1.9-0.1c0.9,0,1.8,0,2.7-0.1h0.1
			c4.5-0.1,9.4-0.1,14.3,0c3.8,0.1,7.7,0.2,11.4,0.5c0.7,0,1.5,0.1,2.2,0.2c1.7,0.1,3.3,0.3,4.8,0.5c0.4,0,0.8,0.1,1.2,0.1
			c1.8,0.2,3.6,0.5,5.2,0.9c0.2,0,0.5,0.1,0.7,0.2c0.9,0.2,1.7,0.4,2.5,0.6l4.8-5.3l21-23.5c0,0,5.2,9.3,10.3,34
			c0,0,4.1,12.2,9.7,24.6c0.4,0.8,0.8,1.7,1.2,2.5c1.3,2.8,2.7,5.6,4.1,8.2c0.5,0.9,1,1.8,1.5,2.7c1.4,2.4,2.8,4.5,4.2,6.3
			c16.4,21.3,24.8,54,30.1,81.2c0.6,3.1,1.2,6.2,1.8,9.1c0.2,1,0.4,2.1,0.5,3.1C258.4,253.1,259.8,270,258.8,286.5z"/>
	</g>
	<g>
		<path d="M93.9,229.7c-2.6,0-5.1-0.8-7.3-2.3c-13.3-9.1-15.5-42.5-15.5-43.9l2.7-0.2c0,0.3,2.1,33.5,14.4,41.9c2.9,2,6,2.4,9.6,1.2
			c3.5-1.1,5.9-3.3,7.1-6.5c5.4-14.3-11.8-43.7-12-44l2.3-1.4c0.7,1.3,18.1,30.9,12.2,46.4c-1.5,4-4.5,6.8-8.8,8.1
			C97,229.4,95.4,229.7,93.9,229.7z"/>
	</g>
	<g>
		<polygon points="174.8,95.3 189.7,77.3 193.8,101 		"/>
	</g>
	<g>
		<polygon points="101.6,94.8 90.6,74.2 81.8,96.6 		"/>
	</g>
	<g>
		<path d="M137.7,123.6l-3.1,5.4c-1.4,2.4,0.3,5.3,3.1,5.3h6.2c2.7,0,4.4-2.9,3.1-5.3l-3.1-5.4C142.5,121.2,139.1,121.2,137.7,123.6
			l-3.1,5.4c-1.4,2.4,0.3,5.3,3.1,5.3h6.2c2.7,0,4.4-2.9,3.1-5.3l-3.1-5.4C142.5,121.2,139.1,121.2,137.7,123.6z"/>
	</g>
	<g>
		<path d="M149.8,150.5c-3.1,0-6-1.2-8.2-3.4c-2.2,2.2-5.1,3.4-8.2,3.4c-6.4,0-11.7-5.2-11.7-11.7h2.7c0,5,4,9,9,9
			c2.8,0,5.4-1.3,7.1-3.6l1.1-1.4l1.1,1.4c1.7,2.3,4.3,3.6,7.1,3.6c5,0,9-4,9-9l2.7-0.2C161.5,145.3,156.3,150.5,149.8,150.5z"/>
	</g>
	<g>
		<path class="st2" d="M183.5,105.9c-7.4-2.5-17-2.1-21.5,4.3c-3.7,5.2-2.5,12.9,1.5,17.9c4,5,10.1,7.9,16.3,9.8
			c5.9,1.8,12.3,2.7,18.2,1c9-2.7,15.7-13.5,9.2-22C202.9,111.4,189.7,107.9,183.5,105.9z"/>
	</g>
	<g>
		<path class="st2" d="M245.6,300h-15.8c-1.1-1.4-2-3-2.5-4.8c-1-3.6-0.8-7.5-0.5-11.3c0.2-3.3,0.5-6.7,2.4-9.5
			c1.5-2.2,3.9-3.7,6.2-5.1c3.1-1.9,6.3-3.8,9.9-4.5C266.4,260.8,255.1,292.1,245.6,300z"/>
	</g>
	<g>
		<path class="st2" d="M172.1,300h-28.3c-13.2-4.6-24-15.5-27.8-30.1c-8.2-31.6-12.7-70.7,10.4-82.9c25.1-13.2,44.5-6.1,59.2,22.2
			c2.3,4.4,4.5,9.3,6.5,14.8c2.8,7.3,5.3,15.5,7.7,24.6C205.7,270.3,193.3,292.7,172.1,300z"/>
	</g>
	<g>
		<g>
			<path class="st2" d="M93.3,300H53.5c-4.6-14.8-7.6-30-9.8-44.7c0-0.1,0-0.2,0-0.3c-0.1-0.8-0.2-1.7-0.4-2.5
				c-0.5-3.3-0.9-6.6-1.3-9.9c0,0-0.1-0.5-0.1-1.4c-0.3-3.6-1.1-13.7-0.6-27.5c0.5,0,0.9,0,1.4,0c17.3,0.2,37.5,8.5,41.7,20.8
				c2.4,7-0.7,14.9,1.6,21.9c1.1,3.3,3.2,6.2,5,9.2C96.8,275.9,97.8,289,93.3,300z"/>
		</g>
		<g>
			<path class="st2" d="M138.7,107.3c4.6-0.3,8.9-2.8,13.5-2.3c5.2,0.5,10.5,4.7,15.2,2.4c3.2-1.5,4.5-5.5,4.8-9.1
				c0.3-3.2,0-6.3-0.8-9.4l-4.8,5.4c-11.8-3.3-33.1-3.2-47.1-2.7c0.5,1.5,1,3,1.8,4.6C124.5,102.7,131.4,107.8,138.7,107.3z"/>
		</g>
		<g>
			<path class="st2" d="M208.2,218c-5.1,10.9-4.7,25.1,3.8,33.6c6.8,6.8,17.6,8.6,26.8,6.1c6.9-1.9,13-5.9,18.2-10.9
				c-0.6-4.3-1.2-8.5-2-12.7c-2.9-15.8-6.8-34.4-12.8-51.9c-3.9,3.7-7.5,7.4-10.1,9.4C222.7,198.9,213.3,207.1,208.2,218z"/>
		</g>
	</g>
	<g>
		<path d="M256.4,233.8c-5.9-31.9-14.3-67.7-32.1-90.9c-1.2-1.6-2.5-3.5-3.7-5.5c-0.5-0.9-1-1.8-1.5-2.7c-1.5-2.7-2.9-5.5-4.3-8.4
			c-0.4-0.8-0.8-1.7-1.2-2.5c-5.5-12.3-9.6-24.5-9.7-24.6c-5.1-24.6-10.2-34-10.4-34.4l-0.9-1.7l-26.5,29.6c-17.5-4.5-53-2.4-59.5-2
			L92.5,57l-22,46.1l-5,16.2c-0.5,0.8-0.9,1.6-1.4,2.4c-0.4,0.7-0.8,1.5-1.2,2.2c-29.8,53.6-22.3,118.2-22.3,118.9
			c2.1,17.1,5.3,37.3,11.4,57.2h2.8c-6.2-20-9.5-40.4-11.6-57.5c0-0.3-1.3-11.7-0.7-28.7c0.9-23.6,5.7-58.1,22.8-89
			c0.5-0.8,0.9-1.7,1.4-2.5c0.3-0.6,0.7-1.2,1.1-1.8l5.1-16.3l19.3-40.6l12.6,30.1l1-0.1c0.2,0,5.9-0.4,14-0.7
			c13.9-0.5,34.9-0.5,46.3,2.7l0.8,0.2l4.7-5.2L192,67.8c1.6,3.7,5.5,13.6,9.4,32c0.3,0.8,4.2,12.5,9.6,24.5
			c0.4,0.8,0.8,1.7,1.2,2.5c1.2,2.7,2.6,5.4,3.9,7.9c0.5,0.9,1,1.8,1.5,2.7c1.5,2.7,3.1,5.1,4.7,7.1c8.1,10.5,14.3,24.1,19.1,38.5
			c5.7,16.9,9.5,35.1,12.5,51.2c0.8,4.4,1.5,8.9,2.1,13.6c1.8,13.8,2.5,28.8,1.2,43.6c-0.2,1.9-0.4,3.9-0.6,5.8
			c-0.1,0.9-0.2,1.8-0.4,2.7h2.7c0.4-2.7,0.7-5.3,1-8c0.2-1.8,0.3-3.5,0.4-5.3c0.1-1.8,0.2-3.6,0.2-5.3
			C260.9,264.7,259,248.3,256.4,233.8z"/>
	</g>
	<g>
		<g>
			<path d="M98.4,127.9l-2.5-0.9c1.7-4.7,6.6-8,12.3-8c0.1,0,0.1,0,0.2,0c5.6,0,10.5,3.1,12.3,7.7l-2.5,1c-1.4-3.6-5.3-6-9.8-6
				c-0.1,0-0.1,0-0.2,0C103.6,121.8,99.7,124.3,98.4,127.9z"/>
		</g>
	</g>
	<g>
		<g>
			<path d="M169.5,127.9l-2.5-0.9c1.7-4.7,6.6-8,12.3-8c0.1,0,0.1,0,0.2,0c5.6,0,10.5,3.1,12.3,7.7l-2.5,1c-1.4-3.6-5.3-6-9.8-6
				c-0.1,0-0.1,0-0.2,0C174.7,121.8,170.8,124.3,169.5,127.9z"/>
		</g>
	</g>
	<g>
		<g>
			<polygon points="199.7,129.3 199.2,126.7 224.4,121.6 224.9,124.2 			"/>
		</g>
		<g>
			<rect x="200.6" y="134.7" width="25.2" height="2.7"/>
		</g>
		<g>
			<rect x="211.3" y="135.5" transform="matrix(0.3022 -0.9532 0.9532 0.3022 7.5219 305.8408)" width="2.7" height="24.6"/>
		</g>
	</g>
	<g>
		<g>
			<polygon points="88,129.3 62.8,124.2 63.3,121.6 88.5,126.7 			"/>
		</g>
		<g>
			<rect x="61.9" y="134.7" width="25.2" height="2.7"/>
		</g>
		<g>
			<rect x="62.7" y="146.4" transform="matrix(0.9531 -0.3025 0.3025 0.9531 -41.1939 29.6185)" width="24.6" height="2.7"/>
		</g>
	</g>
	<g>
		<ellipse class="st2" cx="101.8" cy="137" rx="8.1" ry="2.1"/>
	</g>
	<g>
		<path d="M195.9,224.9c-2.1,0-4-0.8-5.5-2.5c-9-9.7-3.8-46.9-3.6-48.5l2.7,0.4c-1.5,10.4-3.9,39,2.9,46.3c1.1,1.2,2.3,1.7,3.9,1.6
			c4.5-0.3,8.5-2.7,11.7-6.9c6.7-9.1,8.5-25.1,4.6-42l2.6-0.6c4.1,17.6,2.1,34.5-5.1,44.2c-3.6,4.8-8.3,7.6-13.6,8
			C196.3,224.9,196.1,224.9,195.9,224.9z"/>
	</g>
</g>
</svg>
