<?xml version="1.0" encoding="utf-8"?>
<!-- Generator: Adobe Illustrator 22.1.0, SVG Export Plug-In . SVG Version: 6.00 Build 0)  -->
<svg version="1.1" id="Layer_1" xmlns="http://www.w3.org/2000/svg" xmlns:xlink="http://www.w3.org/1999/xlink" x="0px" y="0px"
	 viewBox="0 0 300 300" style="enable-background:new 0 0 300 300;" xml:space="preserve">
<style type="text/css">
	.st0{fill:#FFFFFF;}
	.st1{fill:#FFC164;}
	.st2{fill:#E17D27;}
	.st3{fill:#DC4400;}
</style>
<rect class="st0" width="300" height="300"/>
<g>
	<g>
		<path class="st1" d="M258.1,300H75.9c4.1-18.4,8.6-36.4,12.7-51.7c1.1-4.2,2.2-8.2,3.2-11.9c0.6-2.2,1.1-4.2,1.7-6.2
			c0.1-0.5,0.3-1,0.4-1.4c0.3-1.2,0.6-2.3,0.9-3.3c0.2-0.6,0.3-1.2,0.5-1.8c0.3-1,0.6-2,0.9-3c0.2-0.7,0.4-1.3,0.5-1.9
			c0.3-1.1,0.6-2.2,0.9-3.2c0.2-0.5,0.3-1,0.4-1.5c0.5-1.7,0.9-3.2,1.3-4.5c0.1-0.4,0.2-0.8,0.3-1.1c0-0.2,0.1-0.3,0.1-0.5
			c0.1-0.3,0.2-0.6,0.2-0.8c0,0,0-0.1,0-0.1c0.1-0.3,0.2-0.6,0.3-0.9c0.3-1.2,0.6-2.1,0.8-2.6c0-0.2,0.1-0.3,0.1-0.4
			c0-0.2,0.1-0.2,0.1-0.3c0,0,0,0,0,0c-1-0.3-2.1-0.6-3.1-0.9c-0.5-0.1-0.9-0.3-1.3-0.5c-0.5-0.2-1.1-0.4-1.6-0.6
			c-0.5-0.2-0.9-0.4-1.4-0.6c-1-0.4-1.9-0.8-2.8-1.3c-0.1,0-0.2-0.1-0.3-0.1c-0.2-0.1-0.3-0.2-0.5-0.2c0,0,0,0,0,0
			c-0.2-0.1-0.4-0.2-0.6-0.3c-0.4-0.2-0.8-0.4-1.1-0.6c-0.3-0.2-0.7-0.4-1-0.6c-0.1,0-0.2-0.1-0.2-0.1
			c-38.3-23.6-19.2-89.6-19.2-89.6l-10-35.7l28.3,4.2c0,0,51.5-32.4,111.4-15.8l30.8-18.3l-1.7,39.1c0,0,41.2,65.9,3.8,112.4
			c-0.2,0.2-0.3,0.4-0.5,0.6l2.5,9.1c0,0,0,0.1,0.1,0.4c0,0,0,0.1,0,0.1c0.1,0.5,0.4,1.4,0.8,2.6c0.1,0.4,0.3,0.9,0.4,1.5
			c0.4,1.4,0.9,3.2,1.5,5.2c0.2,0.6,0.3,1.2,0.5,1.8c0,0,0,0.1,0,0.1c0.2,0.7,0.4,1.4,0.6,2.1c0.1,0.4,0.2,0.8,0.3,1.2
			c0.1,0.3,0.2,0.7,0.3,1c0.1,0.4,0.2,0.8,0.3,1.2c0.2,0.8,0.5,1.6,0.7,2.5c0.7,2.5,1.5,5.2,2.3,8.1c0.2,0.8,0.5,1.7,0.7,2.5
			c0,0.1,0.1,0.3,0.1,0.4c0.2,0.7,0.4,1.5,0.6,2.2c0.2,0.6,0.3,1.2,0.5,1.9c0.5,1.8,1,3.6,1.5,5.4c0,0.1,0.1,0.3,0.1,0.4
			c0.3,1,0.5,1.9,0.8,2.9c0.3,1.1,0.6,2.3,0.9,3.5c0.3,1.2,0.6,2.4,0.9,3.6c0.2,0.6,0.3,1.2,0.5,1.8c0.3,1,0.5,2,0.8,3
			c0.8,3,1.6,6.1,2.4,9.2c0.2,0.8,0.4,1.5,0.6,2.3c0,0.2,0.1,0.4,0.2,0.6c0.5,2,1,3.9,1.5,5.9c0.5,2,1,4,1.5,6
			C255.3,288,256.7,294,258.1,300z"/>
	</g>
	<g>
		<g>
			<g>
				<path class="st1" d="M49.1,300H23.2c-32.1-68,7.5-139.7,7.5-139.7s3.3-10,13.3-5c10,5,3.3,20.8-3.3,42.4
					C35.2,215.2,22.7,263.1,49.1,300z"/>
			</g>
			<g>
				<g>
					<path class="st2" d="M28.5,261.2c2.3-6.6,1.6-13.8,0.3-20.6c-1.3-6.8-3.2-13.6-3.4-20.5c-0.2-7-1.9-20.3-6-32
						c-6.8,21.4-12.7,52.7-5.2,85.4C20.8,273,26.3,267.5,28.5,261.2z"/>
				</g>
			</g>
			<g>
				<path d="M41.9,198c0.8-2.7,1.6-5.2,2.4-7.7c5.8-18.2,10-31.4,0.2-36.3c-3.4-1.7-6.5-2-9.2-0.9c-4.2,1.8-5.8,6.3-5.8,6.4
					c-0.5,0.9-39,72.6-7.6,140.4h3c-4.2-8.9-7.2-17.8-9.2-26.7c-7.1-31.4-1.9-61.5,4.5-82.8v0c5.4-17.9,11.5-29.4,11.8-29.9
					c0,0,1.3-3.7,4.4-5c0.8-0.3,1.5-0.5,2.4-0.5c1.4,0,2.9,0.4,4.6,1.2c7.7,3.9,3.8,16.1-1.6,33.1c-0.8,2.5-1.6,5.1-2.4,7.7
					c-8,26-15.3,69.1,8.1,102.7h3.3C26.7,267,34,223.9,41.9,198z"/>
			</g>
		</g>
		<g>
			<path d="M158.5,104.8c0.5,2.8-7.7,6.6-7.7,6.6s-8.9-0.8-9.4-3.7c-0.5-2.8,2.9-5.8,7.7-6.6C153.8,100.3,158,102,158.5,104.8z"/>
		</g>
		<g>
			<polygon class="st3" points="207.7,63 221.8,53.9 221,73 			"/>
		</g>
		<g>
			<polygon class="st3" points="70.7,94.8 66.7,78.4 84.5,85.5 			"/>
		</g>
		<g>
			<path d="M113,119.2l-2.4-1.2c1.7-3.4,7-6.8,10.2-8.6c-5.2-1.4-10.5,1.5-10.5,1.6l-1.3-2.3c0.3-0.2,8.5-4.7,15.7-0.5l2.1,1.2
				l-2.2,1.1C121.9,111.8,114.6,115.9,113,119.2z"/>
		</g>
		<g>
			<path d="M194.9,105.1c-2.3-2.8-10.3-5.3-13.2-5.9l-2.4-0.6l1.8-1.7c6.1-5.7,15-3.1,15.4-3l-0.8,2.6c-0.1,0-5.9-1.7-10.6,0.9
				c3.6,1.1,9.5,3.2,11.9,6.1L194.9,105.1z"/>
		</g>
		<g>
			<g>
				<path d="M149.7,133.8c-4.1,0-8.2-4-10.5-10.4l2.5-0.9c1.9,5.5,5.5,9,8.6,8.5c1.7-0.3,3.2-1.8,4.2-4.3l0.8-2.1l1.5,1.7
					c1.8,2,3.7,3,5.4,2.7c3.1-0.5,5.2-5,5.2-10.9l2.7,0c0,7.3-3,12.8-7.4,13.5c-2.2,0.4-4.4-0.4-6.5-2.2c-1.3,2.4-3.2,3.8-5.4,4.2
					C150.4,133.8,150,133.8,149.7,133.8z"/>
			</g>
		</g>
		<g>
			<g>
				<path class="st2" d="M209.8,198c-8.6,6.8-13.2,18.7-10,29.2c1.2,3.9,3.3,7.3,5.4,10.8c5.9,9.7,11.8,19.4,17.6,29.1
					c4.8,7.9,10.8,16.6,20,17.8c4,0.5,7.8-0.6,11.2-2.7c-10.4-43.3-21.3-79.5-21.3-79.5l-2.5-9.1c0.7-0.8,1.3-1.7,1.9-2.5
					C224.7,190.3,217.1,192.2,209.8,198z"/>
			</g>
			<g>
				<path class="st2" d="M98.3,247.5c8-2.4,15.6-6.4,21.2-12.6c6.2-6.9,9.3-16.1,12.3-24.9c3-9.1,6-19.4,1.4-27.8
					c-5.4-10-19.5-12.3-30-8.1c-9.5,3.8-16.9,10.2-22.1,18c5.2,4.7,11.8,8.4,20.2,10.6c0,0-5.7,18.9-12.8,45.7
					c0.3,0.1,0.6,0.2,0.9,0.2C92.4,249,95.5,248.3,98.3,247.5z"/>
			</g>
			<g>
				<path class="st2" d="M129.9,74.7c4.1,1.4,8.4,1.3,12.6,2.2c4.3,0.9,8.3,2.6,12.6,3.5c8.9,1.9,18.6-0.3,25.8-5.8
					c5.3-4,9.2-9.8,11.1-16.2c-28.9-6.6-55.4-2.3-74.7,3.7C119.6,67.9,124.1,72.7,129.9,74.7z"/>
			</g>
		</g>
		<g>
			<path d="M233.9,202.3l-2.3-8.5c15.5-19.3,19.9-45.1,12.5-74.6c-5.1-20.6-14.4-36.5-15.9-39.1l1.8-41.1l-32.4,19.2
				C141,42.8,91.2,71,86.1,74.1l-29.8-4.4l10.4,37.4c-1.3,4.6-12,45.9,3.9,74c6.3,11.2,16.1,18.7,29.1,22.5
				c-2.4,8-14.9,50.8-25.1,96.4h2.8c4.1-18.3,8.6-36.1,12.6-51.4c7-26.5,12.6-45.3,12.7-45.6l0.4-1.3l-1.3-0.4
				c-7.8-2.1-14.5-5.5-19.8-10.4c-3.5-3.1-6.5-6.9-8.9-11.2c-16-28.2-3.7-71.9-3.5-72.3l0.1-0.4L60,73l26.7,3.9l0.4-0.3
				c0.2-0.2,12.1-7.5,30.8-13.2c19.1-5.9,45.4-10.3,73.8-3.8c1.9,0.4,3.8,0.9,5.7,1.5l0.5,0.2L227,43.8l-1.6,37l0.2,0.4
				c0.1,0.2,10.3,16.7,15.8,38.7c4.9,19.7,6.9,47.7-11,71c-0.5,0.6-0.9,1.2-1.4,1.8l-0.4,0.5l2.7,9.8c0.1,0.4,11.1,36.9,21.4,79.8v0
				c1.4,5.6,2.7,11.3,4,17.1h2.7C248.2,249.7,234.1,202.8,233.9,202.3z"/>
		</g>
		<g>
			<g>
				<rect x="198.6" y="113.2" transform="matrix(0.9274 -0.3742 0.3742 0.9274 -27.515 87.2816)" width="24.8" height="2.7"/>
			</g>
			<g>
				<rect x="211.7" y="131.2" transform="matrix(0.2404 -0.9707 0.9707 0.2404 22.4907 315.8717)" width="2.7" height="24.8"/>
			</g>
			<g>
				<polygon points="201.7,130.8 201.5,128.1 224.4,126.5 224.6,129.2 				"/>
			</g>
		</g>
		<g>
			<g>
				<polygon points="105.1,133.4 80.5,130.1 80.9,127.4 105.4,130.7 				"/>
			</g>
			<g>
				<polygon points="87.9,166.1 86.7,163.8 108.5,152 109.8,154.4 				"/>
			</g>
			<g>
				<polygon points="83.5,148 83,145.3 105.5,141.2 106,143.8 				"/>
			</g>
		</g>
		<g>
			<path class="st2" d="M205,106.5c0.4,1.6-2.8,3.7-7.1,4.8c-4.3,1.1-8.1,0.6-8.5-1c-0.4-1.6,2.8-3.7,7.1-4.8
				C200.8,104.4,204.6,104.9,205,106.5z"/>
		</g>
		<g>
			<path class="st2" d="M125.7,122c0.4,1.6-2.8,3.7-7.1,4.8c-4.3,1.1-8.1,0.6-8.5-1c-0.4-1.6,2.8-3.7,7.1-4.8
				C121.5,120,125.3,120.4,125.7,122z"/>
		</g>
	</g>
</g>
</svg>
