<?xml version="1.0" encoding="utf-8"?>
<!-- Generator: Adobe Illustrator 22.1.0, SVG Export Plug-In . SVG Version: 6.00 Build 0)  -->
<svg version="1.1" id="Layer_1" xmlns="http://www.w3.org/2000/svg" xmlns:xlink="http://www.w3.org/1999/xlink" x="0px" y="0px"
	 viewBox="0 0 300 300" style="enable-background:new 0 0 300 300;" xml:space="preserve">
<style type="text/css">
	.st0{fill:#FFFFFF;}
	.st1{fill:#EDC1A4;}
	.st2{fill:#B28F73;}
</style>
<rect class="st0" width="300" height="300"/>
<g>
	<g>
		<g>
			<g>
				<path class="st1" d="M300,61.6v32.7c-9.9,2.9-24.5,0.6-25.3,40.7c-0.1,3.1,0,6.4,0,10c0.1,2.7,0.2,5.5,0.3,8.4
					c0,0.5,0.1,1,0.1,1.5c0,0.5,0,1,0.1,1.5c0.2,3.3,0.4,6.8,0.6,10.4c0.1,1.5,0.2,3.1,0.3,4.7c0,0.3,0,0.6,0.1,1
					c0.1,1.3,0.2,2.6,0.2,3.9c0.4,5.5,0.8,11.3,1.2,17.3c0.2,3.6,0.5,7.3,0.7,11.1c1.9,30.5,3.1,64.6-0.3,95.3h-16.4
					c1.5-17.8,1.7-39.6-1.8-63.7c-9.4-64.7-11.9-172.6,32.1-175.4C291.8,60.9,295.8,60,300,61.6z"/>
			</g>
			<g>
				<g>
					<path class="st2" d="M262,146.9c-1,1.5-0.5,3.7,0.6,5.1c2.5,3.5,7.3,4.1,11.6,4.4c0.4,0,0.7,0,1.1,0c-0.2-4-0.4-7.8-0.4-11.4
						c-2,0-4.1,0-6.2-0.1C266.2,144.8,263.3,144.8,262,146.9z"/>
				</g>
				<g>
					<path class="st2" d="M266.8,167.2c-1.3,1.5-0.9,4,0.4,5.5c1.3,1.5,3.3,2.2,5.2,2.8c1.3,0.4,2.6,0.6,4,0.9
						c-0.2-3.3-0.4-6.5-0.6-9.6c-1-0.2-1.9-0.3-2.9-0.5C270.8,165.9,268.2,165.6,266.8,167.2z"/>
				</g>
				<g>
					<path class="st2" d="M265.9,195.4c-0.1,0.9,0.6,1.8,1.2,2.5c3,3.4,6.9,5.5,11.2,6.9c-0.2-3.7-0.5-7.4-0.7-11.1
						c-2.1-0.1-4.3-0.3-6.4-0.6C269,192.8,266,193.2,265.9,195.4z"/>
				</g>
			</g>
			<g>
				<path d="M300,60.1v2.9c-3.9-1.6-7.9-0.9-8-0.8c-7.2,0.5-13.4,3.8-18.4,10.1c-24.4,30-19.4,117.1-12.6,163.8
					c3.5,23.9,3.2,45.8,1.5,63.9h-2.7c1.7-17.9,2-39.7-1.5-63.5c-6.9-47.1-11.8-135.1,13.1-165.9c5.6-6.9,12.4-10.6,20.2-11.1
					C291.8,59.5,295.7,58.7,300,60.1z"/>
				<path d="M296,93.8c1.4-0.3,2.8-0.6,4-1v2.9c-1.1,0.3-2.3,0.6-3.4,0.8c-9.3,2-19.8,4.2-20.5,38.5c-0.3,12.3,0.9,28.9,2.2,48.2
					c2.4,34.8,5.3,78.2,1,116.8h-2.7c3.5-31,2.2-65.4,0.4-95.8c-0.2-3.6-0.5-7.2-0.7-10.6c-0.2-3.5-0.5-6.8-0.7-10.2
					c-0.2-2.5-0.3-5-0.5-7.4c-0.2-3.3-0.4-6.4-0.6-9.5c-0.2-3.5-0.4-6.9-0.6-10.2c-0.2-4-0.3-7.8-0.4-11.4c-0.1-3.6-0.1-7-0.1-10.1
					C274.1,98.5,286.2,95.9,296,93.8z"/>
			</g>
		</g>
		<g>
			<path class="st1" d="M211.4,300H55.7c3-10.3,5.9-20.1,8.5-28.6c15.1-48.8,0-70.7,0-70.7c-15.9-16.4-25.8-38.8-25.8-63.5
				c0-8.8,1.2-17.2,3.5-25.2c0.3-1.1,0.6-2.1,1-3.2c1.7-5.3,3.9-10.3,6.5-15.1c0.5-0.9,1-1.8,1.5-2.7c2.1-3.5,4.4-6.9,7-10.2
				c0.6-0.8,1.3-1.6,2-2.4c8.8-10.4,20-18.9,32.6-24.5l15-25l13.4,27c0,0,1.6-0.2,4.4-0.4c1-0.1,2.3-0.2,3.6-0.3
				c0.6,0,1.2-0.1,1.8-0.1c1.4-0.1,2.9-0.2,4.5-0.2c0.3,0,0.6,0,0.9,0c1,0,1.9-0.1,3-0.1c6.8-0.2,14.8-0.2,22.6,0.3c0,0,0,0,0,0
				c1,0.1,1.9,0.1,2.9,0.2h0c1,0.1,1.9,0.2,2.8,0.3c0.8,0.1,1.5,0.2,2.3,0.3c0,0,0.1,0,0.1,0c0.4,0,0.8,0.1,1.1,0.2
				c0.5,0.1,1,0.1,1.5,0.2c0.1,0,0.3,0,0.4,0.1c5.1,0.8,9.7,2,13.4,3.7l25.5-20.2l0.8,31.4c0.4,1.7,0.8,3.5,1.2,5.5
				c0.2,0.9,0.3,1.8,0.5,2.7c0.7,4,1.3,8.5,1.7,13.4c0.1,0.9,0.2,1.8,0.3,2.7c0.5,5.2,0.9,10.7,1.2,16.3c0,1,0.1,1.9,0.1,2.9
				c0.6,13.1,0.8,26.8,0.8,39.2c0,1.5,0,3,0,4.5c0,0.6,0,1.3,0,1.9c0,0.4,0,0.8,0,1.2c0,0.7,0,1.4,0,2.1c-0.2,16-0.9,28.4-1.5,32.2
				c-0.1,0.5-0.2,0.9-0.2,1c0,0.1,0,0.3,0,0.5c0,0.1,0,0.1,0,0.2c0,0.1,0,0.3,0.1,0.4c0,0.1,0,0.3,0.1,0.4c0.1,0.5,0.2,1.2,0.4,1.9
				c0.2,1,0.5,2.1,0.8,3.5c0,0,0,0,0,0.1c0.3,1.2,0.6,2.5,0.9,3.9c2.6,10.4,7.2,27.5,12.8,47.3c1.4,4.8,2.8,9.9,4.2,15
				c1.1,3.8,2.2,7.6,3.3,11.5c0.5,1.8,1,3.5,1.5,5.3c0.7,2.6,1.5,5.2,2.2,7.8c0.2,0.9,0.5,1.8,0.8,2.7c0.2,0.8,0.5,1.6,0.7,2.4h-6.7
				c-3.3,0.7-6.9,0.8-10.2,0.8C222.1,300.8,216.7,300.7,211.4,300z"/>
		</g>
		<g>
			<polygon points="194.8,63.6 205.7,52.6 205.7,69.1 			"/>
		</g>
		<g>
			<polygon points="105.7,41.7 110,57.5 99,57.5 			"/>
		</g>
		<g>
			<path d="M131.4,89.8c-0.3,2-6.6,2.6-6.6,2.6s-5.7-2.6-5.4-4.6c0.3-2,3.3-3.1,6.6-2.6C129.3,85.8,131.7,87.8,131.4,89.8z"/>
		</g>
		<g>
			<g>
				<path d="M128.9,109.3c-0.5,0-1-0.1-1.6-0.2c-2.4-0.5-4.4-2-5.9-4.4c-2.3,1.7-4.8,2.3-7.1,1.8c-4.9-1-8.1-6.3-8.1-13.3l2.7,0
					c0,5.6,2.4,9.9,5.9,10.6c2,0.4,4.1-0.4,6.1-2.3l1.4-1.4l0.8,1.8c1.1,2.5,2.8,4,4.7,4.4c3.6,0.7,7.4-2.4,9.5-7.5l2.5,1
					C137.5,105.7,133.2,109.3,128.9,109.3z"/>
			</g>
		</g>
		<g>
			<g>
				<path d="M158.2,91.6c-0.5,0-1,0-1.4-0.1c-5.6-0.5-10.2-4.1-11.5-8.9L148,82c1,3.7,4.6,6.4,9.1,6.9c4.4,0.4,8.5-1.6,10.2-5
					l2.5,1.2C167.8,89.1,163.2,91.6,158.2,91.6z"/>
			</g>
		</g>
		<g>
			<g>
				<path d="M101,83.7c-0.5,0-0.9,0-1.4-0.1c-5.6-0.5-10.2-4.1-11.5-8.9l2.7-0.7c1,3.7,4.6,6.4,9.1,6.9c4.4,0.5,8.5-1.6,10.2-5
					l2.5,1.2C110.5,81.1,106,83.7,101,83.7z"/>
			</g>
		</g>
		<g>
			<g>
				<path class="st2" d="M174.5,132.1c0.1,3.2,3.8,4.8,7,5.5c6.9,1.5,14,2.2,21,2.1c5.4-0.1,10.9-0.8,15.9-2.8
					c-0.1-6-0.3-12.1-0.5-18.1c-12,2.4-24.2,5-36.1,7.4C178.5,127,174.4,128.7,174.5,132.1z"/>
			</g>
			<g>
				<path class="st2" d="M176,164.9c-1.9,1.7-3,4.6-1.7,6.9c1.1,2,3.7,2.8,6,3.2c7.3,1.4,14.9,1.6,22.3,0.7c5.5-0.7,11-2,15.7-4.7
					c0.1-5.2,0.2-10.9,0.2-17c-11.5,3.6-23,5.5-35.5,8C180.5,162.6,177.9,163.2,176,164.9z"/>
			</g>
			<g>
				<path class="st2" d="M182.7,201.3c0.6,2.2,2.8,3.5,4.9,4.3c9.2,3.9,19.7,4.9,29.5,2.7c0.6-0.1,1.2-0.3,1.8-0.5
					c-1.6-6.4-2.4-10.4-2.2-10.9c0.3-0.5,0.5-3,0.8-6.6c-9.1,1.6-18.6,1.2-27.7,3.6C186.1,194.9,181.7,197.6,182.7,201.3z"/>
			</g>
			<g>
				<path class="st2" d="M200.7,257.5c-2.6,0.8-4.9,3-5.1,5.7c-0.2,4.3,4.6,6.9,8.7,7.9c8.3,2.2,17,2.8,25.5,1.7
					c2.1-0.3,4.3-0.7,6.4-1.4c-1.6-5.5-3.1-11-4.6-16.2c-9.4,0.1-20.2,1.8-22.9,1.7C206.1,256.8,203.3,256.7,200.7,257.5z"/>
			</g>
			<g>
				<path class="st2" d="M243.6,297.6c-0.4,0.3-0.8,0.5-1.2,0.7c-1.5,0.8-3.1,1.3-4.8,1.7c-3.3,0.7-6.9,0.8-10.2,0.8
					c-5.3,0-10.7-0.1-16-0.8c-4.4-0.6-8.7-1.5-12.8-3.3c-1.3-0.6-2.8-1.5-3-2.9c-0.2-2.1,2.3-3.2,4.3-3.6c11.3-2.5,23-3,34-6.3
					c1.4-0.4,2.6-1,3.8-1.5c0.4-0.2,0.9-0.4,1.3-0.5c0.5,1.8,1,3.5,1.5,5.3c0.7,2.6,1.5,5.2,2.2,7.8
					C243.1,295.8,243.4,296.7,243.6,297.6z"/>
			</g>
			<g>
				<path class="st2" d="M121.8,69.9c0.6,0.6,1.5,0.6,2.3,0.5c4.7-0.5,8.2-4.5,10.8-8.5c0.9-1.4,2.8-4.2,4.2-7.3
					c-5.6,0.2-10.5,0.5-13.7,0.7c-2.5,3.7-4.3,8-4.2,12.4C121.2,68.6,121.2,69.4,121.8,69.9z"/>
			</g>
			<g>
				<path class="st2" d="M141,70.9c1.2-0.3,2.2-1.1,3.1-1.9c4.2-3.9,7.3-8.9,9.1-14.4c-3.2-0.1-6.4-0.1-9.4,0
					c-2.1,4.9-3.7,10.5-5.8,14.9C138.4,70.6,139.8,71.1,141,70.9z"/>
			</g>
			<g>
				<path class="st2" d="M155.2,69.2c0.1,1.2,1.3,2.1,2.5,2.2s2.4-0.4,3.4-1c4.8-2.7,8-7.5,10.9-12.2c0.4-0.6,0.6-1.3,0.8-2.1
					c-3.6-0.6-7.3-1-11.2-1.3c-2.1,4.1-3.8,9.1-5.5,11.8C155.7,67.5,155.2,68.3,155.2,69.2z"/>
			</g>
		</g>
		<g>
			<path d="M217.9,197.5c1.3-2.6,2.9-45.2,1.2-82.4c0-1-0.1-1.9-0.1-2.9c-0.3-5.8-0.7-11.4-1.2-16.8c-0.1-0.9-0.2-1.8-0.3-2.7
				c-0.5-4.9-1.1-9.5-1.8-13.6c-0.2-0.9-0.3-1.8-0.5-2.7c-0.4-2-0.8-3.8-1.2-5.4l-0.9-34l-27,21.3c-18.9-8-57.6-4.7-64.3-4.1
				L107.7,26L91.6,52.8c-13.1,5.9-24.4,14.6-33.2,25.3c-0.7,0.8-1.3,1.6-1.9,2.4c-2.6,3.3-4.9,6.8-7,10.5c-0.5,0.9-1,1.8-1.5,2.7
				c-2.7,5-4.8,10.2-6.6,15.6v0c-0.3,1-0.7,2.1-1,3.2c-2.2,7.9-3.4,16.2-3.4,24.7c0,24.2,9.3,47.1,26,64.3
				c0.2,0.2,14.5,22.1-0.2,69.5c-2.5,8.2-5.4,17.9-8.6,29h2.8c3.1-10.8,6-20.3,8.4-28.2c15.1-48.8,0.4-71-0.4-72.1
				c-16.3-16.8-25.4-39-25.4-62.5c0-8.9,1.3-17.5,3.8-25.7c0.3-1.1,0.7-2.1,1-3.2c1.7-5.1,3.9-9.9,6.5-14.6c0.5-0.9,1-1.8,1.6-2.7
				c2-3.4,4.3-6.7,6.8-9.8c0.6-0.8,1.3-1.6,2-2.4c8.5-9.9,19.2-18,31.6-23.6l0.4-0.2l13.9-23.3l12.7,25.6l0.9-0.1
				c0.1,0,1.3-0.1,3.4-0.3c3.1-0.2,8-0.6,13.9-0.8c1.5,0,3.2-0.1,4.8-0.1c3,0,6.2-0.1,9.5,0c2.8,0.1,5.6,0.2,8.4,0.4
				c3.9,0.3,7.8,0.7,11.4,1.2c5.1,0.8,9.7,2,13.3,3.7l0.8,0.3l24-19l0.8,28.6l0,0.3c0.4,1.7,0.8,3.5,1.2,5.5
				c0.2,0.9,0.3,1.8,0.5,2.7c0.7,4,1.2,8.4,1.7,13.1c0.1,0.9,0.2,1.8,0.3,2.7c0.5,5,0.8,10.4,1.1,15.9c0.1,1,0.1,1.9,0.2,2.9
				c0.1,1.6,0.1,3.2,0.2,4.8c0.2,6.1,0.4,12.2,0.5,18.3c0.1,5.8,0.1,11.5,0.1,17c0,6.2-0.1,12.1-0.2,17.3
				c-0.2,7.9-0.5,14.4-0.8,18.8c-0.2,3.2-0.4,5.3-0.6,5.8c-0.2,0.5-0.5,1.1,2.1,11.9c2,8.2,5.8,22.4,12.7,47
				c1.4,5.1,3,10.6,4.7,16.6c0.9,3.3,1.9,6.8,3,10.5c1.4,5,2.9,10.3,4.5,16c0.2,0.6,0.3,1.1,0.5,1.7h2.8
				C221.5,215.2,217.8,199,217.9,197.5z"/>
		</g>
		<g>
			<path class="st2" d="M175.3,99c0,2.2-3.7,4-8.2,4c-4.5,0-8.2-1.8-8.2-4s3.7-4,8.2-4C171.6,95.1,175.3,96.8,175.3,99z"/>
		</g>
		<g>
			<path class="st2" d="M91.7,91.7c0,2.2-3.7,4-8.2,4s-8.2-1.8-8.2-4c0-2.2,3.7-4,8.2-4S91.7,89.5,91.7,91.7z"/>
		</g>
		<g>
			<g>
				<polygon points="192.5,83.9 191.9,81.2 228.4,73.8 228.9,76.5 				"/>
			</g>
			<g>
				<rect x="193.9" y="92.8" width="36.4" height="2.7"/>
			</g>
			<g>
				<polygon points="227.4,117.8 193.5,107.1 194.3,104.4 228.2,115.2 				"/>
			</g>
		</g>
		<g>
			<g>
				<polygon points="64.2,82.1 27.8,74.6 28.3,71.9 64.8,79.4 				"/>
			</g>
			<g>
				<rect x="26.4" y="91" width="36.4" height="2.7"/>
			</g>
			<g>
				<polygon points="29.3,116 28.5,113.4 62.4,102.6 63.2,105.2 				"/>
			</g>
		</g>
	</g>
</g>
</svg>
