<?xml version="1.0" encoding="utf-8"?>
<!-- Generator: Adobe Illustrator 22.1.0, SVG Export Plug-In . SVG Version: 6.00 Build 0)  -->
<svg version="1.1" id="Layer_1" xmlns="http://www.w3.org/2000/svg" xmlns:xlink="http://www.w3.org/1999/xlink" x="0px" y="0px"
	 viewBox="0 0 300 300" style="enable-background:new 0 0 300 300;" xml:space="preserve">
<style type="text/css">
	.st0{fill:#FFFFFF;}
	.st1{fill:#FFC164;}
	.st2{fill:#B28F73;}
	.st3{fill:#FFD597;}
</style>
<rect class="st0" width="300" height="300"/>
<g>
	<g>
		<path class="st1" d="M235.8,253.9c-0.1,1.5-0.2,3-0.3,4.4c-0.2,2.9-0.4,5.7-0.7,8.6c0,0.3,0,0.5-0.1,0.8c-0.1,1-0.2,2-0.3,3
			c0,0.2,0,0.5-0.1,0.7c-0.3,2.9-0.6,5.7-1,8.5c-0.9,7.1-3,13.9-6.1,20H86.5c-1.3-2.6-2.4-5.4-3.4-8.2
			c-6.9-20.9-10.6-44.1-12.2-67.3c-0.1-1.4-0.2-2.8-0.3-4.2c-0.1-1.1-0.1-2.3-0.2-3.4c0-0.6-0.1-1.3-0.1-1.9c0-1-0.1-2-0.1-3
			c-0.1-1.4-0.1-2.8-0.2-4.1c-0.1-1.3-0.1-2.7-0.1-4v-0.1c-0.6-24.7,0.7-48.4,2.5-68c0.1-0.8,0.2-1.6,0.2-2.5c2.7-28,6.3-47,6.3-47
			s0-29.6,5.8-32.9c5.8-3.3,27.4,24.1,27.4,24.1s14.1-2.5,32.7-4.2c2.3-0.2,4.7-0.4,7.1-0.6c1.5-0.1,3-0.2,4.5-0.3
			c1.4-0.1,2.8-0.2,4.3-0.2c0.1,0,0.1,0,0.2,0c10.6-0.5,21.6-0.5,31.7,0.4c0,0,14.1-19.8,25.7-19.5c11.6,0.3,7.5,32.3,7.5,32.3
			s0.8,4.7,1.9,13c0,0.1,0,0.2,0,0.3c0,0.2,0.1,0.5,0.1,0.8c0,0.1,0,0.2,0,0.3c0.2,1.7,0.5,3.5,0.7,5.5c0,0.5,0.1,1,0.2,1.4
			c0,0.4,0.1,0.8,0.1,1.2c0.1,0.8,0.2,1.6,0.3,2.4c0,0.4,0.1,0.8,0.2,1.2c0,0.2,0.1,0.5,0.1,0.8c0,0.2,0,0.4,0.1,0.6
			c0,0.4,0.1,0.9,0.2,1.4c0,0.1,0,0.2,0,0.3c0,0.5,0.1,1,0.2,1.5c0,0.2,0,0.5,0.1,0.7c0.2,1.8,0.4,3.6,0.6,5.5
			c0.1,0.8,0.2,1.5,0.3,2.3c0.3,2.5,0.5,5.1,0.8,7.7c0.1,0.8,0.2,1.6,0.2,2.5C235.1,167.8,238.1,212.9,235.8,253.9z"/>
	</g>
	<g>
		<polygon points="87.8,83.3 87.8,65.9 100.9,77.5 		"/>
	</g>
	<g>
		<polygon points="217.9,79.6 217.9,62.2 204.8,73.8 		"/>
	</g>
	<g>
		<path d="M124.5,123.1c-1.3-5.3-6-9-11.5-9c-5.4,0-10.1,3.6-11.4,8.8l-2.2-0.6c1.6-6.2,7.2-10.5,13.6-10.5
			c6.5,0,12.1,4.4,13.7,10.7L124.5,123.1z"/>
	</g>
	<g>
		<path d="M162.8,117.4c0.1,2.9-8.5,5.4-8.5,5.4s-8.7-2.1-8.8-5c-0.1-2.9,3.7-5.3,8.5-5.4C158.8,112.3,162.7,114.5,162.8,117.4z"/>
	</g>
	<g>
		<g>
			<path d="M151.8,142.1c-4.3,0-8.2-4.6-9.6-11.5l2.2-0.5c1.2,5.8,4.2,9.7,7.4,9.7c0.1,0,0.1,0,0.1,0c1.8-0.1,3.5-1.4,4.9-3.9
				l0.9-1.7l1,1.6c1.5,2.3,3.3,3.4,5.1,3.5c3.2-0.1,6-4.3,6.8-10.2l2.3,0.3c-0.9,7.1-4.5,12.1-9,12.2c-2.2,0.1-4.3-1-6.1-3.1
				c-1.6,2.2-3.6,3.5-5.8,3.6C152,142.1,151.9,142.1,151.8,142.1z"/>
		</g>
	</g>
	<g>
		<g>
			<g>
				<path class="st2" d="M90.7,225.4l13.3-11.8l4.1-3.7c6.2-5.5,6.7-15,1.2-21.3c-5.5-6.2-15.1-6.8-21.3-1.2l-6.7,6l-6.7-6
					c-1.5-1.3-3.1-2.2-4.8-2.9c-0.2,12.9,0.1,26.4,1.1,39.9l1.1,1C77.3,230.1,85.3,230.1,90.7,225.4z"/>
			</g>
		</g>
		<g>
			<g>
				<path class="st2" d="M208.7,231.3c-5.5,6.2-5,15.7,1.2,21.3l4.1,3.7l13.3,11.8c2.1,1.8,4.6,3,7.1,3.4
					c1.2-11.4,1.8-23.4,2.1-35.5l-6.5-5.8C223.7,224.5,214.2,225.1,208.7,231.3z"/>
			</g>
		</g>
		<g>
			<g>
				<path class="st2" d="M149.5,78l9.8,8.7c3.9,3.5,9.8,3.5,13.7,0l9.8-8.7l3-2.7c1-0.9,1.7-1.9,2.3-3c-14.3-0.9-29.9-0.2-43.3,1
					c0.5,0.7,1,1.4,1.7,1.9L149.5,78z"/>
			</g>
		</g>
		<g>
			<g>
				<path class="st2" d="M207.4,97.9l-6.6,5.9l-6.6-5.9c-6.1-5.5-15.5-4.9-20.9,1.2c-5.4,6.1-4.9,15.5,1.2,20.9l4,3.6l13.1,11.6
					c5.2,4.7,13.1,4.7,18.4,0l13.1-11.6l4-3.6c1.1-1,2-2.2,2.7-3.4c-0.8-7.2-1.6-13.3-2.3-18.2C222,93,213.2,92.7,207.4,97.9z"/>
			</g>
		</g>
	</g>
	<g>
		<path d="M232.9,135c-0.1-0.8-0.2-1.6-0.2-2.5c-0.3-2.8-0.6-5.5-0.8-8.1c-0.1-0.8-0.2-1.5-0.2-2.3c-0.3-2.8-0.6-5.4-0.9-7.9
			c-0.1-0.8-0.2-1.5-0.3-2.2c-1.8-15.3-3.3-25.2-3.6-26.6c0.3-2.3,2.7-23.7-3.5-30.9c-1.4-1.6-3.1-2.5-5.1-2.5H218
			c-11,0-23.6,16.2-26,19.4c-32.2-2.8-73.6,3.9-79.4,4.8c-5.7-7.1-22.4-27.3-28.4-23.8c-6.1,3.5-6.4,28.9-6.4,33.7
			c-0.1,0.3-2,10.7-4.1,27.3c-0.1,0.7-0.2,1.5-0.3,2.3c-0.3,2.5-0.6,5-0.9,7.7c-0.1,0.8-0.2,1.5-0.2,2.3c-0.3,2.6-0.5,5.2-0.8,8
			c-0.1,0.8-0.2,1.6-0.2,2.5c-1.5,16.2-2.6,35.2-2.6,55.2c0,33.5,3.2,69.9,13.3,100.8c0.9,2.7,2,5.3,3.2,7.9h2.6
			c-1.4-2.7-2.6-5.6-3.6-8.6c-6.7-20.3-10.4-43.1-12-65.9c-1-13.7-1.3-27.4-1.2-40.5c0.6-53.3,8.9-97.8,9.1-98.7
			c0-11.2,1.4-29.8,5.2-31.9c3.1-1.8,15.8,11,25.9,23.8l0.4,0.5l0.7-0.1c0.3,0,14.7-2.6,33.3-4.2c13-1.1,28-1.9,41.8-1
			c1.7,0.1,3.4,0.2,5,0.4l0.6,0.1l0.4-0.5c0.1-0.2,13.8-19.3,24.8-19c1.4,0,2.5,0.6,3.4,1.7c5.8,6.7,3,29.1,2.9,29.3l0,0.2l0,0.1
			c0,0.2,0.7,4.4,1.7,11.7c0.7,5.4,1.6,12.5,2.6,20.8c0.6,4.9,1.1,10.2,1.7,15.9c0,0.1,0,0.2,0,0.3c2.8,28.2,5.5,65.1,4.8,100.6
			c-0.2,12.4-0.9,24.6-2,36.3c-0.3,2.9-0.6,5.8-1,8.6c-0.9,7.2-3.1,14-6.2,20.2h2.5c3-6.1,5-12.8,5.9-19.9
			C240.5,233.5,237,175.6,232.9,135z"/>
	</g>
	<g id="XMLID_9_">
		<g>
			<g>
				<path d="M126.1,299.1c0,0,0.1,0.3,0.3,0.9H124c0-0.1-0.1-0.2-0.1-0.2L126.1,299.1z"/>
				<path d="M161,293.7c0,0.1,0,2.5-0.2,6.3h-2.3c0.1-3.9,0.2-6.3,0.2-6.4L161,293.7z"/>
			</g>
			<g>
				<path d="M175.3,300H173c0.5-2.3,0.8-3.7,0.8-3.8l2.2,0.5C176,296.8,175.8,298,175.3,300z"/>
			</g>
		</g>
	</g>
	<g>
		<path d="M212.2,123.1c-1.3-5.3-6-9-11.5-9c-5.4,0-10.1,3.6-11.4,8.8l-2.2-0.6c1.6-6.2,7.2-10.5,13.6-10.5
			c6.5,0,12.1,4.4,13.7,10.7L212.2,123.1z"/>
	</g>
	<g>
		<path class="st3" d="M112.3,131.4c0,1.1-3.3,2-7.3,2c-4,0-7.3-0.9-7.3-2c0-1.1,3.3-2,7.3-2C109.1,129.4,112.3,130.3,112.3,131.4z"
			/>
	</g>
	<g>
		<path class="st3" d="M220.1,128.9c0,0.9-2.8,1.7-6.4,1.7s-6.4-0.8-6.4-1.7c0-0.9,2.8-1.7,6.4-1.7S220.1,127.9,220.1,128.9z"/>
	</g>
	<g>
		<g>
			<polygon points="229.2,114.6 228.8,112.4 259.7,106 260.1,108.3 			"/>
		</g>
		<g>
			<rect x="230.4" y="122.2" width="30.9" height="2.3"/>
		</g>
		<g>
			<polygon points="259.3,143.4 230.5,134.2 231.1,132.1 260,141.2 			"/>
		</g>
	</g>
	<g>
		<g>
			<polygon points="74.2,115.8 43.2,109.5 43.7,107.3 74.6,113.6 			"/>
		</g>
		<g>
			<rect x="42.1" y="123.4" width="30.9" height="2.3"/>
		</g>
		<g>
			<polygon points="44.5,144.6 43.8,142.5 72.6,133.3 73.3,135.5 			"/>
		</g>
	</g>
</g>
</svg>
