<?xml version="1.0" encoding="utf-8"?>
<!-- Generator: Adobe Illustrator 22.1.0, SVG Export Plug-In . SVG Version: 6.00 Build 0)  -->
<svg version="1.1" id="Layer_1" xmlns="http://www.w3.org/2000/svg" xmlns:xlink="http://www.w3.org/1999/xlink" x="0px" y="0px"
	 viewBox="0 0 300 300" style="enable-background:new 0 0 300 300;" xml:space="preserve">
<style type="text/css">
	.st0{fill:#FFFFFF;}
	.st1{fill:#999999;}
	.st2{fill:#858585;}
	.st3{fill:#C2C2C2;}
</style>
<rect class="st0" width="300" height="300"/>
<g>
	<g>
		<g>
			<g>
				<path class="st1" d="M91.6,300H59.7c-0.5,0.4-1,0.8-1.6,1.3c-0.3,0.2-0.6,0.5-0.9,0.7c-0.6-0.7-1.2-1.3-1.7-2h-0.1
					c-23.5-27.7-31.5-62.5-32.2-76.2C22,198.7,38.5,201,42.7,202c0.6,0.1,0.9,0.2,0.9,0.2l4.3,5.4c0,0,0,0,0,0l2.6,3.2c0,0,0,0,0,0
					c0,0.2,0,0.8,0,1.8C50.3,222.9,51.8,272.2,91.6,300z"/>
			</g>
		</g>
		<g>
			<g>
				<path class="st2" d="M66.2,294.9c-0.1,0.1-2.6,1.9-6.5,5.1c-0.5,0.4-1,0.8-1.6,1.3c-0.3,0.2-0.6,0.5-0.9,0.7
					c-0.6-0.7-1.2-1.3-1.7-2c-2.9-3.5-5.6-7-8.1-10.6c0.3-0.2,0.6-0.5,0.9-0.7c4.8-4,8.1-6.4,8.6-6.7c3.6-2.6,8.6-1.8,11.1,1.8
					C70.6,287.3,69.8,292.3,66.2,294.9z"/>
			</g>
			<g>
				<path class="st2" d="M54.9,254.1c-2.1-3.9-6.9-5.4-10.8-3.3c-0.7,0.4-5.6,3-12.6,7.6c1.8,4.8,4,9.8,6.5,14.9
					c7.9-5.3,13.4-8.4,13.6-8.4C55.5,262.8,56.9,258,54.9,254.1z"/>
			</g>
		</g>
		<g>
			<path d="M94.4,300h-4.2c-41-30-41-82.8-40.9-88.6v0l-2.2-2.8l-4.2-5.2c-1.5-0.4-8-1.8-12.8,1.8c-4.2,3.2-6.1,9.5-5.6,18.7
				c0.3,6.6,2.5,19.3,8,34c1.8,4.8,3.9,9.8,6.5,14.9c2.7,5.3,5.8,10.7,9.4,16c2.6,3.9,5.5,7.6,8.7,11.3c0.4,0.4,0.7,0.9,1.1,1.3
				c-0.3,0.2-0.6,0.5-0.9,0.7c-0.6-0.7-1.2-1.3-1.7-2h-1.7c-23.7-28.4-31.1-63.5-31.8-76.1c-0.5-10,1.7-17,6.6-20.7
				c4.5-3.5,10.2-3.2,13.2-2.6c0.7,0.1,1.2,0.2,1.6,0.3c0.3,0.1,0.5,0.2,0.5,0.2l0.3,0.1l4.4,5.6l3,3.8v0l0,0.4c0,0.1,0,0.5,0,1.4
				c0,0.5,0,1.1,0,1.8C51.9,226.7,55.5,273.7,94.4,300z"/>
		</g>
	</g>
	<g>
		<path d="M134.9,269.4c-1.9,0-3.7-0.3-5.3-0.8c-5.8-1.8-11.1-8.2-9.3-14.7c1.3-4.5,5.4-7.3,9-9.8l0.6-0.4c7-4.8,13.2-10.5,18.6-17
			l1.8,1.5c-5.5,6.7-12,12.6-19.1,17.5l-0.6,0.4c-3.5,2.4-7,4.8-8.1,8.5c-1.4,5.1,2.9,10.3,7.7,11.7c4.4,1.4,9.7,0.7,16.1-2.1
			c16.2-7,28.7-21.4,33.5-38.4l2.3,0.7c-5,17.7-18.1,32.6-34.9,39.9C142.7,268.4,138.6,269.4,134.9,269.4z"/>
	</g>
	<g>
		<polygon points="151.9,262.2 134.1,241.6 135.9,240.1 153.7,260.6 		"/>
	</g>
	<g id="XMLID_10_">
		<g>
			<g>
				<path class="st1" d="M281.3,252.4c-0.1,0.3-0.1,0.6-0.2,0.9c-0.1,0.5-0.3,1-0.4,1.6c-4.9,19-13.5,33.9-24.3,45.1H112.1
					c-4.7-4.9-8.7-10.2-11.6-16.1l-11.9-24.2l-8.2,6l-1-30.6l-7.7-6.7c-8.1-4.3-14.8-9.9-20.1-16.1c-0.4-0.4-0.8-0.9-1.2-1.4
					c-0.9-1.1-1.8-2.2-2.6-3.3c0,0,0,0,0,0c-1.4-1.9-2.6-3.7-3.8-5.6c-0.2-0.3-0.4-0.7-0.7-1.1c-16.1-26.5-15.6-57.8-15.6-57.8
					L1.9,129.8l17.2-12.5l12.4-7.7c0,0,18-67.3,119.5-63.3c0.7,0,1.4,0.1,2.1,0.1c0.7,0,1.4,0.1,2,0.1c1.3,0.1,2.7,0.2,4,0.3
					c0.7,0.1,1.3,0.1,2,0.2v0C245.8,56.9,304.8,154.3,281.3,252.4z"/>
			</g>
		</g>
	</g>
	<g>
		<path d="M95,160.8c1.7-0.7,5.1,3.9,5.1,3.9s0.6,5.7-1.1,6.3c-1.7,0.7-4-1.1-5.1-3.9C92.8,164.3,93.3,161.4,95,160.8z"/>
	</g>
	<g>
		<g>
			<path d="M112.6,180l-1.3-2c4.3-2.7,6.4-6.7,5.2-9.7c-0.7-1.7-2.4-3-4.7-3.5l-1.7-0.4l0.9-1.4c1.4-2,1.7-4.1,1.1-5.8
				c-1.2-3-5.5-4.5-10.5-3.6l-0.4-2.4c6.2-1.1,11.5,0.9,13.1,5.1c0.8,2,0.6,4.4-0.5,6.7c2.4,0.9,4.1,2.5,4.9,4.5
				C120.4,171.5,117.9,176.6,112.6,180z"/>
		</g>
	</g>
	<g>
		<g>
			<path d="M102.8,203.5l-1.7-1.7c2.4-2.5,2.9-6.6,1.1-10.3c-1.8-3.7-5.3-5.9-8.7-5.6l-0.2-2.4c4.5-0.4,8.9,2.3,11.1,6.9
				C106.5,195.1,105.9,200.3,102.8,203.5z"/>
		</g>
	</g>
	<g>
		<path class="st3" d="M109.9,187c1.7-1,4.8,1,6.9,4.5c2.1,3.5,2.5,7.2,0.8,8.2c-1.7,1-4.8-1-6.9-4.5
			C108.6,191.7,108.2,188,109.9,187z"/>
	</g>
	<g>
		<g>
			<polygon points="151.1,200.4 135.9,183.9 137.7,182.3 152.9,198.8 			"/>
		</g>
		<g>
			<rect x="135.8" y="186" transform="matrix(0.8557 -0.5175 0.5175 0.8557 -82.1564 99.3385)" width="2.4" height="22"/>
		</g>
		<g>
			<rect x="126.7" y="190.9" transform="matrix(0.9721 -0.2346 0.2346 0.9721 -43.7381 35.6285)" width="2.4" height="21.5"/>
		</g>
	</g>
	<g>
		<polygon points="28.5,135.7 12.7,127.1 29.2,118.5 		"/>
	</g>
	<g>
		<polygon points="100.2,245.2 85.8,256 84.8,237.4 		"/>
	</g>
	<g>
		<g>
			<path d="M85,153.7l-2.2-1c1.5-3.1,0.6-7.2-2.2-10.1c-2.8-2.9-6.9-4-10-2.5l-1-2.2c4.1-1.8,9.2-0.6,12.7,3.1
				C85.9,144.5,86.9,149.6,85,153.7z"/>
		</g>
	</g>
	<g>
		<path class="st3" d="M83.3,130.9c1.7-1,4.8,1,6.9,4.5c2.1,3.5,2.5,7.2,0.8,8.2c-1.7,1-4.8-1-6.9-4.5
			C81.9,135.6,81.6,131.9,83.3,130.9z"/>
	</g>
	<g>
		<g>
			<polygon points="90.1,130.3 74.9,113.8 76.7,112.2 91.9,128.7 			"/>
		</g>
		<g>
			<rect x="89.6" y="104.6" transform="matrix(0.8557 -0.5174 0.5174 0.8557 -46.7087 63.658)" width="2.4" height="22"/>
		</g>
		<g>
			<rect x="98.8" y="100.2" transform="matrix(0.9721 -0.2346 0.2346 0.9721 -23.2382 26.5525)" width="2.4" height="21.5"/>
		</g>
	</g>
	<g>
		<g>
			<path class="st2" d="M142.1,106c-0.9,4.3,1.8,8.6,6.1,9.5c0.6,0.1,1.1,0.2,1.7,0.2c3.7,0,7-2.5,7.8-6.3
				c5.6-25.7,5.2-47.5,3.6-62.3c-2.7-0.3-5.3-0.5-8.1-0.7c-2.8-0.1-5.5-0.2-8.1-0.2C146.8,59.5,147.6,80.7,142.1,106z"/>
		</g>
		<g>
			<path class="st2" d="M174.4,129.2c1.6,1.6,3.6,2.3,5.6,2.3c2,0,4.1-0.8,5.6-2.3c19.1-19.1,26.9-44.1,30.2-61.8
				c-4.8-3.2-9.7-6-14.8-8.5c-2.1,15.2-8.4,40.7-26.7,59C171.3,121,171.3,126.1,174.4,129.2z"/>
		</g>
		<g>
			<path class="st2" d="M206.9,134.4c-4.3,1-6.9,5.3-5.9,9.6c0.9,3.7,4.1,6.1,7.8,6.1c0.6,0,1.2-0.1,1.9-0.2
				c19.6-4.7,36.9-23.4,48-38.4c-3-4.8-6.3-9.3-9.8-13.7C238.7,112.4,222.7,130.7,206.9,134.4z"/>
		</g>
		<g>
			<path class="st2" d="M216,236.2c-2,3.9-0.5,8.7,3.4,10.7c1.5,0.8,29.1,14.9,57.9,18.3c1.4-3.8,2.6-7.8,3.7-12
				c0.3-1.2,0.5-2.4,0.8-3.6c-26.6-2.4-54.7-16.7-55.1-16.9C222.9,230.8,218.1,232.3,216,236.2z"/>
		</g>
		<g>
			<path class="st2" d="M266,288c-3,4.4-6.2,8.4-9.6,12h-8c-27.5-8.2-50.9-22.2-52.4-23.1c-3.8-2.3-4.9-7.2-2.7-11
				c2.3-3.8,7.2-4.9,11-2.7c0.4,0.2,30.4,18.3,60.4,24.5C265.2,287.8,265.6,287.9,266,288z"/>
		</g>
		<g>
			<path class="st2" d="M182.2,288.3c0.2,0.1,6.6,5.3,16.8,11.7h-27.6c-2.8-2.9-3-7.4-0.4-10.6C173.8,286,178.8,285.5,182.2,288.3z"
				/>
		</g>
	</g>
	<g>
		<g>
			<path d="M163.9,163.7c-0.4-0.9-10.9-22.5-24.4-30.2l-1.2,2.1c12.9,7.4,23.3,29,23.4,29.1c6.9,17.9,6.7,33.7-0.7,46.7
				c-14.6,25.9-52.6,33-53,33l-26.4,19l-0.9-28.9l-8.3-7.2c-7.9-4.2-14.8-9.8-20.6-16.8l0,0.4c0,0.1,0,0.5,0,1.4c0,0.5,0,1.1,0,1.8
				c5.6,6.2,12.1,11.3,19.3,15.1l7.3,6.4l1,32.4l8.9-6.5l11.3,22.9c2.8,5.6,6.5,10.8,11,15.5h3.3c-5-5-9.2-10.6-12.2-16.6
				l-11.4-23.3l18.5-13.4c2.5-0.5,18.5-3.8,33.5-13.2c2.7-1.7,5.3-3.6,7.8-5.6c5.1-4.2,9.7-9.3,13.1-15.3
				C170.8,198.9,171.1,182.5,163.9,163.7z M253.1,101.3c-25.6-34.3-61-54.2-99.8-56.1C99.5,42.7,69,60.1,52.9,75.3
				C36.7,90.5,31.5,106,30.6,108.9l-12.1,7.5L0,129.7l-0.3,0.2l0.3,0.2l26.6,13.8c0.1,4.9,1.1,32.7,15.2,56.7
				c0.3,0.5,0.6,0.9,0.8,1.4c0.1,0.2,0.3,0.4,0.4,0.6c1.3,2,2.6,4,4,5.9c0.7,1,1.5,1.9,2.2,2.9c0.4,0.5,0.8,0.9,1.2,1.4
				c0.4,0.5,0.8,0.9,1.2,1.4c5.6,6.2,12.1,11.3,19.3,15.1l7.3,6.4l1,32.4l8.9-6.5l11.3,22.9c2.8,5.6,6.5,10.8,11,15.5h3.3
				c-5-5-9.2-10.6-12.2-16.6l-11.4-23.3l18.5-13.4c2.5-0.5,18.5-3.8,33.5-13.2c2.7-1.7,5.3-3.6,7.8-5.6c5.1-4.2,9.7-9.3,13.1-15.3
				c7.7-13.7,8-30.1,0.8-48.9c-0.4-0.9-10.9-22.5-24.4-30.2l-1.2,2.1c12.9,7.4,23.3,29,23.4,29.1c6.9,17.9,6.7,33.7-0.7,46.7
				c-14.6,25.9-52.6,33-53,33l-26.4,19l-0.9-28.9l-8.3-7.2c-7.9-4.2-14.8-9.8-20.6-16.8c-1-1.2-2-2.5-3-3.8
				c-1.3-1.7-2.5-3.5-3.7-5.4C28.7,175.2,29,143.5,29,143.2l0-0.7L4.2,129.6l15.6-11.3l12.9-7.9l0.1-0.5c0-0.2,4.7-17,21.8-33
				c15-14,42.7-30.1,90.6-29.5c2.6,0,5.2,0.1,7.9,0.2c2.8,0.1,5.5,0.4,8.2,0.7c13.8,1.6,27.1,5.6,39.5,11.7c5,2.5,10,5.3,14.7,8.5
				c11.9,8,22.9,18.2,32.5,30.3c1,1.3,2,2.6,3,3.9c2.4,3.2,4.6,6.5,6.8,9.8c25.1,39.3,33.5,89.5,22.8,137c-0.2,1.1-0.5,2.3-0.8,3.4
				c-1,4.2-2.3,8.2-3.7,12.1c-3,8.3-6.9,15.8-11.5,22.6c-3,4.5-6.4,8.6-10.1,12.3h3.3c11.4-12.2,19.7-27.9,24.3-46.4
				C295.3,200.2,284.4,143.3,253.1,101.3z"/>
		</g>
	</g>
</g>
</svg>
