<?xml version="1.0" encoding="utf-8"?>
<!-- Generator: Adobe Illustrator 22.1.0, SVG Export Plug-In . SVG Version: 6.00 Build 0)  -->
<svg version="1.1" id="Layer_1" xmlns="http://www.w3.org/2000/svg" xmlns:xlink="http://www.w3.org/1999/xlink" x="0px" y="0px"
	 viewBox="0 0 300 300" style="enable-background:new 0 0 300 300;" xml:space="preserve">
<style type="text/css">
	.st0{fill:#FFFFFF;}
	.st1{fill:#999999;}
	.st2{fill:#FBA252;}
</style>
<rect class="st0" width="300" height="300"/>
<g>
	<g>
		<g id="XMLID_11_">
			<g>
				<g>
					<path class="st0" d="M249,283.6c0,0,2.7,6.7,3.7,16.4H0V166.1c34.7-11.4,69.9-7.1,69.9-7.1c-1.2-14.3,3.5-38.3,3.5-38.3
						s-1.1-43.9,10.4-42.8c8.5,0.7,20.1,12.2,28.4,22.1c0.4,0.4,0.7,0.9,1.1,1.3c0.4,0.4,0.7,0.9,1,1.3c0.4,0.4,0.7,0.8,1,1.3
						c0.7,0.8,1.3,1.6,1.9,2.4c0.3,0.4,0.6,0.8,0.9,1.1c0.5,0.7,1,1.4,1.5,2.1c0,0,0.1,0,0.2,0c0,0,0.1,0,0.1,0c0.1,0,0.1,0,0.2,0
						c0.2,0,0.5-0.1,0.8-0.1c0.2,0,0.3,0,0.5-0.1c0.2,0,0.3,0,0.5,0c0.2,0,0.4,0,0.5-0.1c0.4,0,0.9-0.1,1.4-0.1c0.2,0,0.5,0,0.7-0.1
						c0.7-0.1,1.5-0.1,2.4-0.2c0.2,0,0.5,0,0.8-0.1c0,0,0.1,0,0.1,0c0.1,0,0.3,0,0.5,0c0.5,0,1.1-0.1,1.6-0.1c0.5,0,1.1-0.1,1.7-0.1
						c0.7,0,1.4-0.1,2.1-0.1c1.2-0.1,2.4-0.2,3.7-0.2c20-1.2,53.1-1.8,80.5,4.5c1.9,0.4,3.7,0.9,5.5,1.4c0,0,24.8-31.2,36.8-22.4
						c12,8.9-3.7,40.9-3.7,40.9s0.1,0.1,0.2,0.4c0,0.1,0.1,0.2,0.1,0.3c0,0.1,0.1,0.2,0.1,0.3c0.1,0.2,0.2,0.4,0.3,0.6
						c0.1,0.1,0.1,0.2,0.2,0.3c0.1,0.1,0.1,0.2,0.2,0.4c0.4,0.8,0.8,1.8,1.3,3.1c0.2,0.4,0.4,0.8,0.5,1.3c0.1,0.2,0.2,0.5,0.3,0.7
						c0.2,0.5,0.4,1,0.6,1.5c0.3,0.9,0.7,1.8,1,2.7c0.3,0.7,0.5,1.5,0.8,2.3c0,0.1,0,0.2,0.1,0.2C270.3,170.5,280.8,222.8,249,283.6
						z"/>
				</g>
			</g>
		</g>
		<g>
			<path class="st1" d="M102,110.4c0,0-8.9-22.7-15.4-21.4C80,90.4,84,117.1,84,117.1L102,110.4z"/>
		</g>
		<g>
			<g>
				<path d="M165.3,186.3c-5.3,0-9.9-3.6-11.4-9.1l3-0.9c1.2,4.1,4.6,6.8,8.4,6.8c0,0,0.1,0,0.1,0c2.2,0,4.4-1,6-2.7l1.1-1.2
					l1.1,1.1c1.7,1.7,3.8,2.6,6,2.6c0,0,0.1,0,0.1,0c3.9-0.1,7.3-2.9,8.4-7l3,0.8c-1.4,5.5-6,9.3-11.3,9.4c-0.1,0-0.1,0-0.2,0
					c-2.6,0-5-0.9-7.1-2.5c-2,1.7-4.5,2.6-7.1,2.7C165.4,186.3,165.4,186.3,165.3,186.3z"/>
			</g>
		</g>
		<g>
			<path d="M182.6,159.4c-0.3,3.4-10.9,5.3-10.9,5.3s-10.1-3.7-9.8-7.2c0.3-3.4,5.2-5.8,10.9-5.3C178.5,152.8,182.9,156,182.6,159.4
				z"/>
		</g>
		<g>
			<g>
				<rect x="101.3" y="135.4" transform="matrix(0.3938 -0.9192 0.9192 0.3938 -75.795 185.6611)" width="3.1" height="29.7"/>
			</g>
			<g>
				<polygon points="85.5,189.9 84.8,186.8 113.8,180.3 114.5,183.3 				"/>
			</g>
			<g>
				
					<rect x="98.5" y="153.4" transform="matrix(9.144061e-02 -0.9958 0.9958 9.144061e-02 -75.5389 251.5093)" width="3.1" height="27.4"/>
			</g>
		</g>
	</g>
	<g>
		<path class="st2" d="M209.9,206.6c-2.4,2.8-4.1,6.1-5.4,9.5c-2.6,6.7-3.6,14.9,0.9,20.5c1.8,2.2,4.2,3.7,6.7,4.9
			c9.9,4.5,22,3.8,31.2-1.9c10-6.2,22.5-25.7,12.4-36.6C245.6,192,218.8,196.4,209.9,206.6z"/>
	</g>
	<g>
		<g>
			<path class="st1" d="M192.4,127.5c-1.2,4-2.2,8.1-2.6,12.3c-2.2,19.7,2.1,41.3,16.7,54.7c8.5,7.8,19.5,12,30.6,15.1
				c10.6,3,22.2,4.8,32.9,2.8c3.8-47.6-13.5-80-13.5-80s15.8-32,3.7-40.9c-12-8.8-36.8,22.4-36.8,22.4c-4.7-1.3-9.7-2.3-14.7-3.2
				c-0.3,3.2-1.7,6.4-4.6,9.4C201.1,123.2,197.1,125.6,192.4,127.5z"/>
		</g>
		<g>
			<path class="st2" d="M118.8,124.6c6,5.6,14.5,7.4,22.7,8.1c12.9,1,35.4,1,50.9-5.2c4.7-1.9,8.7-4.3,11.7-7.4
				c2.8-3,4.2-6.2,4.6-9.4c-40.7-7-89.1-1.2-89.1-1.2c-1.8-2.6-4.4-5.9-7.4-9.5C110.1,108.7,112.3,118.5,118.8,124.6z"/>
		</g>
	</g>
	<g>
		<g>
			<polygon points="223.7,161.3 223,158.2 252,151.7 252.7,154.8 			"/>
		</g>
		<g>
			<rect x="233.1" y="176.4" transform="matrix(0.3937 -0.9192 0.9192 0.3937 -33.5321 331.6674)" width="3.1" height="29.7"/>
		</g>
		<g>
			
				<rect x="236" y="159.9" transform="matrix(9.160795e-02 -0.9958 0.9958 9.160795e-02 42.9404 394.2159)" width="3.1" height="27.4"/>
		</g>
	</g>
	<g>
		<path class="st2" d="M46,194.8c-2.6,5-8,7.9-13.2,10c-8.4,3.4-17.2,5.8-26.2,7.1c-2.2,0.3-4.5,0.6-6.7,0.8v-44.2
			c4.5-1.5,9.4-2.5,14.3-2.8c10.4-0.7,20.9,1.4,28.9,6.8c1.6,1.1,3.1,2.3,3.9,4c0.7,1.5,0.8,3.3,0.8,5C48,186,48.1,190.8,46,194.8z"
			/>
	</g>
	<g>
		<g>
			<path class="st1" d="M18.9,197.3c-1.3,4-3.8,7.4-6.8,10.3c-1.7,1.6-3.5,3.1-5.4,4.3c-2.1,1.4-4.4,2.7-6.7,3.8v-49.6
				c4.1-1.4,8.2-2.5,12.3-3.4c0.3,0.5,0.7,0.9,1,1.4c0.3,0.5,0.7,1,1,1.6c2.4,4.2,4.1,9.7,5.1,16.6C20,187.3,20.5,192.5,18.9,197.3z
				"/>
		</g>
	</g>
	<g>
		<path class="st1" d="M232.5,119.2c0,0,12.8-20.7,19.1-18.2c6.2,2.5-2.6,28.1-2.6,28.1L232.5,119.2z"/>
	</g>
	<g>
		<path d="M250.7,283.7c0.7,2,2.7,8.1,3.5,16.3H251c-0.9-9.3-3.4-15.7-3.5-15.8l-0.3-0.7l0.3-0.6c13.2-25.3,19.1-49.2,20.7-70.2v0
			c3.8-46.8-13-79-13.3-79.5l-0.4-0.7l0.3-0.7c4.2-8.6,13.2-32.3,4.2-39c-8.9-6.5-28,13.8-34.7,22.1l-0.7,0.8l-1-0.3
			c-4.7-1.3-9.5-2.3-14.6-3.2c-40.1-6.8-88.1-1.2-88.7-1.2l-0.9,0.1l-0.5-0.8c-1.8-2.6-4-5.5-6.5-8.4C103,91.4,91.4,80.1,83.6,79.4
			c-0.8-0.1-1.6,0.2-2.3,0.9c-5.9,5.5-6.6,31-6.4,40.3c-0.1,0.6-4.7,24.3-3.5,38.2l0.2,1.9l-1.9-0.2c-0.4-0.1-27-3.1-56.4,3.6
			c-4.4,1-8.9,2.2-13.3,3.7v-3.3c30.1-9.7,60.5-8,68.2-7.3c-0.7-14.4,3.4-35.9,3.6-36.8c-0.1-3.2-0.7-34.9,7.3-42.4
			c1.4-1.3,3-1.9,4.7-1.7c13.6,1.2,32.8,26.7,36.4,31.5c7.8-0.8,63-6.2,102.5,4.3c4.6-5.7,26.2-30.8,38.3-21.9
			c12,8.9-0.6,37.2-2.9,42.2C261.9,139.9,291.4,205.2,250.7,283.7z"/>
	</g>
	<g>
		<g>
			<path class="st0" d="M106.2,300H75.2c-1.9-5.3-6.3-12.2-5.5-16.7c2.4-12.5,18.9-11,27.1-0.4C101.2,288.6,104.2,294.4,106.2,300z"
				/>
		</g>
		<g>
			<path d="M98,282c-5.2-6.8-13.7-10.4-20.8-8.7c-4.8,1.1-8.1,4.6-9.1,9.8c-0.7,3.6,1.4,8.2,3.5,12.6c0.7,1.5,1.4,3,1.9,4.4h3.3
				c-0.6-1.8-1.5-3.7-2.4-5.7c-1.8-3.8-3.7-8-3.2-10.7c1-5,4.2-6.7,6.7-7.3c5.7-1.4,13.1,1.8,17.6,7.6c4,5.3,7,10.7,8.9,16.1h3.3
				C105.8,293.9,102.5,287.8,98,282z"/>
		</g>
	</g>
	<g>
		<g>
			<path d="M203.9,161.7c-0.1,0-0.1,0-0.2,0c-4.9-0.1-9-3.8-10.3-9.3l3-0.7c1,4,3.9,6.8,7.3,6.9c3.3,0,6.5-2.5,7.7-6.5l3,0.9
				C212.9,158.2,208.7,161.7,203.9,161.7z"/>
		</g>
	</g>
	<g>
		<g>
			<path d="M139.3,163c-4.4,0-8.5-3-10.4-7.8l2.9-1.1c1.5,3.9,4.9,6.2,8.2,5.8c3.4-0.4,6.1-3.4,6.7-7.5l3.1,0.4
				c-0.8,5.5-4.6,9.6-9.4,10.2C140.1,163,139.7,163,139.3,163z"/>
		</g>
	</g>
</g>
</svg>
