<?xml version="1.0" encoding="utf-8"?>
<!-- Generator: Adobe Illustrator 22.1.0, SVG Export Plug-In . SVG Version: 6.00 Build 0)  -->
<svg version="1.1" id="Layer_1" xmlns="http://www.w3.org/2000/svg" xmlns:xlink="http://www.w3.org/1999/xlink" x="0px" y="0px"
	 viewBox="0 0 300 300" style="enable-background:new 0 0 300 300;" xml:space="preserve">
<style type="text/css">
	.st0{fill:#FFFFFF;}
	.st1{fill:#FEAEBB;}
	.st2{fill:#F1C3C6;}
</style>
<rect class="st0" width="300" height="300"/>
<g>
	<g>
		<g>
			<path d="M282.5,300H92.2c0-0.1,0.1-0.2,0.1-0.3c1.3-3.4,2.7-6.6,3.9-9.7c17-42.4,10.6-60.5,10.6-60.5
				c-76.4-24.4-58.3-119.8-58.3-119.8s-7.4-37.1,0-39.2c7.4-2.1,23.3,5.3,32.9,13.8c0,0,44.5-18,79.5-25.5c0,0,12.7-24.4,22.3-24.4
				c9.5,0,12.7,38.2,12.7,38.2S263.9,224,282.5,300z"/>
		</g>
		<g>
			<path class="st1" d="M171.5,58.8C171.5,58.8,171.5,58.8,171.5,58.8c0.4-1.4,6.2-20.1,11.3-18.4c5.3,1.8,4.2,24,4.2,24L171.5,58.8
				z"/>
		</g>
		<g>
			<path class="st1" d="M55.9,102.7c0,0-7.1-26.2-2.1-27.2c4.9-1.1,20.1,15.2,20.1,15.2l-16.6,11.7"/>
		</g>
		<g>
			<g>
				<path class="st0" d="M150.5,121.8c-4,0-7.9-2.4-10.4-6.4l2.5-1.5c2.3,3.9,6.3,5.8,9.9,4.7c3.6-1,5.9-4.8,5.8-9.2l2.9-0.1
					c0.1,5.8-3.1,10.7-8,12.1C152.4,121.7,151.4,121.8,150.5,121.8z"/>
			</g>
		</g>
		<g>
			<g>
				<path class="st0" d="M101.3,138.8c-3.5,0-7.1-1.8-9.7-5l2.3-1.8c2.8,3.5,7,4.8,10.4,3.3c3.4-1.5,5.2-5.5,4.5-10l2.9-0.5
					c0.9,5.8-1.6,11-6.2,13.1C104.1,138.5,102.7,138.8,101.3,138.8z"/>
			</g>
		</g>
		<g>
			<path class="st0" d="M132.9,151.2c-3.5,0-7-1.9-9.1-5.1l2.4-1.6c1.9,3,5.4,4.4,8.5,3.6c1.6-0.4,3-1.4,4-2.8l0.7-1l1.1,0.5
				c1.6,0.7,3.3,0.9,4.9,0.4c3.1-0.8,5.4-3.8,5.6-7.3l2.9,0.2c-0.3,4.8-3.4,8.8-7.7,9.9c-1.9,0.5-3.8,0.4-5.7-0.2
				c-1.3,1.5-3,2.5-4.9,3C134.6,151.1,133.8,151.2,132.9,151.2z"/>
		</g>
		<g>
			<path class="st2" d="M138.9,126.5c0.4,1.8-4.7,4.3-4.7,4.3s-5.6-0.3-6-2.1c-0.4-1.8,1.7-3.7,4.7-4.3
				C135.9,123.8,138.5,124.7,138.9,126.5z"/>
		</g>
		<g>
			<g>
				<path class="st0" d="M162.6,300H92.2c0-0.1,0.1-0.2,0.1-0.3c1.3-3.4,2.7-6.6,3.9-9.7c17-42.4,10.6-60.5,10.6-60.5
					c-1.9-0.6-3.5-1.4-5.2-2.1c1-0.1,2-0.2,3-0.2c15.6-0.2,37.1,10.3,44.9,22C161.4,262.9,166.3,282.4,162.6,300z"/>
			</g>
		</g>
		<g>
			<path d="M197.3,72.3c-0.6-7.1-3.9-39.3-14.2-39.3c-9.6,0-20.9,20.1-23.2,24.6c-32,6.9-72,22.6-78.3,25
				C72,74.3,56.1,66.8,48.1,69.1c-8,2.3-2.9,31.3-1.1,40.7c-1,5.8-15.1,96.8,58.6,121c0.9,3.6,4,21.9-10.8,58.8l-1.5,3.7
				c-0.9,2.2-1.8,4.4-2.7,6.8h3.1c0.8-2,1.5-3.9,2.3-5.7l1.5-3.8c17-42.4,10.9-60.7,10.6-61.5l-0.2-0.7l-0.7-0.2
				c-0.9-0.3-1.8-0.6-2.7-0.9C33.5,202.2,49.8,111,49.9,110l0.1-0.3l-0.1-0.3c-3.5-17.3-4.7-36.5-1-37.6c0.7-0.2,1.6-0.3,2.5-0.3
				c7.3,0,20.3,6,29,13.8l0.7,0.6l0.8-0.3c0.4-0.2,44.8-18.1,79.3-25.4l0.7-0.1l0.3-0.6c3.4-6.6,13.9-23.6,21-23.6
				c5.7,0,10,21.5,11.3,36.8l0.1,0.5c0.4,0.8,19.2,42.9,39.7,93.5c18.4,45.4,38,97.7,46.8,133.3h3C266,226,200.3,79,197.3,72.3z"/>
		</g>
		<g>
			<g>
				<polygon class="st0" points="179.7,125.1 177.9,122.8 195.2,108.8 197,111.1 				"/>
			</g>
			<g>
				<polygon class="st0" points="185.8,143.4 185.6,140.5 207.8,139.3 208,142.2 				"/>
			</g>
			<g>
				
					<rect x="182.6" y="127.1" transform="matrix(0.9338 -0.3579 0.3579 0.9338 -33.2238 77.5445)" class="st0" width="20.6" height="2.9"/>
			</g>
		</g>
		<g>
			<g>
				<polygon class="st0" points="90.5,156.7 68.2,156.4 68.2,153.5 90.5,153.8 				"/>
			</g>
			<g>
				<polygon class="st0" points="78.7,187.7 77.1,185.3 95.3,172.5 97,174.9 				"/>
			</g>
			<g>
				
					<rect x="71.9" y="166.1" transform="matrix(0.9562 -0.2927 0.2927 0.9562 -45.4585 31.4019)" class="st0" width="20.5" height="2.9"/>
			</g>
		</g>
	</g>
</g>
</svg>
