<?xml version="1.0" encoding="utf-8"?>
<!-- Generator: Adobe Illustrator 22.1.0, SVG Export Plug-In . SVG Version: 6.00 Build 0)  -->
<svg version="1.1" id="Layer_1" xmlns="http://www.w3.org/2000/svg" xmlns:xlink="http://www.w3.org/1999/xlink" x="0px" y="0px"
	 viewBox="0 0 300 300" style="enable-background:new 0 0 300 300;" xml:space="preserve">
<style type="text/css">
	.st0{fill:#FFFFFF;}
	.st1{fill:#999999;}
	.st2{fill:#FFDADF;}
</style>
<rect class="st0" width="300" height="300"/>
<g>
	<g>
		<g>
			<path class="st0" d="M251.1,300l0.4-1.7l3.8-17.6l0.8-3.6c1.2,1.3,2.3,2.5,3.4,3.8c2.3,2.7,4.4,5.3,6.3,7.9
				c0.4,0.6,0.9,1.1,1.3,1.7c0,0,0.1,0.1,0.1,0.1v0c0.4,0.6,0.8,1.2,1.2,1.7c1.8,2.6,3.4,5.1,4.9,7.7H251.1z"/>
		</g>
		<g>
			<path d="M274.9,300c-1.9-3.3-4-6.6-6.4-9.9c-0.4-0.6-0.8-1.1-1.2-1.7c0,0,0-0.1-0.1-0.1c-0.4-0.6-0.9-1.1-1.3-1.7
				c-1.4-1.8-2.9-3.7-4.5-5.6c-1.4-1.6-2.8-3.2-4.2-4.8l-1.8-2l-1.4,6.4l-3.8,17.6l-0.4,1.8h2.9l0.4-1.7l3.8-17.6l0.2-0.7
				c0.2,0.2,0.4,0.5,0.6,0.7c3,3.4,5.7,6.8,8.2,10.2c0.4,0.6,0.8,1.1,1.2,1.7c0,0,0.1,0.1,0.1,0.1v0c0.4,0.6,0.8,1.2,1.2,1.7
				c1.2,1.8,2.4,3.7,3.5,5.5H274.9z"/>
		</g>
	</g>
	<g>
		<path class="st0" d="M267.2,288.4c0,0.7-0.1,1.5-0.1,2.2v0c-0.1,0.7-0.1,1.5-0.2,2.2v0c-0.2,2.4-0.4,4.8-0.7,7.2H71.8
			c-0.3,0.2-0.7,0.5-1,0.7c0-0.2,0-0.5,0.1-0.7c0-0.4,0.1-0.8,0.2-1.1h0c0.1-0.5,0.1-1,0.2-1.5c0.2-1.5,0.5-2.9,0.7-4.3
			c0.1-0.5,0.2-1,0.3-1.4c0.1-0.5,0.2-1,0.3-1.5c0.2-0.8,0.3-1.5,0.5-2.3c0-0.2,0.1-0.4,0.1-0.6c0.4-1.8,0.8-3.5,1.2-5.2
			c0.5-2.2,1.1-4.4,1.7-6.5c0.2-0.8,0.5-1.7,0.7-2.5c0.1-0.4,0.2-0.8,0.4-1.2c0.1-0.4,0.2-0.8,0.4-1.2c0.1-0.4,0.2-0.8,0.4-1.2
			c0.1-0.4,0.2-0.8,0.4-1.2c0.2-0.8,0.5-1.5,0.7-2.3c1-3,2-5.8,2.9-8.4c0.1-0.4,0.3-0.7,0.4-1.1c0.9-2.5,1.8-4.7,2.6-6.7
			c0.2-0.5,0.4-1.1,0.7-1.6c0.2-0.4,0.4-0.8,0.5-1.3c0.2-0.4,0.3-0.8,0.5-1.2c0,0,0,0,0-0.1c0.2-0.4,0.4-0.8,0.5-1.1
			c0.1-0.3,0.3-0.6,0.4-0.8c0.1-0.1,0.1-0.3,0.2-0.4c0.1-0.3,0.2-0.5,0.3-0.7c0-0.1,0.1-0.2,0.2-0.3c0.1-0.3,0.2-0.5,0.3-0.7
			c0.2-0.4,0.4-0.8,0.5-1c0.1-0.1,0.1-0.2,0.2-0.3c0,0,0-0.1,0.1-0.1l0,0c0-0.1,0.1-0.1,0.1-0.1c-0.2-0.4-0.5-0.7-0.7-1.1
			c-0.3-0.4-0.5-0.8-0.8-1.2c-10.1-16.5-16.4-38.1-20.2-57.6c-0.1-0.5-0.2-1.1-0.3-1.6v0c-5-26.3-5.7-48.4-5.7-48.4
			s-8.9-53.3,2.2-54.4c11.1-1.1,34.4,26.7,34.4,26.7s0.7-0.2,2.1-0.6c3.1-0.9,9.3-2.6,17.3-4.7c4.9-1.3,10.4-2.7,16.1-4.1
			c5.6-1.4,11.5-2.7,17.4-3.9c6.3-1.3,12.5-2.5,18.2-3.4c0,0,12.2-41.1,21.1-42.2c8.9-1.1,16.7,24.4,20,56.6c0,0,3.7,6.2,9.1,16.8
			c0.3,0.5,0.5,1,0.8,1.5v0C237.4,151.8,270.4,225.1,267.2,288.4z"/>
	</g>
	<g>
		<path class="st1" d="M68.1,116.7c0,0-5.6-31.1,1.1-28.9s17.8,20,17.8,20L68.1,116.7z"/>
	</g>
	<g>
		<path class="st1" d="M178.6,87.2c0,0,10.9-29.7,15.5-24.4c4.6,5.3,5.3,26.2,5.3,26.2L178.6,87.2z"/>
	</g>
	<g>
		<g>
			<path class="st1" d="M188.2,144.7c-4.6,1.6-7.1,6.7-5.5,11.3c1.3,3.7,4.7,6,8.4,6c1,0,1.9-0.2,2.9-0.5
				c15.3-5.3,27.3-13.9,36.2-22.4c-2.9-6.3-5.7-12-8.2-17C214.3,130.4,203.2,139.5,188.2,144.7z"/>
		</g>
		<g>
			<path class="st1" d="M185.5,186.3c0.7,4.4,4.4,7.6,8.8,7.6c0.4,0,0.9,0,1.3-0.1c1.6-0.2,28-4.2,51.2-14.6
				c-2.1-5.7-4.2-11.3-6.4-16.6c-17,7.7-38,12.2-47.5,13.6C188.2,177,184.8,181.5,185.5,186.3z"/>
		</g>
		<g>
			<path class="st1" d="M209.9,240.5c-4.7-1.5-9.7,1-11.2,5.6c-1.6,4.7,1,9.7,5.6,11.2c1,0.3,18.3,5.9,46,5.9
				c5.1,0,10.6-0.2,16.3-0.7c-0.5-5.9-1.2-11.7-2.1-17.6C231.7,247.4,210.5,240.7,209.9,240.5z"/>
		</g>
		<g>
			<path class="st1" d="M193.5,282.7c-0.8,4.8,2.5,9.4,7.3,10.2c1.9,0.3,32.3,5.1,65.4,6c0.7-5.8,1.1-11.7,1.1-17.7
				c-32.5-0.8-63.2-5.7-63.6-5.8C198.9,274.6,194.3,277.8,193.5,282.7z"/>
		</g>
		<g>
			<path class="st1" d="M196.4,300H189C191.4,298.9,194.1,298.9,196.4,300z"/>
		</g>
		<g>
			<path class="st1" d="M116,138c1.3,0,2.7-0.3,4-0.9c4.4-2.2,6.2-7.5,4-11.9c-3.5-6.9-5.4-17.4-6.4-28.2c-8,2.1-14.3,3.8-17.3,4.7
				c1.3,11.4,3.6,22.9,7.9,31.4C109.6,136.2,112.8,138,116,138z"/>
		</g>
		<g>
			<path class="st1" d="M157.6,128.4c2.4,0,4.7-0.9,6.5-2.8c3.4-3.6,3.2-9.2-0.4-12.5c-7.3-6.8-10.9-15.5-12.6-24.1
				c-5.8,1.2-11.7,2.6-17.4,3.9c2.4,11.5,7.5,23.4,17.8,33.1C153.2,127.6,155.4,128.4,157.6,128.4z"/>
		</g>
	</g>
	<g>
		<g>
			<path d="M143.3,148c0.3,1.9-5.3,4.4-5.3,4.4s-6.1-0.7-6.4-2.6c-0.3-1.9,2.1-3.9,5.3-4.4C140.1,144.9,143,146.1,143.3,148z"/>
		</g>
		<g>
			<g>
				<path d="M131.7,168.8c-4.5,0-8.7-3.9-10.7-9.9l2.7-0.9c1.7,5.1,5.2,8.4,8.6,7.9c1.9-0.2,3.6-1.6,4.8-3.9l0.9-1.8l1.3,1.5
					c1.7,1.9,3.7,2.9,5.7,2.6c3.4-0.4,6-4.5,6.4-9.8l2.8,0.2c-0.5,6.8-4,11.8-8.8,12.4c-2.3,0.3-4.7-0.5-6.8-2.2
					c-1.6,2.2-3.7,3.5-6,3.8C132.3,168.8,132,168.8,131.7,168.8z"/>
			</g>
		</g>
		<g>
			<g>
				<path d="M164,142.3c-4.2,0-8-1.9-10.1-5.1l2.3-1.5c2,3.1,6.2,4.5,10.4,3.5c4.2-1,7.3-4.1,7.8-7.7l2.8,0.4
					c-0.6,4.8-4.6,8.9-10,10.1C166.2,142.2,165.1,142.3,164,142.3z"/>
			</g>
		</g>
		<g>
			<g>
				<path d="M108.8,152.5c-4.2,0-8-1.9-10.1-5.1l2.4-1.5c2,3.1,6.2,4.5,10.4,3.5c4.2-1,7.3-4.1,7.8-7.7l2.8,0.4
					c-0.6,4.8-4.6,8.9-10,10.1C110.9,152.4,109.9,152.5,108.8,152.5z"/>
			</g>
		</g>
	</g>
	<g>
		<path class="st2" d="M112.6,157.7c0.6,2.6-2.6,5.5-7.2,6.5c-4.5,1-8.7-0.3-9.2-2.9c-0.6-2.6,2.6-5.5,7.2-6.5
			C107.9,153.8,112.1,155.1,112.6,157.7z"/>
	</g>
	<g>
		<path class="st2" d="M187.1,141c0.6,2.6-2.6,5.5-7.2,6.5c-4.5,1-8.7-0.3-9.2-2.9c-0.6-2.6,2.6-5.5,7.2-6.5
			C182.4,137.2,186.5,138.4,187.1,141z"/>
	</g>
	<g>
		<g>
			<polygon points="220.9,119.2 219.2,117 236.5,103.5 238.3,105.8 			"/>
		</g>
		<g>
			<rect x="222.8" y="117.7" transform="matrix(0.8964 -0.4433 0.4433 0.8964 -28.5747 115.8928)" width="21.5" height="2.8"/>
		</g>
		<g>
			<polygon points="227.2,131.4 226.8,128.6 247.6,125.4 248,128.2 			"/>
		</g>
	</g>
	<g>
		<g>
			<rect x="46.4" y="181.9" transform="matrix(0.9064 -0.4224 0.4224 0.9064 -72.0509 41.3736)" width="22" height="2.8"/>
		</g>
		<g>
			<polygon points="44.2,178.6 43.5,175.8 64.5,170.9 65.1,173.6 			"/>
		</g>
		<g>
			<polygon points="63.1,167 42.1,165.4 42.3,162.6 63.3,164.2 			"/>
		</g>
	</g>
	<g>
		<path class="st2" d="M175.2,268.2c-0.1,1.1-0.2,2.2-0.3,3.3c-0.1,0.9-0.2,1.7-0.3,2.5c-1.1,8.8-3.3,17.6-6.4,25.9h-43
			c-8.6-17.9-14.4-41.3-16.3-50.4c-1.3-6.1-2.2-12.5-0.8-18.5c1.4-6.1,5.7-11.8,11.8-13.3c4.3-1,8.9,0.2,13.2-0.6
			c7.3-1.3,13.1-8.1,20.5-8.3c4.9-0.1,9.5,2.8,12.5,6.7c1.8,2.3,3,5,4,7.7c0.2,0.5,0.4,1,0.5,1.4c0.2,0.5,0.3,1,0.5,1.5
			c0.3,0.9,0.5,1.8,0.8,2.8C175.1,241.9,176.2,255.1,175.2,268.2z"/>
	</g>
	<g>
		<path d="M228.1,131.2c-0.4-0.9-0.8-1.8-1.3-2.7c-0.6-1.3-1.2-2.5-1.8-3.7c-0.4-0.9-0.8-1.7-1.2-2.5c-0.7-1.3-1.3-2.6-1.9-3.8
			c-0.5-0.9-0.9-1.7-1.3-2.5c-4.7-9.2-8.1-15-8.9-16.3c-2.4-22.7-7.9-49.2-16.4-55.9c-1.6-1.3-3.4-1.9-5.1-1.7
			c-9,1.1-19.4,33.7-22,42.3c-26.3,4.1-63.3,14.6-69.5,16.3c-4.3-5-24.2-27.4-35-26.5c-1.4,0.1-2.6,0.9-3.6,2.1
			c-7.1,9.2-0.6,49.4,0.1,53.7c0,0.3,0.7,18.5,4.5,41.4c0,0,0,0,0,0.1c0.1,0.7,0.2,1.4,0.3,2.1c0.2,1.4,0.5,2.8,0.8,4.2
			c0.2,0.9,0.4,1.9,0.5,2.8c3.9,19.6,10.2,41.2,20.2,57.6c0.2,0.4,0.5,0.8,0.8,1.2c0.1,0.2,0.2,0.4,0.3,0.5
			c-0.2,0.3-0.3,0.7-0.5,1.2c-3.2,6.7-13.8,30.6-17.5,58.5c0,0.1,0,0.1,0,0.2h1.3c0,0.2-0.1,0.4-0.1,0.7c0.3-0.2,0.7-0.4,1-0.7h0.5
			c0-0.2,0-0.3,0.1-0.5c0.1-0.7,0.2-1.3,0.3-2c4.7-31.1,17.6-56.5,17.8-56.9l0.4-0.7l-0.3-0.5l-0.2-0.2c-0.2-0.3-0.4-0.6-0.6-1
			c-0.3-0.4-0.5-0.8-0.8-1.2c-23.7-38.5-26.1-106.4-26.2-107.2c-2-12-6-44.7-0.7-51.7c0.5-0.6,1-1,1.6-1c0.2,0,0.4,0,0.6,0
			c8.7,0,26.4,18.8,32.7,26.2l0.6,0.7l0.9-0.3c0,0,0.7-0.2,1.8-0.5c3-0.8,9.3-2.6,17.3-4.7c4.9-1.3,10.5-2.7,16.3-4.1
			c5.6-1.4,11.5-2.7,17.3-3.9c6.3-1.3,12.5-2.5,18.1-3.4l0.9-0.1l0.2-0.9c4.6-15.5,14.1-40.5,19.9-41.2c1-0.1,2,0.2,3,1.1
			c6.5,5.1,12.5,26.5,15.4,54.3l0.2,0.6c0.2,0.3,5.1,8.7,12,22.4c2.5,5,5.2,10.7,8.1,16.9c3.2,7.1,6.6,14.8,10,23.2
			c2.2,5.3,4.3,10.8,6.4,16.5c7.3,20.2,13.9,42.7,17.5,65.3c1,5.9,1.7,11.8,2.2,17.6c0.5,6.2,0.8,12.3,0.8,18.4
			c0,1.8-0.1,3.6-0.1,5.4c0,0.7-0.1,1.5-0.1,2.2c0,0.7-0.1,1.5-0.1,2.2c-0.2,2.7-0.4,5.3-0.7,7.9c0,0.4-0.1,0.8-0.1,1.1h2.8
			c0.2-1.8,0.4-3.6,0.6-5.5c0.1-0.7,0.1-1.5,0.2-2.2c0.1-0.8,0.1-1.5,0.2-2.3C271.8,233.8,246,169,228.1,131.2z M90.6,239.4
			c-0.5,0.2-0.9,0.5-1.4,0.7l0,0c0,0,0,0.1-0.1,0.1c0,0.1-0.1,0.2-0.2,0.3c-0.1,0.3-0.3,0.6-0.5,1c-0.1,0.2-0.2,0.5-0.3,0.7
			c0,0.1-0.1,0.2-0.2,0.3c-0.1,0.2-0.2,0.5-0.3,0.7c-0.1,0.1-0.1,0.3-0.2,0.4c-0.1,0.3-0.2,0.5-0.4,0.8c-0.2,0.4-0.3,0.7-0.5,1.1
			c0,0,0,0,0,0.1c-0.2,0.4-0.3,0.8-0.5,1.2c-0.2,0.4-0.4,0.8-0.5,1.3c-0.2,0.5-0.4,1-0.7,1.6c-0.8,2-1.7,4.2-2.6,6.7
			c-0.1,0.4-0.3,0.7-0.4,1.1c-1,2.6-1.9,5.4-2.9,8.4c-0.2,0.8-0.5,1.5-0.7,2.3c-0.1,0.4-0.2,0.8-0.4,1.2c-0.1,0.4-0.2,0.8-0.4,1.2
			c-0.1,0.4-0.2,0.8-0.4,1.2c-0.1,0.4-0.2,0.8-0.4,1.2c-0.2,0.8-0.5,1.7-0.7,2.5c-0.6,2.1-1.1,4.3-1.7,6.5c-0.4,1.7-0.8,3.4-1.2,5.2
			c0,0.2-0.1,0.4-0.1,0.6c-0.1,0.8-0.3,1.5-0.5,2.3c-0.1,0.5-0.2,1-0.3,1.5c-0.1,0.5-0.2,1-0.3,1.4c-0.2,1.4-0.5,2.9-0.7,4.3
			c-0.1,0.5-0.1,1-0.2,1.5c0.6-0.4,1.1-0.8,1.7-1.3c4.7-31.1,17.6-56.5,17.8-56.9l0.4-0.7L90.6,239.4z"/>
	</g>
	<g>
		<path class="st0" d="M108.2,261.5c-7.9,1.2-15.2,5.6-19.8,12c-4.5,6.2-6.4,14-10.6,20.4c-1.4,2.1-3.2,4.1-5.3,5.7
			c-0.2,0.2-0.4,0.3-0.6,0.5c-0.3,0.2-0.7,0.5-1,0.7c0-0.2,0-0.5,0.1-0.7H55.5c-2.4-2.3-3.8-5.7-4.2-9.1c-0.5-4.6,0.8-9.2,2.4-13.5
			c6.2-16.1,18.4-29.8,33.6-37.9c0.4-0.2,0.8-0.4,1.2-0.6c0.4-0.2,0.8-0.4,1.3-0.6c0.1,0,0.1-0.1,0.2-0.1l17.2,22.1L108.2,261.5z"/>
	</g>
	<g>
		<path d="M57.7,300h-4.1c-2-2.4-3.3-5.5-3.7-9c-0.5-5.3,1.1-10.3,2.5-14.1c6.3-16.4,18.6-30.3,34.1-38.6c0.4-0.2,0.8-0.4,1.2-0.7
			c0.4-0.2,0.8-0.4,1.3-0.6c0.1-0.1,0.2-0.1,0.4-0.2l0.6,1.3l0.6,1.3c0,0,0,0,0,0c-0.5,0.2-0.9,0.5-1.4,0.7
			c-0.7,0.4-1.4,0.7-2.1,1.1C72.5,249.2,61,262.4,55,278c-2,5.2-2.7,9.2-2.3,12.8C53.1,294.6,55,298.1,57.7,300z"/>
		<path d="M108.4,262.9c-7.4,1.1-14.5,5.4-18.8,11.5c-2.3,3.2-3.8,6.7-5.5,10.4c-1.5,3.3-3,6.8-5.1,9.9c-1.3,2-3,3.8-4.8,5.3h-2.3
			c-0.3,0.2-0.7,0.5-1,0.7c0-0.2,0-0.5,0.1-0.7h-1.7c0.1-0.1,0.3-0.1,0.4-0.2c0.5-0.3,1-0.6,1.4-0.9h0c0.6-0.4,1.1-0.8,1.7-1.3
			c1.5-1.3,2.8-2.8,3.9-4.4c1.9-2.9,3.4-6.3,4.8-9.5c1.7-3.7,3.4-7.5,5.8-10.9c4.7-6.6,12-11.1,19.9-12.5c0.3-0.1,0.5-0.1,0.8-0.1
			L108.4,262.9z"/>
	</g>
	<g>
		<g>
			<path class="st0" d="M185.6,214.1c-12.3,6.6-22.6,16.9-29.3,29.1c-3.8,6.9-6.4,15-4.1,22.5c2.3,7.5,11.3,13.2,18.3,9.6
				c4.1-2.1,6.4-6.7,7.5-11.3c1.1-4.5,1.2-9.3,2.5-13.8c3.4-12,15.6-21,28.1-20.5c-1-0.1-2-0.1-3.1-0.2L185.6,214.1z"/>
		</g>
		<g>
			<path d="M165.9,277.9c-1.8,0-3.6-0.4-5.4-1.1c-4.5-1.9-8.2-6-9.7-10.5c-2.1-6.7-0.7-14.7,4.2-23.6c6.8-12.4,17.4-23,29.8-29.7
				l1.3,2.5c-12,6.5-22.2,16.6-28.7,28.6c-4.5,8.2-5.8,15.5-4,21.4c1.2,3.8,4.3,7.2,8.1,8.8c2.9,1.2,5.8,1.2,8.2,0
				c4.3-2.2,6.1-7.4,6.8-10.3c0.5-2,0.8-4.1,1.1-6.1c0.4-2.5,0.7-5.1,1.4-7.7c3.3-11.8,14.4-20.6,26.5-21.5l0-0.2l3.1,0.2l-0.1,2.8
				c-11.9-0.4-23.5,8.2-26.7,19.5c-0.7,2.4-1,4.8-1.4,7.3c-0.3,2.1-0.6,4.3-1.1,6.4c-1.4,5.8-4.3,10.2-8.2,12.2
				C169.6,277.4,167.8,277.9,165.9,277.9z"/>
		</g>
	</g>
</g>
</svg>
