<?xml version="1.0" encoding="utf-8"?>
<!-- Generator: Adobe Illustrator 22.1.0, SVG Export Plug-In . SVG Version: 6.00 Build 0)  -->
<svg version="1.1" id="Layer_1" xmlns="http://www.w3.org/2000/svg" xmlns:xlink="http://www.w3.org/1999/xlink" x="0px" y="0px"
	 viewBox="0 0 300 300" style="enable-background:new 0 0 300 300;" xml:space="preserve">
<style type="text/css">
	.st0{fill:#FFFFFF;}
	.st1{fill:#F6AF55;}
	.st2{fill:#FFE0B1;}
</style>
<rect class="st0" width="300" height="300"/>
<g>
	<g>
		<path class="st0" d="M13.9,300c-1.1-10.3-1.9-21.2-2.3-32.8c-0.1-2.5-0.2-5-0.2-7.5C10,136.4,95.2,83.2,95.2,83.2
			s9.8-48.7,22.6-40.1c12.9,8.5,16.3,33.7,16.3,33.7s62.1,4.6,110.6,58c0,0,28.2-3.8,35,0c6.8,3.8-18.1,35.4-18.1,35.4
			s-10.9,12.9-11.3,45.5c0,0.9,0,1.8,0,2.7c0,0.9,0,1.7,0,2.6c0,0,0,0,0,0c0.2,8.3,1,17.7,2.8,28.3c0.8,4.7,1.8,9.8,2.9,15.3
			c0.1,0.5,0.2,1.1,0.3,1.6c0.1,0.5,0.2,1,0.3,1.6c0.1,0.5,0.2,1,0.3,1.6c0.4,1.8,0.8,3.6,1.1,5.5c0.3,1.5,0.6,3,0.9,4.6
			c0.2,1,0.4,2,0.6,3c0.1,0.6,0.2,1.3,0.4,1.9c0.4,1.9,0.7,3.7,1.1,5.6c0,0,0,0,0,0c0.5,2.4,0.9,4.8,1.3,7.2c0.2,1,0.3,2,0.5,3H13.9
			z"/>
	</g>
	<g>
		<path d="M166.9,140.5c-1.5,2.6-10.6,0.1-10.6,0.1s-6.6-6.8-5.1-9.4c1.5-2.6,6.3-2.6,10.6-0.1C166.2,133.7,168.5,137.9,166.9,140.5
			z"/>
	</g>
	<g>
		<g>
			<path d="M155.5,166c-1.3,0-2.6-0.3-3.7-1c-2-1.2-3.3-3.3-3.8-6.1c-2.7,0.9-5.1,0.8-7.1-0.3c-4.2-2.5-5.1-9-2.3-16.3l2.9,1.1
				c-2.2,5.6-1.7,10.9,1,12.5c2.1,1.2,4.7,0.1,6.2-0.7l2.3-1.3l0,2.6c0,1.6,0.3,4.5,2.4,5.7c2.7,1.6,7.5-0.6,11.4-5.1l2.4,2
				C163.5,163.6,159.2,166,155.5,166z"/>
		</g>
	</g>
	<g>
		<path d="M87.2,250.8c-8.5,0-17.4-3.8-24.8-10.8c-8.1-7.7-13.4-18-17.7-27.1c-0.4-0.9-0.9-1.9-1.2-2.9l3-1c0.3,0.9,0.7,1.7,1.1,2.5
			c4.4,9.2,9.3,18.8,17,26.1c8.1,7.7,18.7,11.3,27.7,9.4c6.2-1.3,12.4-6.5,12.2-12.7c-0.1-1.8-0.6-3.7-1.8-5.9
			c-3-6-8.1-10.8-13-15.5c-1.3-1.2-2.5-2.4-3.7-3.6c-5.2-5.3-12.3-13.4-12.7-23.3l3.1-0.2c0.4,8.8,6.9,16.3,11.8,21.2
			c1.2,1.2,2.4,2.4,3.7,3.6c5.1,4.9,10.3,9.9,13.6,16.4c1.3,2.6,2,5,2.1,7.2c0.3,8.2-7.3,14.3-14.6,15.9
			C91,250.6,89.1,250.8,87.2,250.8z"/>
	</g>
	<g>
		<path d="M106,84.3c0,0,3.5-32.9,6.9-30.9c3.4,2.1,12.7,23.3,12.7,23.3L106,84.3z"/>
	</g>
	<g>
		<path d="M244.6,144.1c0,0,32.6-5.9,31.6-2.1c-1,3.8-18.8,18.8-18.8,18.8L244.6,144.1z"/>
	</g>
	<g>
		<g>
			<path d="M137.2,126.7c-1.7,0-3.5-0.3-5.2-1.1c-5.2-2.2-8.4-7.4-7.9-12.8l3.1,0.3c-0.4,4.1,2.1,8,6,9.7c3.9,1.7,8.4,0.7,11.1-2.4
				l2.4,2.1C144.3,125.2,140.8,126.7,137.2,126.7z"/>
		</g>
	</g>
	<g>
		<g>
			<path d="M190.8,157.2c-1.8,0-3.5-0.4-5.2-1.1c-5.2-2.2-8.4-7.4-7.9-12.8l3.1,0.3c-0.4,4.1,2.1,8,6,9.7c3.9,1.7,8.4,0.7,11.1-2.4
				l2.4,2.1C197.9,155.7,194.4,157.2,190.8,157.2z"/>
		</g>
	</g>
	<g>
		<g>
			<path class="st1" d="M89.6,288.1c7.8-0.2,13.9-6.7,13.7-14.5c-0.2-7.8-6.7-14.2-14.5-13.7c-35.6,1-63.4-13.5-76.6-22
				c-0.7,9.3-0.9,19.1-0.5,29.4c0,1,0.1,2,0.2,3c17.5,8.9,42.7,17.9,73.2,17.9C86.5,288.2,88.1,288.2,89.6,288.1z"/>
		</g>
		<g>
			<path class="st1" d="M201.5,264.6c-7.1-3.2-15.4-0.1-18.6,7c-3.3,7.1-0.2,15.5,6.9,18.7c1.1,0.5,18.8,8.4,48.9,8.4
				c7.2,0,15.2-0.5,23.8-1.6c-1.7-9.8-3.6-19.1-5.4-27.8C222.6,273.4,202.1,264.8,201.5,264.6z"/>
		</g>
		<g>
			<path class="st1" d="M145.1,88.4c-4.5,2.6-6,8.4-3.3,12.9c1.8,3,4.9,4.6,8.1,4.6c1.6,0,3.3-0.4,4.8-1.3
				c6.5-3.8,12.4-10.7,17.5-18.4c-7-2.6-13.4-4.5-18.9-5.8C150.6,83.9,147.9,86.8,145.1,88.4z"/>
		</g>
		<g>
			<path class="st1" d="M183.3,103.1c-4.5,2.6-6.1,8.3-3.5,12.8c1.7,3,4.9,4.7,8.2,4.7c1.6,0,3.2-0.4,4.7-1.2
				c5.5-3.1,11-8.6,16.1-15c-5.6-3.6-11.1-6.7-16.5-9.5C189.1,98.6,186.1,101.5,183.3,103.1z"/>
		</g>
		<g>
			<path class="st1" d="M215.2,134.4c1.8,2.6,4.8,4,7.7,4c1.9,0,3.7-0.5,5.4-1.7c1.3-0.9,5.3-3.8,10.6-8c-4.6-4.7-9.4-9-14.1-12.8
				c-2.8,2.2-5.3,4.1-7.2,5.4C213.2,124.3,212.2,130.2,215.2,134.4z"/>
		</g>
	</g>
	<g>
		<path d="M191.2,96.2c5.4,2.7,11,5.9,16.6,9.5c5.2,3.3,10.5,7.1,15.7,11.3c4.8,3.8,9.6,8.1,14.2,12.8c2,2,3.9,4,5.9,6.2l0.5,0.6
			l0.8-0.1c7.7-1,28.9-3.1,34-0.2c0.1,0,0.2,0.1,0.3,0.5c1,4.9-11,22.5-18.8,32.5c-0.6,0.7-10.7,13.2-11.6,43.9c0,1,0,1.9,0,2.9
			c0,0.9,0,1.8,0,2.8c0.1,8.9,0.9,19,2.8,30.7c0.8,4.6,1.8,9.6,2.9,15c0.1,0.5,0.2,1.1,0.3,1.6c0.1,0.5,0.2,1.1,0.3,1.6
			c0.1,0.6,0.2,1.2,0.4,1.8c0.1,0.3,0.1,0.6,0.2,0.8c1.8,8.4,3.7,17.5,5.3,27c0.2,0.9,0.3,1.8,0.5,2.8h3.2
			c-1.7-10.7-3.9-20.9-5.8-30.4c-0.1-0.7-0.3-1.3-0.4-2c-0.1-0.5-0.2-1-0.3-1.5c-0.1-0.5-0.2-1.1-0.3-1.6c-1.2-5.5-2.2-10.8-3-15.6
			c-1.6-9.7-2.4-18.4-2.7-26.1c0,0,0,0,0,0c0-0.8-0.1-1.7-0.1-2.5c0,0,0,0,0,0c0-0.9,0-1.7,0-2.5c0-33,10.8-46.5,11-46.7
			c2.2-2.8,21.1-27.1,19.5-35.1c-0.2-1.2-0.9-2.1-1.9-2.7c-6.6-3.7-29.8-1-35.1-0.3c-44.5-48.6-100.8-56.8-109.9-57.8
			c-0.9-5.3-5-25.8-16.8-33.6c-2.1-1.4-4.3-1.6-6.5-0.7C101.9,45.3,95,76.3,93.8,82.2c-3.7,2.4-24,16.6-43.6,43.8
			C30.4,153.5,7.4,200.4,10,267.3c0.5,11.5,1.2,22.4,2.3,32.7h3.2c-1-9.2-1.7-18.8-2.1-29c-0.1-1.3-0.1-2.6-0.2-3.9
			c-0.4-9.9-0.2-19.3,0.4-28.4C21.3,132.5,95.2,85.1,96,84.5l0.6-0.4l0.1-0.7c2-9.9,8.9-36.3,16.7-39.6c0.5-0.2,0.9-0.3,1.4-0.3
			c0.7,0,1.4,0.2,2.2,0.8c12.1,8,15.5,32.4,15.6,32.6l0.2,1.3l1.3,0.1c0.2,0,7.3,0.6,18.3,3.3c5.5,1.4,11.9,3.2,19,5.8
			C177.5,89.8,184.2,92.6,191.2,96.2z M253.2,249.2c-1.8-10.6-2.6-20-2.8-28.3c0,0,0,0,0,0c-0.2-0.3-0.5-0.5-0.7-0.8
			c-0.1-0.1-0.2-0.3-0.3-0.4c-0.2-0.3-0.4-0.6-0.6-0.8c0.1,8.9,0.9,19,2.8,30.7c0.8,4.6,1.8,9.6,2.9,15c0.5,0,1.1,0.1,1.6,0.1
			C255,259.1,254,253.9,253.2,249.2z"/>
	</g>
	<g>
		<g>
			<path class="st0" d="M244.1,202.9c0.4,8.7,6.1,16.1,12.3,22.2c6.1,6.1,13,11.8,17,19.5c1,2.1,1.9,4.3,2,6.6
				c0.3,7.1-6.5,12.8-13.4,14.3c-10.4,2.3-21.4-2.4-29.1-9.8c-7.7-7.3-12.8-17-17.3-26.6c-0.5-1.1-1-2.3-1.4-3.5L244.1,202.9z"/>
		</g>
		<g>
			<path d="M256.5,267.7c-8.5,0-17.4-3.8-24.8-10.8c-8.1-7.6-13.1-17.6-17.7-27.1c-0.6-1.2-1.1-2.4-1.5-3.7l3.1-0.8
				c0.3,1.1,0.8,2.2,1.3,3.2c4.4,9.2,9.3,18.9,17,26.1c8.1,7.7,18.7,11.3,27.7,9.4c6.2-1.3,12.4-6.5,12.2-12.7
				c-0.1-1.8-0.7-3.7-1.8-5.9c-3-6-8.1-10.8-13-15.5c-1.3-1.2-2.5-2.4-3.7-3.6C250,221,243,212.9,242.5,203l3.1-0.2
				c0.4,8.8,6.9,16.3,11.8,21.2c1.2,1.2,2.4,2.4,3.7,3.6c5.1,4.9,10.3,9.9,13.6,16.3c1.4,2.7,2,5,2.1,7.2
				c0.3,8.2-7.3,14.3-14.6,15.9C260.4,267.5,258.4,267.7,256.5,267.7z"/>
		</g>
	</g>
	<g>
		<path class="st2" d="M198.1,170.3c-1.1,1.8-5.1,1.3-8.8-1.1c-3.7-2.4-5.8-5.8-4.7-7.6c1.1-1.8,5.1-1.3,8.8,1.1
			C197.2,165.1,199.3,168.5,198.1,170.3z"/>
	</g>
	<g>
		<path class="st2" d="M119.4,128.7c-1.1,1.8-5.1,1.3-8.8-1.1c-3.7-2.4-5.8-5.8-4.7-7.6c1.1-1.8,5.1-1.3,8.8,1.1
			C118.4,123.5,120.5,126.9,119.4,128.7z"/>
	</g>
	<g>
		<g>
			<rect x="202.8" y="170" transform="matrix(0.3845 -0.9231 0.9231 0.3845 -43.5504 301.5354)" width="3.2" height="26.9"/>
		</g>
		<g>
			<polygon points="209.1,201.9 187.4,187.2 189.1,184.6 210.9,199.3 			"/>
		</g>
		<g>
			<polygon points="198.2,214 182.3,193.8 184.8,191.8 200.7,212 			"/>
		</g>
	</g>
	<g>
		<g>
			<polygon points="105.3,136 84.8,118.8 86.8,116.4 107.4,133.6 			"/>
		</g>
		<g>
			<polygon points="100.6,143 77.4,130.5 78.9,127.7 102.1,140.2 			"/>
		</g>
		<g>
			<polygon points="97.1,150.5 71.8,145.7 72.4,142.6 97.7,147.4 			"/>
		</g>
	</g>
</g>
</svg>
