<?xml version="1.0" encoding="utf-8"?>
<!-- Generator: Adobe Illustrator 22.1.0, SVG Export Plug-In . SVG Version: 6.00 Build 0)  -->
<svg version="1.1" id="Layer_1" xmlns="http://www.w3.org/2000/svg" xmlns:xlink="http://www.w3.org/1999/xlink" x="0px" y="0px"
	 viewBox="0 0 880 640" style="enable-background:new 0 0 880 640;" xml:space="preserve">
<style type="text/css">
	.st0{fill:#111111;}
	.st1{fill:#FFFFFF;}
	.st2{fill:#FDE880;}
	.st3{fill:#EEEEEE;}
	.st4{fill:#E1B14B;}
	.st5{fill:#767676;}
	.st6{fill:#FDA004;}
	.st7{fill:#FDC427;}
	.st8{fill:#4F2748;}
	.st9{fill:#DDEDF3;}
	.st10{fill:#FD9E58;}
	.st11{fill:#FDC604;}
	.st12{fill:#FDEC00;}
</style>
<path class="st0" d="M838.5,584.6c0,8-178,14.5-397.6,14.5s-397.6-6.5-397.6-14.5s178-14.5,397.6-14.5S838.5,576.6,838.5,584.6z"/>
<g>
	<path class="st1" d="M162.3,266.9c5.2-1,10.5-1.3,15.9-1c42,2.4,69.8,39.6,75.7,75c2.1,13,2.3,26.3,2.2,39.9
		c0,7.9-0.2,15.5-0.4,22.7l337.5-8.4c-0.1-4.6-0.1-9.4-0.2-14.3c0-13.6,0.1-27,2.2-39.9c5.8-35.4,33.7-72.6,75.7-75
		c6.7-0.4,13.3,0.2,19.6,1.8h0.1c0,0,0,0,0.1,0c0.7,0.2,1.4,0.4,2,0.6c1.4-14.9,2.4-30.2,2.3-45.9c-0.2-17.3-1.9-35.1-6.7-52.5
		s-12.8-34.2-24.6-48.9c-5.9-7-12.4-14-20-19.7c-3.6-3.1-7.7-5.6-11.6-8.4c-2-1.3-4.1-2.5-6.2-3.7c-2.1-1.2-4.1-2.5-6.3-3.5
		l-6.5-3.3c-2.2-1.1-4.4-2-6.6-3c-4.4-2.1-9-3.7-13.6-5.5c-9.2-3.3-18.6-6.3-28.3-8.7c-19.2-5-39-8.3-58.9-11.1
		c-20-2.7-40.1-4.8-60.3-6.1c-40.3-2.6-80.9-2-120.4,3c-19.7,2.5-39.2,6.1-58,10.9c-4.7,1.3-9.4,2.6-14.1,3.9
		c-4.6,1.3-9.2,2.8-13.6,4.4c-8.9,3.3-17.5,7.3-25.5,12.2c-16,9.6-29.6,22.8-38.7,38.1c-9.4,15.4-14.2,32.7-15.8,49.8
		c-1.7,17.1-0.7,34,0.3,50.3C160.7,236.5,161.5,252,162.3,266.9z"/>
	<path class="st1" d="M119,297.8c45.9,2.6,83.3,47.3,83.3,99.6V446l46.6-41.8c0.4-0.3,0.9-0.5,1.4-0.6h1c0.2-7.3,0.3-14.8,0.4-22.8
		c0-13.4-0.1-26.6-2.1-39.2c-5.6-33.7-31.9-69.1-71.6-71.4c-6.3-0.4-12.4,0.2-18.3,1.7c-15.5,7.8-34.8,17.6-51.1,26.1
		C111.9,297.7,115.4,297.6,119,297.8z"/>
	<path class="st1" d="M689.5,271.9L689.5,271.9c-6-1.5-12.1-2.1-18.4-1.7c-39.7,2.3-66.1,37.7-71.6,71.4
		c-2.1,12.6-2.2,25.8-2.1,39.2c0,5.3,0.1,10.3,0.2,15.3l75.7,53.7v-52.4c0-52.3,37.4-97,83.3-99.6c1.3-0.1,2.6-0.1,3.9-0.1
		C733.4,287.9,692.7,273.1,689.5,271.9z"/>
	<path class="st0" d="M834.3,381.7c0-0.1,0-0.2,0-0.3c-0.1-36.9-19.2-68.1-49.6-79.4c-6.5-2.4-59.3-21.6-82.7-30.1
		c-1.6-0.8-3.3-1.5-5.1-2.1c1.5-15.3,2.6-31.1,2.4-47.4c-0.2-17.5-1.9-35.7-6.8-53.6c-4.9-17.8-13.3-35.4-25.3-50.4
		c-6.3-7.5-12.9-14.6-20.8-20.5c-3.7-3.2-7.9-5.8-11.9-8.6c-2.1-1.3-4.2-2.5-6.3-3.8s-4.2-2.5-6.5-3.6l-6.6-3.4
		c-2.2-1.1-4.5-2-6.8-3.1c-4.5-2.1-9.2-3.8-13.8-5.6c-9.4-3.3-18.9-6.4-28.7-8.8c-19.4-5.1-39.4-8.4-59.4-11.2
		c-20.1-2.7-40.3-4.8-60.6-6.1c-40.6-2.6-81.4-2-121.2,3c-19.9,2.5-39.4,6.1-58.6,11c-4.7,1.3-9.4,2.6-14.1,3.9
		c-4.8,1.3-9.4,2.9-14,4.6c-9.2,3.4-18,7.5-26.3,12.5c-16.5,10-30.6,23.6-40.2,39.7c-4.8,7.9-8.5,16.5-11.2,25.2s-4.3,17.6-5.2,26.4
		c-1.8,17.6-0.7,34.7,0.3,51.1c1.2,16.3,1.9,32,2.7,47.1c0,0,0,0-0.1,0c-5.7,2.9-41.4,20.9-65.1,33.4c-7.6,2.6-14.8,6.5-21.2,11.6
		c-0.1,0-0.1,0.1-0.2,0.1c-0.3,0.2-0.5,0.4-0.7,0.6c-0.9,0.7-1.7,1.4-2.5,2.2c-0.4,0.4-0.9,0.8-1.3,1.2c-0.7,0.7-1.4,1.4-2.1,2.1
		c-0.4,0.5-0.9,0.9-1.3,1.4l-0.1,0.1c-0.3,0.4-0.6,0.7-0.9,1.1c-2.6,3-5,6.1-7.1,9.5c-0.1,0.1-0.2,0.3-0.3,0.4
		c-0.7,1.1-1.4,2.3-2.1,3.5c-0.1,0.2-0.2,0.4-0.3,0.6c-0.7,1.2-1.3,2.4-1.9,3.6c-0.1,0.2-0.2,0.4-0.3,0.6c-0.6,1.3-1.2,2.5-1.8,3.8
		c0,0.1-0.1,0.2-0.1,0.3c-2.9,6.8-4.9,14.1-6.2,21.7c-0.1,0.5-0.2,0.9-0.2,1.4c-0.2,1.1-0.3,2.2-0.4,3.3c-0.1,0.7-0.2,1.4-0.2,2.1
		c-0.1,1-0.2,2-0.2,2.9c-0.1,0.9-0.1,1.8-0.1,2.6c0,0.9-0.1,1.7-0.1,2.6c0,1.1,0,2.2,0,3.3c0,0.7,0,1.4,0,2.1
		c0.1,1.8,0.2,3.7,0.4,5.5c1.1,11.7,5.1,41.7,9,70.7c3.8,28,7.3,54.4,8.2,64.2c0.1,0.8,0.6,1.5,1.3,1.8c0.5,0.2,1,0.4,1.5,0.6
		c0.2,0.5,0.6,0.8,1.1,1c5.4,2.3,11.4,4.5,17.9,6.6c4,1.3,8.3,2.5,12.7,3.8l0.9,7.6c3.9,33.1,16.4,44.8,26,44.8
		c3.8,0,7.3-1.7,10.3-5c6.3-7,9.1-20.5,8.1-37.5c82.1,14.5,197.3,20.1,294.7,20.1c120,0,231-7.9,306.3-21.5
		c-1.3,17.7,1.5,31.7,8,38.9c2.9,3.3,6.5,5,10.3,5l0,0c9.6,0,22.1-11.7,26-44.8l1.1-9.2c11.8-3.3,22-6.8,30.4-10.4
		c0.7-0.3,1.2-1,1.3-1.8c0.9-9.8,4.5-36.2,8.2-64.1c1.2-9.1,2.5-18.3,3.6-26.9c2.5-19.1,4.7-35.8,5.4-43.8c0.1-1.6,0.2-3.1,0.3-4.7
		c0-0.3,0-0.7,0-1C834.3,384.5,834.3,383.1,834.3,381.7z M757.7,586.5c-2,0-3.9-1-5.6-2.9c-5.4-6.1-7.7-19.4-6.3-36
		c9-1.7,17.5-3.5,25.3-5.4c2.5-0.6,4.8-1.2,7.2-1.8l-0.8,6.7C774.5,573,765.3,586.5,757.7,586.5L757.7,586.5z M770.2,538
		c-73.2,17.5-199.2,27.9-337,27.9c-167.8,0-307.5-14.9-366.3-38.9c-0.2-0.5-0.6-0.9-1.2-1.1c-0.9-0.4-1.8-0.7-2.7-1.1
		c-0.1-0.7-0.1-1.4-0.2-2.2c-1.3-11.8-4.5-35.7-7.9-60.9c-3.9-29-8-59-9-70.5c-2.4-26,5.2-50.6,20.7-67.6
		c12.7-13.9,29.8-21.5,48.2-21.5c1.3,0,2.6,0,4,0.1c43.6,2.5,79.2,45.2,79.2,95.2v56.7c0,1.1,0.9,2.1,2,2.2
		c59.9,4.6,147.3,7.2,239.9,7.2c90.2,0,176.1-2.5,235.6-6.9c1.1-0.1,2-1,2-2.2v-57c0-50,35.5-92.8,79.2-95.2
		c20-1.1,38.6,6.5,52.2,21.4c15.5,17,23.1,41.7,20.7,67.6c-1.1,11.6-5.1,41.6-9,70.6c-3.6,26.8-7.1,52.3-8.1,63
		C801.3,529.5,787.1,534,770.2,538z M125.8,583.6c-1.7,1.9-3.6,2.9-5.6,2.9c-7.5,0-16.8-13.5-19.8-39.3l-0.6-5.1
		c10,2.5,20.9,4.9,32.4,7C133.4,565,131.1,577.6,125.8,583.6z M159.2,170.1c1.7-17.1,6.5-34.3,15.8-49.8
		c9.2-15.3,22.7-28.5,38.7-38.1c8-4.9,16.6-8.9,25.5-12.2c4.5-1.6,9-3.2,13.6-4.4c4.7-1.3,9.4-2.6,14.1-3.9
		c18.8-4.8,38.3-8.4,58-10.9c39.4-5,80-5.6,120.4-3c20.2,1.3,40.3,3.3,60.3,6.1S545.3,60,564.5,65c9.6,2.4,19,5.4,28.3,8.7
		c4.6,1.8,9.2,3.4,13.6,5.5c2.2,1,4.5,1.9,6.6,3l6.5,3.3c2.2,1,4.2,2.3,6.3,3.5s4.2,2.4,6.2,3.7c3.9,2.8,8,5.3,11.6,8.4
		c7.6,5.7,14.1,12.7,20,19.7c11.8,14.7,19.8,31.5,24.6,48.9s6.5,35.2,6.7,52.5c0.1,15.7-0.9,31.1-2.3,45.9c-0.7-0.2-1.4-0.4-2-0.6
		c0,0,0,0-0.1,0h-0.1c-6.3-1.6-12.9-2.2-19.6-1.8c-42,2.4-69.8,39.6-75.7,75c-2.1,13-2.3,26.3-2.2,39.9c0,4.9,0.1,9.6,0.2,14.3
		l-337.5,8.4c0.2-7.2,0.3-14.7,0.4-22.7c0-13.6-0.1-26.9-2.2-39.9c-5.8-35.4-33.7-72.6-75.7-75c-5.4-0.3-10.7,0-15.9,1
		c-0.8-14.9-1.5-30.4-2.7-46.4C158.6,204.2,157.5,187.3,159.2,170.1z M760.3,297.7c-1.3,0-2.6,0-3.9,0.1
		c-45.9,2.6-83.3,47.3-83.3,99.6v52.4l-75.7-53.7c-0.1-4.9-0.2-10-0.2-15.3c0-13.5,0.1-26.6,2.1-39.2c5.6-33.7,31.9-69.1,71.6-71.4
		c6.3-0.4,12.5,0.2,18.4,1.7l0,0C692.7,273.1,733.4,287.9,760.3,297.7z M439.8,459.1c-91.5,0-177.9-2.6-237.6-7v-0.2l48.9-43.9
		l343.5-8.6l75,53.2C610.5,456.7,527.2,459.1,439.8,459.1z M159.6,271.9c5.9-1.5,12-2,18.3-1.7c39.7,2.3,66.1,37.7,71.6,71.4
		c2.1,12.7,2.2,25.8,2.1,39.2c0,8-0.2,15.6-0.4,22.8h-1c-0.5,0-1,0.2-1.4,0.6L202.2,446v-48.6c0-52.3-37.4-97-83.3-99.6
		c-3.5-0.2-7-0.1-10.5,0.2C124.8,289.5,144.1,279.7,159.6,271.9z"/>
	<path class="st1" d="M594.6,399.4L251.1,408l-48.9,43.9v0.2c59.7,4.5,146.1,7,237.6,7c87.4,0,170.7-2.4,229.8-6.5L594.6,399.4z"/>
	<path class="st2" d="M99.3,542l0.6,5.1c3,25.8,12.3,39.3,19.8,39.3c2,0,3.9-1,5.6-2.9c5.3-5.9,7.6-18.6,6.4-34.5
		C120.2,546.9,109.3,544.6,99.3,542z"/>
	<path class="st2" d="M777.5,547.2l0.8-6.7c-2.3,0.6-4.7,1.2-7.2,1.8c-7.9,1.9-16.3,3.7-25.3,5.4c-1.4,16.6,0.9,29.8,6.3,36
		c1.7,1.9,3.6,2.9,5.6,2.9l0,0C765.3,586.5,774.5,573,777.5,547.2z"/>
	<path class="st1" d="M812.3,524.8c1.1-10.8,4.5-36.2,8.1-63c3.9-29,8-59,9-70.6c2.4-26-5.2-50.6-20.7-67.6
		c-13.6-14.9-32.2-22.6-52.2-21.4c-43.7,2.5-79.2,45.2-79.2,95.2v57c0,1.1-0.9,2.1-2,2.2c-59.6,4.4-145.5,6.9-235.6,6.9
		c-92.6,0-180.1-2.6-239.9-7.2c-1.1-0.1-2-1-2-2.2v-56.7c0-50-35.5-92.8-79.2-95.2c-1.3-0.1-2.7-0.1-4-0.1
		c-18.4,0-35.5,7.7-48.2,21.5c-15.5,17-23.1,41.7-20.7,67.6c1.1,11.6,5.1,41.5,9,70.5c3.4,25.2,6.6,49.1,7.9,60.9
		c0.1,0.8,0.2,1.5,0.2,2.2c0.9,0.4,1.8,0.8,2.7,1.1c0.5,0.2,0.9,0.6,1.2,1.1c58.8,24,198.5,38.9,366.3,38.9
		c137.8,0,263.8-10.4,337-27.9C787.1,534,801.3,529.5,812.3,524.8z M83.5,383.9c0-10.5,8.6-19.1,19.1-19.1s19.1,8.6,19.1,19.1
		s-8.6,19.1-19.1,19.1S83.5,394.5,83.5,383.9z M762.5,364.8c10.5,0,19.1,8.6,19.1,19.1c0,10.5-8.6,19.1-19.1,19.1
		c-10.6,0-19.1-8.6-19.1-19.1S752,364.8,762.5,364.8z"/>
	<path class="st1" d="M762.5,398.7c8.1,0,14.8-6.6,14.8-14.8c0-8.1-6.6-14.8-14.8-14.8c-8.1,0-14.8,6.6-14.8,14.8
		S754.4,398.7,762.5,398.7z"/>
	<path class="st0" d="M762.5,403c10.5,0,19.1-8.6,19.1-19.1s-8.6-19.1-19.1-19.1c-10.6,0-19.1,8.6-19.1,19.1
		C743.4,394.5,752,403,762.5,403z M762.5,369.1c8.1,0,14.8,6.6,14.8,14.8c0,8.1-6.6,14.8-14.8,14.8c-8.1,0-14.8-6.6-14.8-14.8
		C747.7,375.8,754.4,369.1,762.5,369.1z"/>
	<path class="st1" d="M102.6,398.7c8.1,0,14.8-6.6,14.8-14.8c0-8.1-6.6-14.8-14.8-14.8c-8.1,0-14.8,6.6-14.8,14.8
		S94.5,398.7,102.6,398.7z"/>
	<path class="st0" d="M121.7,383.9c0-10.5-8.6-19.1-19.1-19.1s-19.1,8.6-19.1,19.1s8.6,19.1,19.1,19.1
		C113.2,403,121.7,394.5,121.7,383.9z M102.6,369.1c8.1,0,14.8,6.6,14.8,14.8c0,8.1-6.6,14.8-14.8,14.8c-8.1,0-14.8-6.6-14.8-14.8
		C87.8,375.8,94.5,369.1,102.6,369.1z"/>
	<path class="st3" d="M688.1,391.9c6.6-15.9,15.7-29.5,27.2-40.6c7.1-7.8,15-14.8,23.5-20.5c14.4-9.8,31.7-13.5,48.6-11.7
		c5.1-0.6,10.4-1,15.7-1.1c-12.9-11.2-29.1-16.8-46.4-15.8c-43.7,2.5-79.2,45.2-79.2,95.2v29.9C679.8,414.9,683.6,402.9,688.1,391.9
		z"/>
	<path class="st3" d="M767.8,536.2c-33.8,6.8-68.6,8.7-103,10.3c-18.7,0.9-37.5,0.9-56.2,1.2c-8.7,0.1-17.4,0.3-26,0.7
		c-4.3,0.2-8.6,0.4-13,0.7c-0.2,0-0.3,0-0.5,0c-0.7,0.1-1.6,0.2-2.9,0.3c-38.8,4.3-77.5,5.1-116.5,3.6c-36.1-1.4-72.1-3.4-108.1-4.2
		c-36.3-0.8-72.6-1.8-108.8-4.6c-43.5-3.3-87.4-8.7-129.9-18.7c-14-3.3-27.9-7.2-41.3-12.5c0.4,3.6,0.8,6.8,1.1,9.4
		c0.1,0.8,0.2,1.5,0.2,2.2c0.9,0.4,1.8,0.8,2.7,1.1c0.5,0.2,0.9,0.6,1.2,1.1c58.8,24,198.5,38.9,366.3,38.9
		c137.8,0,263.8-10.4,337-27.9c16.9-4,31.1-8.5,42.2-13.2c0.1-0.9,0.2-1.9,0.3-2.9C798.6,528.2,783.9,532.9,767.8,536.2z"/>
	<path class="st3" d="M103,325.6c35.8-2.1,72.2,21.5,86.5,54.2c3.4,7.8,6.2,15.8,8.4,24v-6.4c0-50-35.5-92.8-79.2-95.2
		c-1.3-0.1-2.7-0.1-4-0.1c-18.4,0-35.5,7.7-48.2,21.5c-3.7,4-6.9,8.6-9.6,13.4C71.5,330.4,87.5,326.5,103,325.6z"/>
	<path class="st3" d="M119,297.8c6.2,0.4,12.3,1.5,18.1,3.3c7.6-4.8,15.3-9.3,22.8-13.3c10.3-5.5,20.8-10.6,31.5-15.3
		c-4.3-1.1-8.8-1.9-13.5-2.2c-6.3-0.4-12.4,0.2-18.3,1.7c-15.5,7.8-34.8,17.6-51.1,26.1C111.9,297.7,115.4,297.6,119,297.8z"/>
	<path class="st3" d="M736.1,301.9c6.5-2.3,13.3-3.7,20.3-4.1c1.3-0.1,2.6-0.1,3.9-0.1c-26.9-9.8-67.5-24.6-70.8-25.7l0,0
		c-5.9-1.5-12.1-2.1-18.4-1.7c-0.3,0-0.6,0.1-0.9,0.1C692.7,278.8,714.7,289.7,736.1,301.9z"/>
	<path class="st3" d="M176.2,202.3c-0.3-4.6-0.6-8.9-0.5-10.6c1.3-32.2,14.3-67.2,40.6-87.4c28.7-22,62.6-34.2,98.4-38.8
		c35.1-4.5,70.2-5,105.5-2.5c32.5,2.3,65.4,4.3,97.7,8.7c36.4,5,74.8,11.7,106.2,32.2c26.3,17.2,47.2,40,63.3,67
		c0.8,1.3,1.4,2.6,2.2,3.8c-0.4-1.6-0.8-3.3-1.2-4.9c-4.8-17.4-12.8-34.2-24.6-48.9c-5.9-7-12.4-14-20-19.7
		c-3.6-3.1-7.7-5.6-11.6-8.4c-2-1.3-4.1-2.5-6.2-3.7c-2.1-1.2-4.1-2.5-6.3-3.5l-6.5-3.3c-2.2-1.1-4.4-2-6.6-3
		c-4.4-2.1-9-3.7-13.6-5.5c-9.2-3.3-18.6-6.3-28.3-8.7c-19.2-5-39-8.3-58.9-11.1c-20-2.7-40.1-4.8-60.3-6.1
		c-40.3-2.6-80.9-2-120.4,3c-19.7,2.5-39.2,6.1-58,10.9c-4.7,1.3-9.4,2.6-14.1,3.9c-4.6,1.3-9.2,2.8-13.6,4.4
		c-8.9,3.3-17.5,7.3-25.5,12.2c-16,9.6-29.6,22.8-38.7,38.1c-9.4,15.4-14.2,32.7-15.8,49.8c-1.7,17.1-0.7,34,0.3,50.3
		c1.1,16,1.9,31.5,2.7,46.4c2.5-0.5,5-0.8,7.5-1c-0.1-4.5,0-9,0.2-13.6C170.8,235.9,172.6,218.8,176.2,202.3z"/>
	<path class="st3" d="M93.2,395.3c1.5-4.2,3.7-8.1,6.9-11.5c3.6-3.9,10-6.9,15.6-6.7c-2.5-4.7-7.4-8-13.1-8
		c-8.1,0-14.8,6.6-14.8,14.8C87.8,388.5,89.9,392.6,93.2,395.3z"/>
	<path class="st3" d="M752.6,394.9c1.2-5.6,3.5-10.9,8.2-14.7c3.6-2.9,8.1-5.1,12.8-6c-2.7-3.1-6.7-5-11.1-5
		c-8.1,0-14.8,6.6-14.8,14.8C747.7,388.3,749.6,392.1,752.6,394.9z"/>
	<path class="st3" d="M613,452.5c-48.7-1.4-97.4-0.3-146.1-1.4c-48.3-1.2-96.2-4.1-144.6-3.4c-22.9,0.3-45.8,0.2-68.6,0.7
		c-16.2,0.4-32.6,1.2-48.9,1.1l-2.5,2.3v0.2c59.7,4.5,146.1,7,237.6,7c87.4,0,170.7-2.4,229.8-6.5l-1-0.7
		C650.1,452.8,631.6,453,613,452.5z"/>
	<path class="st3" d="M640.7,279.4c-14.5,8.4-25.8,21.8-33,36.7c14.2,7.7,27.9,16.3,41.1,24.6c10.4,6.6,20.6,13.5,30.6,20.4
		c8.6-24.4,25.5-44.4,46.6-55C698.2,295,670,285.3,640.7,279.4z"/>
	<path class="st4" d="M101.5,557.1c10.6,1.6,21.4,7.4,29.3,13.8c1.2-6.1,1.6-13.5,1-21.8c-11.6-2.2-22.4-4.5-32.4-7l0.6,5.1
		C100.4,550.7,100.9,554,101.5,557.1z"/>
	<path class="st4" d="M777,550.8c0.2-1.2,0.4-2.3,0.5-3.6l0.8-6.7c-2.3,0.6-4.7,1.2-7.2,1.8c-7.9,1.9-16.3,3.7-25.3,5.4
		c-0.6,6.8-0.5,12.9,0.1,18.3C754.4,559,765.1,553.9,777,550.8z"/>
	<path class="st3" d="M689.1,358.5c10.4-15.7,20.4-30.9,36.8-40.9c13.7-8.4,29-13.7,44.9-14.8c-4.6-0.7-9.3-1-14.2-0.7
		c-36.2,2.1-66.8,31.8-76.2,70.4C683.3,367.5,686.3,362.7,689.1,358.5z"/>
	<path class="st1" d="M167.8,156.7c10.8-30.5,29.4-51.8,56.9-68.4c24.9-15,50.9-27.6,79.5-33.8c4.6-1,9.3-1.9,13.9-2.7
		c-17.4,2.4-34.6,5.7-51.2,9.9c-4.7,1.3-9.4,2.6-14.1,3.9c-4.6,1.3-9.2,2.8-13.6,4.4c-8.9,3.3-17.5,7.3-25.5,12.2
		c-16,9.6-29.6,22.8-38.7,38.1c-9.4,15.4-14.2,32.7-15.8,49.8c-1.2,12.2-1,24.3-0.5,36.2C159.7,189.4,162.2,172.8,167.8,156.7z"/>
	<path class="st3" d="M119,297.8c1.8,0.1,3.6,0.3,5.4,0.6c10.4-9,23.2-16.5,33.3-22.8c2.6-1.6,5.2-3.2,7.8-4.8
		c-1.9,0.3-3.9,0.6-5.8,1.1c-15.5,7.8-34.8,17.6-51.1,26.1C111.9,297.7,115.4,297.6,119,297.8z"/>
	<path class="st1" d="M105.1,308.6c10.1-2.1,20.1-2.7,29.9-1.7c2.8,0.2,5.6,0.5,8.3,1.1c-7.8-3.4-16.1-5.4-24.7-5.9
		c-1.3-0.1-2.7-0.1-4-0.1c-18.4,0-35.5,7.7-48.2,21.5c-1.4,1.5-2.6,3-3.8,4.6C74.4,317.9,91,311.6,105.1,308.6z"/>
	<path class="st1" d="M94.8,379.7c3.6-4.4,9.1-7.3,15-8.6c-2.1-1.2-4.6-1.9-7.2-1.9c-8.1,0-14.8,6.6-14.8,14.8c0,1.9,0.4,3.7,1,5.4
		C90.4,385.9,92.4,382.6,94.8,379.7z"/>
	<path class="st1" d="M768.6,371.6c0.6-0.1,1.2-0.1,1.8-0.2c-2.3-1.5-5-2.3-7.9-2.3c-8.1,0-14.8,6.6-14.8,14.8c0,0.3,0,0.6,0,0.8
		C752.7,377.8,760.2,372.7,768.6,371.6z"/>
</g>
<path class="st0" d="M638,329.2c-5.7-0.7-10.7,1.7-14.3,4.8c-4.3,3.7-6.4,8.7-8.6,13.9c-3.3,8.1-5.8,16.7-7.1,29
	c-0.9,8.8-0.8,23.2,5.7,33.9c3,5,7,10.3,11.9,13.8c3.2,2.3,8.8,4.1,12.2,2.4c5-2.6,3.1-10.3,3.4-15.1c0.5-6.4,0.8-12.7,0.7-18.9
	c-0.1-7.9-0.9-15.7-0.8-23.3c0-10.5,1-19.1,0.6-26.6c0.6-2.1,1.4-4.1,2-6.1C644.8,333.2,643,329.9,638,329.2z"/>
<ellipse class="st0" cx="442.4" cy="422.6" rx="197.9" ry="27.5"/>
<g>
	<path class="st3" d="M606,240c0.8,0.6,1.6,1.2,2.5,1.7c19.6-45.1,21.9-89.9,11.9-107.2c-3.3-5.7-8.3-8.8-14.1-8.8
		c-3.3,0-6.7,1-9.4,2.9c-7.6,5.2-12.9,17.5-13.2,30.5c-0.2,12.5,0.1,24.9,0.4,37c0.3,10.3,0.5,20.5,0.5,30.5
		C591.9,230.9,599.1,235.3,606,240z"/>
	<path class="st3" d="M667.5,312.4c-4.4-9.3-10.3-18.1-17-26.1c-1.7-2-3.4-3.9-5.2-5.7s-3.8-3.6-5.7-5.5c-3.8-3.7-7.8-7.1-11.8-10.6
		c-8.1-6.8-16.5-13.3-25.2-19.3c-8.8-5.9-17.8-11.5-27.1-16.6c-18.6-10.1-38.2-18.5-58.2-25.7c-3-1.1-6-2.1-9-3.1
		c6.4,10.1,9.7,21.8,0.8,32.4c-4.3,5.2-10.6,8-17.6,8l0,0c-8.4,0-17-4.2-24.2-11.7c-7.8-8.1-12.8-18.5-17.7-28.6
		c-4-8.3-7.8-16.1-12.6-21.2c-2.3-2.5-4.8-4.3-7.5-5.6c-11.1-4.4-22.1-9.3-32.6-15.4c-2.4-1.4-4.8-2.8-6.9-4.3l-3.3-2.2l-3.4-2.4
		c-4.4-3.2-8.6-6.7-12.7-10.3c-8.1-7.2-15.6-15-22.9-22.9c-7.3-7.8-14.4-15.8-22.2-22.7c-7.2-6.4-15.2-11.7-24.1-14.3
		c-2.3,4-4.2,8.3-5.9,12.7c-1.9,5.1-3.5,10.4-4.7,15.8c-1.1,5.3-1.9,10.8-1.9,16.2c-0.1,5.4,0.5,10.8,1.9,15.9c0.3,1.1,0,2.3-0.8,3
		l-85.3,84.4c-1.2,1.2-3.1,1.2-4.3,0.1l0,0c-1.3-1.2-3.1-2.3-5-3.1c-1.9-0.9-4-1.6-6.1-2.2c-4.2-1.2-8.7-1.9-13.1-2.4
		c-8-0.8-16.2-0.7-24.2,0.2v1.7c0.1,1.5,0.2,2.9,0.3,4.4s0.4,2.9,0.6,4.4c0.2,1.5,0.5,2.9,0.8,4.4l0,0c1,4.9,2.2,9.7,3.9,14.4
		c1.6,4.7,3.5,9.4,5.7,13.9c4.3,9.1,9.5,17.7,15.4,25.9c11.7,16.4,26,31,41.4,44.3c5.7,4.9,11.5,9.5,17.5,14
		c0.6-0.1,1.2-0.1,1.8,0.1c0.8,0.3,1.4,0.9,1.8,1.7c0.2,0.4,0.6,1,1.2,1.6c4.8,3.5,9.8,6.9,14.8,10.1L255,339c0,0,0,0,0-0.1
		c-0.2-1.1-0.2-2-0.2-3c0.9-11.5,19.4-20.5,42.1-20.5c0.6,0,1.3,0,1.9,0l0.2-35.5c0.2-2.9,2-5.4,4.5-6.5l19.2-10
		c-2.2-2.3-5-4.7-8.5-7.2c-1,0.7-2.1,1-3.3,1.1l-13.8,0.3c-1.1,0-2-0.5-2.5-1.5c-0.5-0.9-0.5-2.1,0-3.1c3.4-6.6,11.6-15.7,17.8-19.5
		c0.9-0.6,2.1-0.6,3-0.2c0.9,0.5,1.5,1.5,1.5,2.6l0.4,14.3c0,0.8-0.1,1.6-0.4,2.3c0.5,0,1.1,0.1,1.6,0.5c0.2,0.1,0.3,0.3,0.5,0.5
		c0.1,0.1,0.2,0.2,0.3,0.2c5.8,5.4,16,9.6,22.6,7.2c4.1-1.5,6.7-5.4,7.6-11.8c0.2-1.2,1.3-2,2.5-1.9c1.2,0.2,2,1.3,1.9,2.5
		c-1.4,10.1-6.4,13.9-10.4,15.3c-0.5,0.2-0.9,0.3-1.4,0.4l-1.1,1.4c-1.4,1.7-4,3.7-7.1,5.8c1,3,1.1,6,0.4,8.7
		c-1.6,5.8-6.8,9.6-14.1,10.3c-0.1,0-0.1,0-0.2,0c-1.1,0-2.1-0.9-2.2-2c-0.1-1.2,0.8-2.3,2-2.4c5.5-0.5,9.2-3,10.3-7.1
		c0.4-1.5,0.4-3.2-0.1-5.2c-6.7,4-14.2,7.7-17.3,9.2v32.5c8.7,1.8,15.9,5.2,20,9.6c1.1,1.2,2,2.6,2.7,3.9c0,0.1,0.1,0.2,0.1,0.3
		c0.1,0.3,0.3,0.6,0.4,0.9c0.1,0.2,0.1,0.4,0.2,0.6c0.1,0.2,0.1,0.4,0.2,0.6c0.1,0.3,0.1,0.6,0.2,0.8c0,0.1,0,0.2,0,0.3
		c0.1,0.8,0.1,1.6,0.1,2.4c0,0.1,0,0.2-0.1,0.4c0,0.3-0.1,0.7-0.2,1c0,0.2,0,0.3-0.1,0.5l-0.2,0.9c0,0.1-0.1,0.2-0.1,0.3v0.1
		l-14.5,54.5c1,0.4,2,0.9,3,1.3c18.7,7.9,38,14.8,57.6,20.3c9.8,2.8,19.7,5.3,29.6,7.5s19.9,4.1,30,5.8c20.1,3.2,40.4,5.3,60.8,6.2
		c10.2,0.4,20.4,0.6,30.5,0.5c10.2-0.2,20.3-0.6,30.5-1.3c9.3-0.7,18.5-1.3,27.6-2.4s18.2-2.6,26.8-5.3c4.2-1.4,8.4-3.1,11.7-5.4
		c1.7-1.2,3.1-2.6,4-4.1c0.9-1.4,1.6-3.6,2-5.5s0.3-3.7-0.3-4.8c-0.6-1.2-1.9-2.2-3.7-2.9c-1.8-0.7-3.9-1.2-6.2-1.7
		c-1.1-0.2-2.3-0.5-3.7-0.9c-0.7-0.2-1.4-0.5-2.2-0.9s-2-1.2-2.6-2.9c-0.3-0.7-0.3-1.5,0-2.1V395l21.3-57c0.6-1.6,2.4-2.4,4-1.8
		c0.1,0,0.2,0.1,0.3,0.1h0.1c4.4,2.1,9.4,3.9,14.2,4.6c4.8,0.7,9.7,0.2,12.7-2.5c0.8-0.6,1.4-1.5,1.9-2.2l0.5-0.9l0.2-0.4l0,0l0,0
		l0.1-0.2c0.2-0.4,0.4-0.9,0.5-1.4c0.5-2,0.5-4.4,0.1-6.7C671.4,321.9,669.6,317,667.5,312.4z M236.7,284c0,1.7-1.4,3.1-3.1,3.1l0,0
		c-1.7,0-3.1-1.4-3.1-3.1c0.1-15.2,10-27.9,24.1-30.8c1.7-0.4,3.3,0.7,3.7,2.4c0.4,1.7-0.7,3.3-2.4,3.7
		C244.7,261.6,236.8,271.8,236.7,284z M252.9,286.5c-0.4,0-0.8-0.2-1-0.6c-0.3-0.5-0.2-1.3,0.4-1.6l18.4-11.4
		c0.6-0.3,1.3-0.2,1.6,0.4c0.3,0.5,0.2,1.3-0.4,1.6l-18.4,11.4C253.4,286.4,253.1,286.5,252.9,286.5z M255.8,309.1
		c-0.2,0.2-0.5,0.4-0.8,0.4s-0.6-0.1-0.8-0.3c-0.5-0.4-0.5-1.2,0-1.7l22.1-23.2c0.4-0.5,1.2-0.5,1.7,0c0.5,0.4,0.5,1.2,0,1.7
		L255.8,309.1z M287.3,296.5l-7.5,18.7c-0.2,0.5-0.6,0.7-1.1,0.7c-0.1,0-0.3,0-0.4-0.1c-0.6-0.2-0.9-0.9-0.7-1.5l7.5-18.7
		c0.2-0.6,0.9-0.9,1.5-0.7C287.2,295.3,287.5,295.9,287.3,296.5z M339.1,167.6c-11.3,0.4-20.5,9.3-22.5,21.5
		c-0.2,1.5-1.6,2.6-3.1,2.6c-0.2,0-0.3,0-0.5,0c-1.7-0.3-2.8-1.9-2.6-3.6c2.5-15.2,14.2-26.1,28.4-26.7c1.7-0.1,3.2,1.3,3.2,3
		C342.2,166.1,340.9,167.6,339.1,167.6z M343.8,215.7c-0.2,0.3-0.5,0.4-0.9,0.4c-0.3,0-0.6-0.1-0.8-0.3c-0.5-0.4-0.5-1.2-0.1-1.6
		l16.5-18.1c0.4-0.5,1.2-0.5,1.6-0.1c0.5,0.4,0.5,1.2,0.1,1.6L343.8,215.7z M352.7,225.9c-0.2,0.1-0.4,0.2-0.7,0.2
		c-0.4,0-0.7-0.2-1-0.5c-0.4-0.5-0.2-1.3,0.3-1.6l27.8-19.4c0.5-0.4,1.3-0.2,1.6,0.3c0.4,0.5,0.2,1.3-0.3,1.6L352.7,225.9z
		 M383.9,229.1l-25.4,8c-0.1,0-0.2,0.1-0.4,0.1c-0.5,0-1-0.3-1.1-0.8c-0.2-0.6,0.1-1.3,0.8-1.5l25.4-8c0.6-0.2,1.3,0.1,1.5,0.8
		C384.8,228.2,384.5,228.9,383.9,229.1z"/>
	<path class="st5" d="M456,277.1c-33.6,15.9-40.1,52.7-29.5,75.8c16.1,35,56.3,68.5,109.1,62.8c27.5-3,38.5-31.7,44.9-48.7
		c8.6-23,10.7-45.1,13-67.1c2.3-21.8-26-34.3-49.4-37.2C515,259.1,482.5,264.6,456,277.1z"/>
	<g>
		<g>
			<path class="st0" d="M508.7,274c-7.7,29.4-33,40.3-58.2,32.2c-24.8-8-40.9-32.5-31.7-59.4c8.2-24.1,31.6-39.6,56-32.6
				C499.6,221.2,516.1,245.6,508.7,274z"/>
			<path class="st6" d="M503.9,271.3c-6.2,22.5-24.4,37-52,29.4c-20.8-5.8-33.6-26.1-30.4-46.9c0.2-1.7,0.6-3.4,1.1-5.1
				c6.2-22.4,29.5-35.6,52-29.3c18.2,5.1,30.2,21.3,30.9,39.2C505.6,262.7,505.1,267,503.9,271.3z"/>
			<path class="st7" d="M504.4,263.6c-6.2,22.5-29.5,35.6-52,29.3c-18.2-5.1-30.2-21.2-30.9-39.2c0.2-1.7,0.6-3.4,1.1-5.1
				c6.2-22.4,29.5-35.6,52-29.3c18.2,5.1,30.2,21.3,30.9,39.2C505.2,260.2,504.9,261.9,504.4,263.6z"/>
			<path class="st1" d="M427.7,251.6c2.8-13.5,12.1-23.1,25.5-26.9c12.9-3.6,26.7-1.9,38.3,3.9c-4.7-4.2-10.4-7.5-16.9-9.3
				c-22.5-6.2-45.7,6.9-52,29.3c-0.5,1.7-0.8,3.4-1.1,5.1c0.3,7.4,2.5,14.4,6.3,20.6C425.9,267.1,426.2,259.2,427.7,251.6z"/>
		</g>
		<path class="st8" d="M489.8,253.8c-0.9,1.6-3.1,2-4.5,0.7l-1.9-1.8c-1.6-1.4-2.2-3.6-1.6-5.6c0.5-1.9,2.4-3.1,4.3-2.7l4.5,0.8
			c1.8,0.3,2.7,2.3,1.9,3.8L489.8,253.8z"/>
		<path class="st8" d="M461.4,239.4c-0.9,1.6-3.1,2-4.5,0.7l-1.9-1.8c-1.6-1.4-2.2-3.6-1.6-5.6c0.5-1.9,2.4-3.1,4.3-2.7l4.5,0.8
			c1.8,0.3,2.7,2.3,1.9,3.8L461.4,239.4z"/>
		<path class="st8" d="M474.4,276.8c-1.4-1.2-1.2-3.4,0.4-4.4l1.8-1.1c2-1.2,4.4-1.3,6.5-0.3l2.5,1.2c1.8,0.9,2.7,3,1.8,4.9
			l-2.1,4.8c-0.7,1.7-2.9,2.1-4.2,0.9L474.4,276.8z"/>
		<path class="st8" d="M451.2,287.3c-1.8,0.7-3.8-0.4-4.2-2.3l-0.2-0.9c-0.5-2.2,0.3-4.5,2-6l0.2-0.2c1.5-1.3,3.9-1.2,5.2,0.4
			l2.9,3.3c1.2,1.3,0.6,3.4-1,4L451.2,287.3z"/>
		<path class="st8" d="M430.9,259c-0.8-1.7,0.2-3.6,2.1-3.9l3.9-0.7c2.2-0.4,4.3,0.7,5.4,2.6l0.9,1.6c0.9,1.7,0.2,3.9-1.6,4.7
			l-3.7,1.6c-1.9,0.8-4.1,0-4.9-1.8L430.9,259z"/>
		<path class="st8" d="M460.3,259.8c-0.8-1.7,0.2-3.6,2.1-3.9l1.4-0.2c2.1-0.4,4.1,0.7,5.1,2.5c0.9,1.7,0.2,3.7-1.5,4.5l-1.4,0.6
			c-1.9,0.8-4.1,0-4.9-1.8L460.3,259.8z"/>
	</g>
	<path class="st0" d="M678.3,325.8c-0.9-5.8-2.9-11.1-5.2-16.1c-4.7-10-10.9-19.1-17.9-27.5c-1.8-2.1-3.6-4.2-5.6-6.1
		c-1.9-1.9-3.9-3.7-5.9-5.6c-3.8-3.8-8-7.3-12-10.8c-5.8-4.9-11.8-9.6-17.9-14.1c21.2-48.2,22.5-95.9,11.9-114.1
		c-4.4-7.7-11.3-11.9-19.5-11.9c-4.6,0-9.1,1.4-12.9,3.9c-9.2,6.3-15.6,20.6-15.9,35.5c-0.2,12.6,0.1,25.2,0.4,37.3
		c0.2,9,0.5,18,0.5,26.8l0,0c-19-10.3-38.8-18.8-59-26.1c-5.8-2.1-11.7-4.1-17.6-6.1c-0.8-1-1.7-2-2.5-2.9
		c-15.9-18-37.6-30.6-52.9-30.6c-6.6,0-12.1,2.3-15.8,6.7c-0.6,0.7-1.1,1.4-1.6,2.1c-0.2-0.1-0.4-0.1-0.5-0.2
		c-9.8-4-19.4-8.4-28.4-13.7c-2.2-1.3-4.5-2.6-6.7-4.2l-3.3-2.2l-3.1-2.2c-4.2-3.1-8.3-6.4-12.2-9.9c-7.9-7-15.2-14.7-22.4-22.5
		c-7.3-7.8-14.5-15.8-22.7-23.1c-4.1-3.6-8.5-7-13.3-9.9s-10.1-5.1-15.6-6.5c-1.3-0.3-2.7,0.2-3.4,1.4c-3.1,5.1-5.4,10.4-7.5,15.8
		c-2.1,5.4-3.7,11-4.9,16.7c-1.2,5.7-2,11.5-2,17.4c-0.1,5.3,0.5,10.6,1.7,15.8l-82.1,81.3c-1.4-1-2.9-1.7-4.3-2.4
		c-2.3-1.1-4.6-1.8-7-2.5c-4.7-1.3-9.4-2.1-14.2-2.6c-9.5-1-19-0.8-28.5,0.5h-0.1c-1.5,0.2-2.6,1.5-2.6,3.1l0.1,4.7
		c0.1,1.6,0.2,3.2,0.4,4.7c0.1,1.6,0.4,3.1,0.6,4.7c0.2,1.6,0.5,3.1,0.8,4.7l0,0c1,5.2,2.4,10.3,4.1,15.2c1.7,5,3.7,9.8,5.9,14.6
		c4.5,9.5,9.9,18.4,16,26.9c12.1,16.9,26.7,31.9,42.4,45.4c6.1,5.2,12.4,10.2,18.8,15c0.2,11.4,5.3,51.1,25.3,70.3
		c11.3,10.9,20.5,15.9,28.9,15.9c5.1,0,9.7-1.9,13.8-5.6c4.7-4.2,7.4-10.3,7.7-17.2c0-1.1,0-2.2-0.1-3.2c4.7-2.6,7.8-6,8.2-9.9
		l0.6-2.3c0.7,0.3,1.5,0.7,2.2,1c19,8,38.5,15,58.3,20.6c9.9,2.8,19.9,5.4,30,7.6s20.2,4.2,30.4,5.8c20.4,3.3,40.9,5.4,61.5,6.3
		c10.3,0.5,20.6,0.6,30.9,0.5c10.3-0.2,20.7-0.6,30.9-1.3l0,0c9.3-0.6,18.6-1.3,28-2.4c9.3-1.2,18.7-2.7,27.9-5.6
		c4.6-1.5,9.2-3.3,13.5-6.3c2.1-1.5,4.2-3.4,5.7-5.9c0.4-0.6,0.8-1.5,1-1.9c0.3-0.8,0.5-1.2,0.7-1.9c0.4-1.2,0.8-2.5,1-3.8
		c0.5-2.6,0.6-5.8-0.9-8.8c-0.7-1.5-1.9-2.8-3.1-3.7c-1.2-0.9-2.5-1.6-3.8-2.1c-2.5-1-5-1.5-7.3-2c-1.1-0.2-2.2-0.5-3.1-0.7l0,0
		l19.3-51.8c4.2,1.8,8.4,3.1,13,3.8c2.9,0.4,5.9,0.5,9,0c3-0.5,6.2-1.8,8.7-4c1.3-1.1,2.2-2.4,3.2-3.9l0.5-0.9l0.2-0.4l0.1-0.1
		c0,0,0.2-0.4,0.1-0.3l0.1-0.3c0.3-0.8,0.6-1.6,0.8-2.4C678.8,331.8,678.7,328.7,678.3,325.8z M672,333.4c-0.1,0.5-0.3,1-0.5,1.4
		l-0.1,0.2l0,0l0,0l-0.2,0.4l-0.5,0.9c-0.5,0.7-1.1,1.6-1.9,2.2c-3,2.7-7.9,3.2-12.7,2.5s-9.8-2.4-14.2-4.6h-0.1
		c-0.1,0-0.2-0.1-0.3-0.1c-1.6-0.6-3.4,0.2-4,1.8l-21.3,57v0.1c-0.2,0.7-0.3,1.4,0,2.1c0.6,1.6,1.8,2.4,2.6,2.9s1.5,0.7,2.2,0.9
		c1.3,0.4,2.5,0.6,3.7,0.9c2.3,0.5,4.4,0.9,6.2,1.7c1.8,0.7,3.1,1.7,3.7,2.9c0.6,1.2,0.7,2.9,0.3,4.8s-1.1,4.1-2,5.5
		c-0.9,1.5-2.3,2.9-4,4.1c-3.4,2.4-7.5,4.1-11.7,5.4c-8.6,2.7-17.7,4.2-26.8,5.3c-9.1,1.1-18.3,1.8-27.6,2.4
		c-10.3,0.7-20.3,1.2-30.5,1.3c-10.2,0.1-20.4,0-30.5-0.5c-20.4-0.9-40.6-3-60.8-6.2c-10.1-1.6-20.1-3.6-30-5.8
		c-9.9-2.2-19.8-4.7-29.6-7.5c-19.6-5.6-38.8-12.4-57.6-20.3c-1-0.4-2-0.9-3-1.3l14.5-54.5v-0.1c0-0.1,0.1-0.2,0.1-0.3l0.2-0.9
		c0-0.2,0.1-0.3,0.1-0.5c0.1-0.4,0.2-0.7,0.2-1c0-0.1,0.1-0.2,0.1-0.4c0.1-0.8,0-1.6-0.1-2.4c0-0.1,0-0.2,0-0.3
		c0-0.3-0.1-0.6-0.2-0.8c0-0.2-0.1-0.4-0.2-0.6c-0.1-0.2-0.1-0.4-0.2-0.6c-0.1-0.3-0.2-0.6-0.4-0.9c0-0.1-0.1-0.2-0.1-0.3
		c-0.6-1.4-1.5-2.7-2.7-3.9c-4.1-4.4-11.2-7.8-20-9.6v-32.5c3.1-1.5,10.7-5.2,17.3-9.2c0.5,2,0.4,3.7,0.1,5.2
		c-1.1,4-4.8,6.6-10.3,7.1c-1.2,0.1-2.1,1.2-2,2.4c0.1,1.1,1,2,2.2,2c0.1,0,0.1,0,0.2,0c7.3-0.6,12.6-4.5,14.1-10.3
		c0.7-2.7,0.6-5.7-0.4-8.7c3.1-2,5.7-4,7.1-5.8l1.1-1.4c0.5-0.1,0.9-0.3,1.4-0.4c4-1.4,9-5.2,10.4-15.3c0.2-1.2-0.7-2.3-1.9-2.5
		c-1.2-0.2-2.3,0.7-2.5,1.9c-0.9,6.3-3.4,10.3-7.6,11.8c-6.6,2.4-16.8-1.9-22.6-7.2c-0.1-0.1-0.2-0.2-0.3-0.2
		c-0.2-0.2-0.3-0.3-0.5-0.5c-0.5-0.4-1-0.5-1.6-0.5c0.3-0.8,0.4-1.5,0.4-2.3l-0.4-14.3c0-1.1-0.6-2.1-1.5-2.6s-2-0.4-3,0.2
		c-6.2,3.8-14.5,12.9-17.8,19.5c-0.5,1-0.5,2.2,0,3.1c0.5,0.9,1.5,1.5,2.5,1.5l13.8-0.3c1.2,0,2.3-0.4,3.3-1.1
		c3.4,2.5,6.2,4.9,8.5,7.2l-19.2,10c-2.5,1.1-4.2,3.6-4.5,6.5l-0.2,35.5c-0.6,0-1.3,0-1.9,0c-22.7,0-41.2,9-42.1,20.5
		c-0.1,0.9,0,1.9,0.2,3c0,0,0,0,0,0.1l2.2,21.1c-5-3.3-9.9-6.6-14.8-10.1c-0.6-0.6-1-1.1-1.2-1.6c-0.3-0.8-1-1.4-1.8-1.7
		c-0.6-0.2-1.2-0.3-1.8-0.1c-6-4.5-11.8-9.1-17.5-14c-15.4-13.2-29.6-27.8-41.4-44.3c-5.9-8.2-11.1-16.8-15.4-25.9
		c-2.2-4.5-4.1-9.2-5.7-13.9c-1.7-4.7-2.9-9.5-3.9-14.4l0,0c-0.2-1.5-0.6-2.9-0.8-4.4s-0.4-2.9-0.6-4.4c-0.1-1.5-0.3-2.9-0.3-4.4
		v-1.7c8-0.9,16.2-1,24.2-0.2c4.5,0.5,8.9,1.2,13.1,2.4c2.1,0.6,4.2,1.3,6.1,2.2s3.7,1.9,5,3.1l0,0c1.2,1.1,3.1,1.1,4.3-0.1L290,142
		c0.8-0.8,1.1-1.9,0.8-3c-1.4-5.1-2-10.5-1.9-15.9s0.8-10.8,1.9-16.2c1.1-5.3,2.7-10.6,4.7-15.8c1.7-4.4,3.6-8.7,5.9-12.7
		c8.9,2.6,16.9,8,24.1,14.3c7.8,6.9,14.9,14.8,22.2,22.7c7.3,7.9,14.7,15.7,22.9,22.9c4.1,3.6,8.3,7.1,12.7,10.3l3.4,2.4l3.3,2.2
		c2.2,1.5,4.6,2.9,6.9,4.3c10.5,6.1,21.4,11.1,32.6,15.4c2.7,1.2,5.2,3.1,7.5,5.6c4.8,5.1,8.6,13,12.6,21.2
		c4.9,10.1,10,20.5,17.7,28.6c7.2,7.6,15.8,11.7,24.2,11.7l0,0c7,0,13.3-2.9,17.6-8c8.9-10.6,5.5-22.3-0.8-32.4c3,1,6,2.1,9,3.1
		c20,7.2,39.5,15.6,58.2,25.7c9.3,5.1,18.3,10.6,27.1,16.6c8.7,6,17.1,12.5,25.2,19.3c3.9,3.5,8,6.9,11.8,10.6
		c1.9,1.8,3.9,3.6,5.7,5.5s3.5,3.7,5.2,5.7c6.7,8,12.6,16.8,17,26.1c2.2,4.7,4,9.5,4.7,14.3C672.5,329,672.5,331.4,672,333.4z
		 M312.4,401.6c-0.1,1.3-1.3,2.8-3.3,4.2c-1.7-5.7-5-11.3-9.8-16.3c-7.8-8.1-17.8-13.4-27.4-18.6c-2.8-1.5-5.5-2.9-8.1-4.4
		l-1.9-17.8c0.1,0.1,0.2,0.1,0.3,0.2c0.8,0.5,1.6,1.1,2.5,1.5c0,0,0.1,0,0.1,0.1c1,0.5,2,1,3.1,1.5c0.2,0.1,0.4,0.1,0.5,0.2
		c0.9,0.4,1.9,0.7,2.8,1.1c0.2,0.1,0.5,0.2,0.7,0.2c1.1,0.4,2.2,0.7,3.4,1c0.1,0,0.2,0,0.3,0.1c2.6,0.7,5.4,1.2,8.4,1.6
		c0.2,0,0.3,0,0.5,0.1c1.4,0.2,2.8,0.3,4.2,0.4c0.1,0,0.2,0,0.3,0c1.6,0.1,3.2,0.2,4.8,0.2c2.6,0,4.9-0.1,6.9-0.3
		c0.6,0,1.2-0.1,1.8-0.2c0.3,0,0.5,0,0.8-0.1c2.8-0.3,5.5-0.8,8.1-1.4c0.4-0.1,0.7-0.2,1.1-0.3h0.1c1.2-0.3,2.3-0.6,3.4-0.9h0.1
		c3.9-1.2,7.4-2.7,10.2-4.4l-13.8,51.9C312.5,401.2,312.4,401.4,312.4,401.6z M304.2,415.3c-0.2,5.1-2.2,9.7-5.6,12.8
		c-3,2.7-6.1,4-9.6,4c-6.6,0-14.6-4.6-24.6-14.2c-15.8-15.2-21.7-46.4-23.1-60.6c0.8,0.6,1.6,1.3,2.4,1.9c1.4,1.1,2.8,2.2,3.5,2.9
		c5.6,5.7,13.5,9.9,21.9,14.3c9.2,4.9,18.8,10,25.8,17.4C301.1,400.4,304.5,408.1,304.2,415.3z M327.9,265.8c1.7,0,4.3,0.4,6.5,0.9
		c-6.5,5-19.8,11.7-25.3,14.3l-1.2,0.6l-0.1,68.6c-1.7,0.4-3.4,0.7-5.1,0.9l0.4-71c0.1-1.2,0.8-2.2,2-2.8l21.8-11.3
		C326.9,265.8,327.2,265.8,327.9,265.8z M329.8,335.8c0,0.2-0.1,0.5-0.2,0.8l-0.2,0.9c-1.7,4.3-8.2,8.4-17.2,10.8v-25
		c0.4,0.1,0.8,0.2,1.2,0.3C323.6,326.1,330.2,331,329.8,335.8z M260.8,337.9c-0.1-0.6-0.1-1.2-0.1-1.6c0.6-7,15.5-14.8,35.9-14.8
		c0.6,0,1.2,0,1.8,0l-0.2,28.9c-1.4,0.1-2.9,0.2-4.5,0.2C275.2,350.6,262.2,344,260.8,337.9z M434.7,168.8c0.2-0.2,0.4-0.5,0.6-0.7
		c2.5-3,6.3-4.5,11.1-4.5c13.4,0,33.7,12,48.3,28.5c14.1,16.1,17.1,27.2,9.7,36.1c-3.1,3.7-7.7,5.8-12.8,5.8l0,0
		c-6.7,0-13.7-3.5-19.7-9.8c-7.1-7.4-11.9-17.4-16.6-27c-4.2-8.7-8.2-17-13.7-22.8C439.4,172.1,437.1,170.3,434.7,168.8z
		 M584.2,196.1c-0.3-12.1-0.7-24.5-0.4-37c0.2-13,5.5-25.3,13.2-30.5c2.7-1.8,6-2.9,9.4-2.9c5.8,0,10.8,3.1,14.1,8.8
		c10,17.3,7.7,62.1-11.9,107.2c-0.8-0.6-1.6-1.2-2.5-1.7c-6.9-4.7-14.1-9.2-21.3-13.4C584.7,216.6,584.5,206.4,584.2,196.1z"/>
	<path class="st1" d="M326.3,349.2c-2.9,1.7-6.3,3.2-10.2,4.4H316c-1.1,0.3-2.2,0.7-3.4,0.9c0,0,0,0-0.1,0c-0.4,0.1-0.7,0.2-1.1,0.3
		c-2.6,0.6-5.3,1.1-8.1,1.4c-0.3,0-0.5,0-0.8,0.1c-0.6,0.1-1.2,0.1-1.8,0.2c-2,0.2-4.3,0.3-6.9,0.3c-1.6,0-3.2-0.1-4.8-0.2
		c-0.1,0-0.2,0-0.3,0c-1.4-0.1-2.8-0.2-4.2-0.4c-0.2,0-0.3,0-0.5-0.1c-2.9-0.4-5.8-0.9-8.4-1.6c-0.1,0-0.2,0-0.3-0.1
		c-1.2-0.3-2.3-0.6-3.4-1c-0.2-0.1-0.5-0.2-0.7-0.2c-1-0.3-1.9-0.7-2.8-1.1c-0.2-0.1-0.4-0.1-0.5-0.2c-1.1-0.5-2.1-1-3.1-1.5
		c0,0-0.1,0-0.1-0.1c-0.9-0.5-1.7-1-2.5-1.5c-0.1-0.1-0.2-0.1-0.3-0.2l1.9,17.8c2.6,1.5,5.3,2.9,8.1,4.4
		c9.7,5.1,19.7,10.4,27.4,18.6c4.8,5,8.1,10.6,9.8,16.3c2-1.4,3.2-2.9,3.3-4.2c0-0.2,0-0.4,0.1-0.5L326.3,349.2z"/>
	<path class="st3" d="M294.8,393.8c-7.1-7.4-16.6-12.5-25.8-17.4c-8.4-4.4-16.3-8.6-21.9-14.3c-0.7-0.7-2.1-1.8-3.5-2.9
		c-0.8-0.6-1.6-1.3-2.4-1.9c1.4,14.2,7.4,45.4,23.1,60.6c10,9.6,18,14.2,24.6,14.2c3.5,0,6.7-1.3,9.6-4c3.4-3.1,5.4-7.6,5.6-12.8
		C304.5,408.1,301.1,400.4,294.8,393.8z"/>
	<path class="st0" d="M338.9,161.4c-14.2,0.5-25.9,11.5-28.4,26.7c-0.3,1.7,0.9,3.3,2.6,3.6c0.2,0,0.3,0,0.5,0
		c1.5,0,2.8-1.1,3.1-2.6c2-12.2,11.3-21,22.5-21.5c1.7-0.1,3.1-1.5,3-3.2S340.6,161.4,338.9,161.4z"/>
	<path class="st0" d="M258.3,255.6c-0.4-1.7-2-2.8-3.7-2.4c-14.1,2.9-24.1,15.6-24.1,30.8c0,1.7,1.4,3.1,3.1,3.1l0,0
		c1.7,0,3.1-1.4,3.1-3.1c0.1-12.2,8-22.4,19.2-24.8C257.6,258.9,258.7,257.2,258.3,255.6z"/>
	<path class="st0" d="M383.2,226.9l-25.4,8c-0.6,0.2-1,0.9-0.8,1.5c0.2,0.5,0.6,0.8,1.1,0.8c0.1,0,0.2,0,0.4-0.1l25.4-8
		c0.6-0.2,1-0.9,0.8-1.5C384.4,227,383.8,226.7,383.2,226.9z"/>
	<path class="st0" d="M380.8,204.8c-0.4-0.5-1.1-0.7-1.6-0.3L351.3,224c-0.5,0.4-0.7,1.1-0.3,1.6c0.2,0.3,0.6,0.5,1,0.5
		c0.2,0,0.5-0.1,0.7-0.2l27.8-19.4C381,206.1,381.2,205.4,380.8,204.8z"/>
	<path class="st0" d="M360.2,196c-0.5-0.4-1.2-0.4-1.6,0.1l-16.5,18.1c-0.4,0.5-0.4,1.2,0.1,1.6c0.2,0.2,0.5,0.3,0.8,0.3
		s0.6-0.1,0.9-0.4l16.5-18.1C360.7,197.2,360.7,196.4,360.2,196z"/>
	<path class="st0" d="M272.3,273.3c-0.3-0.5-1.1-0.7-1.6-0.4l-18.4,11.4c-0.5,0.3-0.7,1.1-0.4,1.6c0.2,0.4,0.6,0.6,1,0.6
		c0.2,0,0.4-0.1,0.6-0.2l18.4-11.4C272.5,274.5,272.7,273.8,272.3,273.3z"/>
	<path class="st0" d="M277.8,284.2c-0.5-0.4-1.2-0.4-1.7,0L254,307.4c-0.4,0.5-0.4,1.2,0,1.7c0.2,0.2,0.5,0.3,0.8,0.3
		s0.6-0.1,0.8-0.4l22.1-23.2C278.3,285.4,278.3,284.7,277.8,284.2z"/>
	<path class="st0" d="M286.6,295c-0.6-0.2-1.3,0.1-1.5,0.7l-7.5,18.7c-0.2,0.6,0.1,1.3,0.7,1.5c0.1,0.1,0.3,0.1,0.4,0.1
		c0.5,0,0.9-0.3,1.1-0.7l7.5-18.7C287.5,295.9,287.2,295.3,286.6,295z"/>
	<path class="st3" d="M455.2,197.1c4.7,9.6,9.5,19.6,16.6,27c6.1,6.3,13.1,9.8,19.7,9.8l0,0c5.1,0,9.7-2.1,12.8-5.8
		c7.4-8.9,4.4-20-9.7-36.1c-14.5-16.5-34.8-28.5-48.3-28.5c-4.8,0-8.5,1.5-11.1,4.5c-0.2,0.2-0.4,0.5-0.6,0.7
		c2.4,1.5,4.7,3.3,6.8,5.5C446.9,180.2,450.9,188.4,455.2,197.1z"/>
	<path class="st9" d="M313.4,323.5c-0.4-0.1-0.8-0.2-1.2-0.3v25c9-2.4,15.6-6.5,17.2-10.8l0.2-0.9c0.1-0.3,0.1-0.6,0.2-0.8
		C330.2,331,323.6,326.1,313.4,323.5z"/>
	<path class="st9" d="M293.8,350.6c1.6,0,3.1-0.1,4.5-0.2l0.2-28.9c-0.6,0-1.2,0-1.8,0c-20.5,0-35.4,7.8-35.9,14.8
		c0,0.5,0,1,0.1,1.6C262.2,344,275.2,350.6,293.8,350.6z"/>
	<path class="st10" d="M305.1,277.2c-1.2,0.5-1.9,1.6-2,2.8l-0.4,71c1.8-0.2,3.5-0.5,5.1-0.9l0.1-68.6l1.2-0.6
		c5.4-2.6,18.8-9.3,25.3-14.3c-2.3-0.5-4.8-0.9-6.5-0.9c-0.7,0-0.9,0.1-0.9,0.1L305.1,277.2z"/>
	<path class="st5" d="M672.1,326.7c-0.7-4.8-2.5-9.7-4.7-14.3c-1.5-3.1-3.1-6.2-4.9-9.2c0.4,9.1-1.1,20.2-8.9,26.1
		c-4.2,3.2-8.3,5.3-12.5,7c0.2,0,0.3,0.1,0.5,0.1c0.1,0,0.2,0.1,0.3,0.1h0.1c4.4,2.1,9.4,3.9,14.2,4.6c4.8,0.7,9.7,0.2,12.7-2.5
		c0.8-0.6,1.4-1.5,1.9-2.2l0.5-0.9l0.2-0.4l0,0l0,0l0.1-0.2c0.2-0.4,0.4-0.9,0.5-1.4C672.5,331.4,672.5,329,672.1,326.7z"/>
	<path class="st5" d="M209.2,222.1c19-8.3,39.6-27,47.7-36.5c9.4-10.9,17.4-19.5,27.7-29.4c3.2-3,12.6-10.6,13.3-13.3
		c1-4.1-0.8-10.4-1.5-14.4c-1.4-8.2-3.3-16.3-4.8-24.5c-0.2,1-0.5,2-0.7,3c-1.1,5.3-1.9,10.8-1.9,16.2c-0.1,5.4,0.5,10.8,1.9,15.9
		c0.3,1.1,0,2.3-0.8,3L209.2,222.1z"/>
	<path class="st11" d="M542.7,212.8c-8.4-3.6-16.8-6.9-25.4-10c-3-1.1-6-2.1-9-3.1c2.2,3.4,3.9,7.1,5,10.8
		C523.1,210.4,532.9,211.2,542.7,212.8z"/>
	<path class="st5" d="M254.7,338.7c-0.2-1.1-0.2-2-0.2-3c0.2-2.2,1-4.2,2.3-6.2c-10.8-6.5-21.2-14.2-31.1-22.5
		c-15.4-12.8-29.8-26.8-45.2-39.6c-8.7-7.3-17.2-15-24.4-23.7c0.4,1.5,0.9,3,1.4,4.4c1.6,4.7,3.5,9.4,5.7,13.9
		c4.3,9.1,9.5,17.7,15.4,25.9c11.7,16.4,26,31,41.4,44.3c5.4,4.7,11,9.1,16.8,13.4c0.2,0.2,5.9,4.3,6.2,4.5c4.6,3.3,9.3,6.5,14,9.6
		L254.7,338.7C254.7,338.8,254.7,338.8,254.7,338.7z"/>
	<path class="st5" d="M616.3,395.3l21.3-57c0.1-0.3,0.3-0.5,0.4-0.8c-0.1,0.1-0.3,0.1-0.4,0.2c-1,1.8-2.3,4-2.7,4.8
		c-1.1,2.1-2.3,4.1-3.4,6.2c-3.2,5.8-6.5,11.6-9.4,17.5c-2.9,5.8-5.6,11.4-7.6,17.7c-0.4,1.2-0.7,2.3-1,3.5c5.8,8.9,1.7,23.9-8,28
		c-31.6,13.6-63.9,9.3-97.2,8.2c-21.6-0.7-42.7-0.8-64.1-4.4c-45.3-7.7-92.3-24.7-111.4-68.7c-0.1,0-0.3,0-0.4,0l-11.5,43.4
		c1,0.4,2,0.9,3,1.3c18.7,7.9,38,14.8,57.6,20.3c9.8,2.8,19.7,5.3,29.6,7.5c9.9,2.2,19.9,4.1,30,5.8c20.1,3.2,40.4,5.3,60.8,6.2
		c10.2,0.4,20.4,0.6,30.5,0.5c10.2-0.2,20.3-0.6,30.5-1.3c9.3-0.7,18.5-1.3,27.6-2.4s18.2-2.6,26.8-5.3c4.2-1.4,8.4-3.1,11.7-5.4
		c1.7-1.2,3.1-2.6,4-4.1c0.9-1.4,1.6-3.6,2-5.5s0.3-3.7-0.3-4.8c-0.6-1.2-1.9-2.2-3.7-2.9c-1.8-0.7-3.9-1.2-6.2-1.7
		c-1.1-0.2-2.3-0.5-3.7-0.9c-0.7-0.2-1.4-0.5-2.2-0.9s-2-1.2-2.6-2.9C616,396.8,616,396.1,616.3,395.3L616.3,395.3z"/>
	<path class="st5" d="M475.5,209.6c-9.9-5.5-19.5-17.7-25.5-27c-2.3-3.6-5.4-6.2-8.7-8.4c0.1,0.1,0.1,0.1,0.2,0.2
		c5.4,5.8,9.4,14,13.7,22.8c4.7,9.6,9.5,19.6,16.6,27c6.1,6.3,13.1,9.8,19.7,9.8l0,0c5.1,0,9.7-2.1,12.8-5.8
		c3.7-4.5,4.8-9.5,3.2-15.5C497.7,216.2,486.6,215.7,475.5,209.6z"/>
	<path class="st5" d="M620.3,134.6c-0.8-1.4-1.7-2.7-2.8-3.7c0,0.3,0,0.7,0,1c7.4,25.7,5.9,57.3-15.4,74.2c-2.6,2.1-5.6,3.9-8.8,5.5
		c-2.6,1.6-5.4,2.7-8.3,3.2c-0.2,0.1-0.4,0.1-0.6,0.2c0.1,4,0.1,8,0.1,11.9c7.3,4.2,14.4,8.7,21.3,13.4c0.8,0.6,1.6,1.2,2.5,1.7
		C628,196.6,630.3,151.9,620.3,134.6z"/>
	<path class="st5" d="M276,416c-7.7-7.9-12.8-18.6-15.2-29.3c-1.9-8.4-2.7-14-7.5-19.4c-2.2-1.6-4.3-3.3-6.1-5.1
		c-0.7-0.7-2.1-1.8-3.5-2.9c-0.8-0.6-1.6-1.3-2.4-1.9c1.4,14.2,7.4,45.4,23.1,60.6c10,9.6,18,14.2,24.6,14.2c3.5,0,6.7-1.3,9.6-4
		c0.9-0.8,1.6-1.6,2.3-2.6C291.7,426.4,282.9,423.1,276,416z"/>
	<path class="st1" d="M472,178.2c6.7,3,13.6,6.6,19.9,11c-14.3-15-32.9-25.6-45.6-25.6c-4.8,0-8.5,1.5-11.1,4.5
		c-0.2,0.2-0.4,0.5-0.6,0.7c0.8,0.5,1.6,1.1,2.4,1.7C449.1,170.1,462.2,173.9,472,178.2z"/>
	<path class="st1" d="M594.9,139.5c4.8-6.7,11.4-10.6,18.4-12c-2.2-1.1-4.5-1.8-7.1-1.8c-3.3,0-6.7,1-9.4,2.9
		c-7.6,5.2-12.9,17.5-13.2,30.5c-0.1,4.5-0.1,8.9,0,13.3C585.1,160.5,588.2,148.9,594.9,139.5z"/>
	<path class="st1" d="M152.3,225.1c0.1,1.5,0.4,2.9,0.6,4.4c0.1,1.3,0.4,2.5,0.6,3.8c8.8-2.9,17.5-4.8,24.7-6.2
		c6.2-1.2,12.6-2.1,19.1-2.7c-0.6-0.4-1.3-0.7-2-1c-1.9-0.9-4-1.6-6.1-2.2c-4.2-1.2-8.7-1.9-13.1-2.4c-8-0.8-16.2-0.7-24.2,0.2v1.7
		C152,222.1,152.2,223.6,152.3,225.1z"/>
	<path class="st1" d="M332.5,114.9c12.3,18,31.9,27.1,48.4,40.7c15.6,12.8,35.1,18.3,55.2,22.2c-2.1-2.1-4.3-3.7-6.7-4.8
		c-11.1-4.4-22.1-9.3-32.6-15.4c-2.4-1.4-4.8-2.8-6.9-4.3l-3.3-2.2l-3.4-2.4c-4.4-3.2-8.6-6.7-12.7-10.3c-8.1-7.2-15.6-15-22.9-22.9
		c-7.3-7.8-14.4-15.8-22.2-22.7c-3.6-3.2-7.4-6.1-11.4-8.5C320.4,94.3,325.9,105.2,332.5,114.9z"/>
	<path class="st1" d="M572.6,238c23.6,13,45.2,26.3,65,44.9c10.2,9.6,20.4,18.9,29.6,29.1c-4.4-9.2-10.2-17.8-16.8-25.7
		c-1.7-2-3.4-3.9-5.2-5.7s-3.8-3.6-5.7-5.5c-3.8-3.7-7.8-7.1-11.8-10.6c-8.1-6.8-16.5-13.3-25.2-19.3c-8.8-5.9-17.8-11.5-27.1-16.6
		c-18.6-10.1-38.2-18.5-58.2-25.7c-3-1.1-6-2.1-9-3.1c2.8,4.4,5,9.1,5.8,13.9C533.6,221.9,554.1,227.8,572.6,238z"/>
	<path class="st9" d="M316,353.6h-0.1c-1.1,0.3-2.2,0.7-3.4,0.9c0,0,0,0-0.1,0c-0.4,0.1-0.7,0.2-1.1,0.3c-2.6,0.6-5.3,1.1-8.1,1.4
		c-0.3,0-0.5,0-0.8,0.1c-0.6,0.1-1.2,0.1-1.8,0.2c-2,0.2-4.3,0.3-6.9,0.3c-1.6,0-3.2-0.1-4.8-0.2c-0.1,0-0.2,0-0.3,0
		c-1.4-0.1-2.8-0.2-4.2-0.4c-0.2,0-0.3,0-0.5-0.1c-2.9-0.4-5.8-0.9-8.4-1.6c-0.1,0-0.2,0-0.3-0.1c-1.2-0.3-2.3-0.6-3.4-1
		c-0.2-0.1-0.5-0.2-0.7-0.2c-0.9-0.3-1.8-0.6-2.6-1c0.1,5.7,0.2,11.4,0.3,17.1c0.9,0.5,1.9,1,2.8,1.5c9.7,5.1,19.7,10.4,27.4,18.6
		c3.4,3.5,6,7.3,7.8,11.3c5.3-16.7,12.1-33,16.2-50C321.2,351.8,318.7,352.8,316,353.6z"/>
	<path class="st1" d="M265.6,339.4c3.9-5.5,12-10.2,16.8-11.3c0.1,0,0.3-0.1,0.4-0.1c1.2-0.5,2.2-0.9,3-1.1c3.9-1,8.3-1.9,12.8-2.3
		v-3.1c-0.6,0-1.2,0-1.8,0c-20.5,0-35.4,7.8-35.9,14.8c0,0.5,0,1,0.1,1.6c0.3,1.3,1.1,2.6,2.4,3.8
		C263.9,340.9,264.7,340.2,265.6,339.4z"/>
	<path class="st1" d="M313.4,323.5c-0.4-0.1-0.8-0.2-1.2-0.3v4.5c7,2.1,13.3,7,13.7,14.2c1.7-1.4,2.9-2.9,3.5-4.4l0.2-0.9
		c0.1-0.3,0.1-0.6,0.2-0.8C330.2,331,323.6,326.1,313.4,323.5z"/>
	<path class="st12" d="M303.1,285.7l-0.1,11.5c1.6-1,3.2-1.9,4.9-2.8V286C306.3,285.9,304.7,285.8,303.1,285.7z"/>
	<path class="st12" d="M321.8,274.5c1.9-1,3.8-2.1,5.7-3.2c-1.5-1.1-2.9-2.2-4.4-3.4l-6.6,3.4C318.2,272.4,320,273.5,321.8,274.5z"
		/>
	<path class="st12" d="M309.6,274.9l-4.5,2.3c-0.6,0.3-1.1,0.7-1.5,1.3c3.4,0,6.9,0.1,10.3,0.1c0.1,0,0.1-0.1,0.2-0.1
		C312.5,277.4,311,276.1,309.6,274.9z"/>
	<path class="st12" d="M302.9,306.1l-0.1,13.8c1.7-1.2,3.3-2.4,5-3.5V303C306.2,304,304.5,305,302.9,306.1z"/>
	<path class="st12" d="M302.8,328.9l-0.1,11.7c1.4-1.9,3.2-3.7,5.1-5.4v-9.4C306.2,326.8,304.5,327.9,302.8,328.9z"/>
</g>
</svg>
