<?xml version="1.0" encoding="utf-8"?>
<!-- Generator: Adobe Illustrator 22.1.0, SVG Export Plug-In . SVG Version: 6.00 Build 0)  -->
<svg version="1.1" id="Layer_1" xmlns="http://www.w3.org/2000/svg" xmlns:xlink="http://www.w3.org/1999/xlink" x="0px" y="0px"
	 viewBox="0 0 1000 1000" style="enable-background:new 0 0 1000 1000;" xml:space="preserve">
<style type="text/css">
	.st0{fill:#111111;}
	.st1{fill:#EEEEEE;}
	.st2{fill:#767676;}
	.st3{fill:#FFFFFF;}
	.st4{fill:#E50022;}
	.st5{fill:#FF7D87;}
	.st6{fill:#55234A;}
	.st7{fill:#FFD13D;}
</style>
<g>
	<path class="st0" d="M785.2,903.4c0,10.5-133.7,19-298.6,19c-165,0-298.6-8.5-298.6-19s133.7-19,298.6-19S785.2,892.9,785.2,903.4z
		"/>
	<path class="st0" d="M743.6,620.3c-2.4,0-5.3-0.2-7.9-1.9c-1.9-1.3-7.1-5-18.4-44.6c-11.3-39.6-8.9-45.4-7.9-47.5
		c1.3-3.1,3.5-8.2,40.9-19.3c16-4.8,38.4-10.5,48.5-10.5c2.4,0,5.3,0.2,7.9,1.9c1.9,1.3,7.1,5,18.4,44.6
		c11.3,39.6,8.9,45.4,7.9,47.5c-1.3,3.1-3.5,8.1-40.9,19.3C776,614.6,753.7,620.3,743.6,620.3z M724.1,532.9
		c0.6,12.4,14.3,60.6,20.5,71.7c15.3-0.6,63.5-15,74-21.1c-0.6-12.4-14.3-60.6-20.5-71.7C782.7,512.5,734.6,527,724.1,532.9z"/>
	<path class="st1" d="M185.9,499.1c0.8-20.5,2.1-41.1,3.9-61.6c-21.6,7.1-41.1,23.8-51.7,39.2c-14.8,20.9-22.6,47.4-19.3,65.6
		c1.5,8.4,5.2,14.5,11,18.5c2.6,1.8,5.6,2.6,9.3,2.6c10.5,0,23.2-7.4,30.5-17.7C174.6,538.2,180.4,519.7,185.9,499.1z"/>
	<path class="st1" d="M743.3,465.6c-17.6-17.9-39.5-31.6-58.2-37.1c3.1,22.4,5.6,44.8,8.1,67.2c2.9,4.5,6,8.7,9.7,12.6
		c10.6,11.3,24,17.9,36.6,17.9c7.7,0,14.7-2.4,19.7-6.9c4.8-4.4,7.3-9,7.4-14.3C767,494.9,759.1,481.7,743.3,465.6z"/>
	<path class="st0" d="M751.2,457.8c-20.6-20.8-46.1-36.1-67.7-41.3c-5.2-36.4-11.1-72.8-18.2-108.9c-3.9-19.7-8.1-39.2-12.7-58.7
		c-4.7-19.5-9.7-38.8-15.5-58s-12.1-38.2-19.8-56.9c-7.7-18.7-16.3-37.1-28.8-53.8c-0.2-0.2-0.3-0.3-0.5-0.6c-2.1-2.1-5.6-2.3-7.7,0
		l0,0c-3.7,3.7-7.4,7.4-11,11.1c-3.5,3.9-7.1,7.7-10.5,11.6c-6.8,7.9-13.2,16.1-19.3,24.7c-6,8.5-11.6,17.4-16.8,26.6
		c-2.6,4.5-5,9.2-7.3,13.9l-3.4,7.1l-1.8,4.2l-155,16.9c-1.6-8.9-3.7-17.6-6.3-26.3c-3.1-10.3-6.6-20.5-10.8-30.3
		c-4.2-9.8-8.9-19.5-14.5-28.8c-5.6-9.3-11.9-18.2-19.8-26.1l-0.2-0.2c-0.2-0.2-0.5-0.5-0.8-0.6c-2.4-1.8-5.8-1.1-7.6,1.5
		c-3.1,4.4-6.1,8.5-9,13.1l-4.4,6.6l-4,6.8l0,0c-18,30.1-32.1,62.5-43.3,95.4c-11.3,33-20,66.9-26.9,101
		c-6.9,34.2-12.1,68.6-15.6,103.1c-0.5,4.8-1,9.8-1.5,14.7c-25.9,6.9-49,26.1-62,44.6c-16.6,23.7-25,52.7-21.3,74
		c1.9,11.1,7.4,20.1,15.5,25.8c4.4,3.1,9.7,4.7,15.6,4.7c14.3,0,30.1-9,39.6-22.4c2.1-3.1,4.2-7.3,6.3-12.4c-0.3,26.4,0,53,1,79.4
		c1.3,34.8,3.9,69.5,7.9,103.9c1,8.4,2.1,16.6,3.2,25c-19.5-18-37.1-38.7-55.3-59.8c-11.8-13.7-23.8-27.9-36.7-41.6
		c-12.9-13.9-30.3-22.4-45.4-22.4c-2.7,0-5.5,0.3-8.1,0.8C33.6,629,18.8,647.2,24.1,671c9.8,44.5,86.7,109.1,181,128.9
		c1.8,8.7,3.7,17.4,5.8,26.1c4.2,16.9,9,33.8,15.5,50.4c3.7,9,10.3,16.9,18.5,22.2c4.2,2.6,8.7,4.7,13.5,5.8l3.7,0.8l3.7,0.5h4
		l3.2-0.2c0,0,0.2,0,0.3,0l2.6-0.3c1-0.2,2.1-0.3,3.1-0.5c2.1-0.5,4.2-1.1,6.1-1.9c4-1.8,7.6-4.4,10.5-7.4c1.5-1.6,2.7-3.4,3.9-5.2
		l0.8-1.5l0.6-1.3l0.6-1.3l0.5-1.1l4.2-9.7l15.5-35.3l257.2,6.3L582,857c0.8,2.4,1.3,4.7,2.3,7.3l1.3,3.9l1.6,3.7
		c4.7,9.8,11.8,18.5,20.5,25c8.9,6.4,19.2,10.6,30.3,11.8l3.9,0.3l3.7,0.2c2.7,0,5.8,0,8.5-0.5c5.6-0.8,11.3-3.1,16-6.3
		c4.8-3.2,8.9-7.6,11.8-12.6c0.6-1.3,1.5-2.4,2.1-3.9l1-2.1l0.6-1.8l0.3-0.8l0.2-0.5v-0.2l0.2-0.5l0.5-1.8l1-3.7
		c2.6-9.8,4.7-19.8,6.4-29.6c3.4-19.8,5.6-39.8,7.1-59.8c2.9-40,3.2-80.1,2.4-120c-1-40-3.2-79.9-6.4-119.6
		c-0.8-9.5-1.6-19-2.6-28.4c12.7,13.4,28.5,20.8,44.2,20.8c10.5,0,20-3.4,27.1-9.7s11-13.9,11.1-22.2
		C778.2,491.7,769.7,476.5,751.2,457.8z M759.2,519.2c-5,4.5-11.9,6.9-19.7,6.9c-12.7,0-25.9-6.4-36.6-17.9
		c-3.7-3.9-6.8-8.2-9.7-12.6c-2.4-22.4-5-44.8-8.1-67.2c18.5,5.5,40.6,19.2,58.2,37.1c15.8,16,23.7,29.3,23.4,39.5
		C766.5,510.4,764.1,515,759.2,519.2z M690.7,783.8c-1.5,19.7-3.7,39.3-6.9,58.8c-1.8,9.7-3.7,19.3-6.3,28.7l-1,3.5l-0.5,1.8
		l-0.2,0.5v0.2l0,0l-0.3,0.8l-0.6,1.8l-0.6,1.3c-0.3,0.8-1,1.8-1.5,2.7c-2.1,3.5-5,6.8-8.5,9c-3.4,2.3-7.4,3.9-11.6,4.5
		c-2.1,0.3-4.2,0.5-6.3,0.3l-3.7-0.2l-3.5-0.3c-1.3,0-2.3-0.3-3.2-0.5c-1-0.2-2.1-0.3-3.2-0.6c-2.3-0.5-4.4-1.3-6.4-1.9
		c-4.2-1.6-8.2-3.9-11.8-6.4c-7.4-5.3-13.2-12.6-16.9-20.6l-1.3-3.1l-1.1-3.2c-0.6-2.3-1.5-4.7-2.1-7.1l-4.2-14.3
		c-0.6-2.3-2.7-3.9-5.2-4l-264.9-6.4c-2.3,0-4.4,1.1-5.2,3.4L296.6,871l-4.2,9.7l-1,2.3l-0.6,1.1l-0.5,0.8c-0.6,1.1-1.5,2.3-2.4,3.4
		c-1.9,2.1-4.2,3.7-6.6,4.8c-1.3,0.5-2.6,1-3.9,1.3c-0.6,0.2-1.3,0.2-2.1,0.3l-2.6,0.3l-3.1,0.2h-2.6l-2.7-0.3l-2.7-0.5
		c-3.5-0.8-7.1-2.4-10.2-4.4c-6.3-4-11.4-10.2-14.2-17.1c-6.1-15.6-11-32.2-15-48.8c-8.1-33.4-13.4-67.5-17.4-101.7
		c-4-34.2-6.6-68.6-7.9-103.1c-1.3-34.5-1.5-69-0.5-103.5c1.1-34.5,3.4-69,6.9-103.1c3.5-34.3,8.7-68.5,15.5-102.2
		s15.5-67.2,26.6-99.6c11.1-32.4,24.8-64.1,42.4-93.3l0,0l4-6.6l4.2-6.4c1.5-2.4,3.1-4.7,4.7-7.1c5,5.8,9.5,12.4,13.7,19.2
		c5.2,8.7,9.8,18,13.7,27.4c4,9.5,7.4,19.2,10.3,29.2c2.9,9.8,5.3,20,6.9,30c0.5,2.9,3.1,5,6.1,4.7l163.4-17.7
		c1.9-0.2,3.7-1.5,4.5-3.4v-0.2l2.9-6.9l3.2-6.8c2.3-4.5,4.5-9,6.9-13.4c5-8.7,10.3-17.2,16.1-25.5s12.1-16.3,18.7-23.8
		c3.2-3.9,6.6-7.6,10.2-11.3c1.9-2.1,4-4.2,6-6.1c9.5,14,16.9,30,23.5,46.1c7.4,18.2,13.7,36.9,19.3,55.9s10.6,38.2,15.3,57.4
		c4.7,19.3,8.7,38.7,12.6,58.2c7.7,39,14,78.2,19.3,117.6c5.3,39.3,9.7,79,12.9,118.4c3.2,39.6,5.5,79.3,6.4,118.9
		C694,704.5,693.6,744.3,690.7,783.8z M53.8,636.4c1.8-0.3,3.7-0.6,5.6-0.6c11.9,0,26.6,7.4,37.4,18.9
		c12.7,13.5,24.7,27.6,36.4,41.1c21.4,25,42.2,49.3,66.2,69.8c1.1,7.6,2.4,15.3,3.9,22.9c-89.9-20.5-159.7-82.8-167.7-119.4
		C31.2,649.1,44.4,638.5,53.8,636.4z M138.7,563.5c-3.7,0-6.8-1-9.3-2.6c-5.8-4-9.3-10.3-11-18.5c-3.2-18.2,4.5-44.5,19.3-65.6
		c10.8-15.3,30.1-31.9,51.7-39.2c-1.8,20.5-3.1,40.9-3.9,61.6c-5.3,20.6-11.3,39.2-16.6,46.7C162,556,149.1,563.5,138.7,563.5z"/>
	<path class="st1" d="M203.3,788.3c-1.5-7.6-2.7-15.3-3.9-22.9c-24-20.5-44.8-44.6-66.2-69.8c-11.6-13.5-23.7-27.7-36.4-41.1
		c-10.8-11.4-25.5-18.9-37.4-18.9c-1.9,0-3.9,0.2-5.6,0.6c-9.3,2.1-22.7,12.7-18.2,32.5C43.6,705.5,113.4,767.9,203.3,788.3z"/>
	<path class="st1" d="M686.7,545.8c-3.2-39.6-7.6-79.1-12.9-118.4s-11.8-78.6-19.3-117.6c-3.9-19.5-8.1-38.8-12.6-58.2
		c-4.7-19.3-9.7-38.5-15.3-57.4c-5.6-19-11.9-37.7-19.3-55.9c-6.6-16.1-14-32.1-23.5-46.1c-2.1,2.1-4,4-6,6.1
		c-3.4,3.7-6.8,7.4-10.2,11.3c-6.6,7.7-12.7,15.6-18.7,23.8c-5.8,8.2-11.3,16.8-16.1,25.5c-2.4,4.4-4.8,8.9-6.9,13.4l-3.2,6.8
		l-2.9,6.9v0.2c-0.8,1.9-2.6,3.1-4.5,3.4l-163.4,17.7c-2.9,0.3-5.6-1.8-6.1-4.7c-1.6-10.2-4-20.1-6.9-30s-6.3-19.7-10.3-29.2
		c-4-9.5-8.5-18.7-13.7-27.4c-4-6.8-8.5-13.2-13.7-19.2c-1.6,2.3-3.2,4.7-4.7,7.1l-4.2,6.4l-4,6.6l0,0
		c-17.6,29.3-31.3,60.9-42.4,93.3c-11.1,32.6-19.7,65.9-26.6,99.6c-6.8,33.7-11.9,67.8-15.5,102.2c-3.7,34.3-6,68.6-6.9,103.1
		c-1,34.5-0.8,69,0.5,103.5c1.3,34.5,3.9,69,7.9,103.1c4,34.2,9.5,68.3,17.4,101.7c4,16.6,8.9,33.2,15,48.8
		c2.9,6.9,7.9,13.1,14.2,17.1c3.2,1.9,6.6,3.5,10.2,4.4l2.7,0.5l2.7,0.3h2.6l3.1-0.2l2.6-0.3c0.8-0.2,1.5-0.2,2.1-0.3
		c1.3-0.3,2.7-0.6,3.9-1.3c2.6-1.1,4.8-2.7,6.6-4.8c1-1,1.8-2.1,2.4-3.4l0.5-0.8l0.6-1.1l1-2.3l4.2-9.7l17.1-38.7
		c1-2.1,3.1-3.4,5.2-3.4l264.9,6.4c2.4,0,4.5,1.8,5.2,4l4.2,14.3c0.6,2.4,1.5,4.8,2.1,7.1l1.1,3.2l1.3,3.1
		c3.9,8.2,9.7,15.5,16.9,20.6c3.7,2.6,7.6,4.8,11.8,6.4c2.1,0.8,4.2,1.5,6.4,1.9c1.1,0.3,2.1,0.5,3.2,0.6c1.1,0.2,1.9,0.5,3.2,0.5
		l3.5,0.3l3.7,0.2c2.3,0,4.2,0,6.3-0.3c4.2-0.6,8.1-2.3,11.6-4.5c3.5-2.3,6.3-5.5,8.5-9c0.5-1,1.1-1.9,1.5-2.7l0.6-1.3l0.6-1.8
		l0.3-0.8l0,0v-0.2l0.2-0.5l0.5-1.8l1-3.5c2.6-9.3,4.5-19,6.3-28.7c3.2-19.3,5.5-39,6.9-58.8c2.9-39.5,3.2-79.3,2.4-118.9
		C692.2,625.1,689.9,585.4,686.7,545.8z M583.4,412.4h40.9c1.1,0,2.1,1,2.1,2.1s-1,2.1-2.1,2.1h-40.9c-1.1,0-2.1-1-2.1-2.1
		S582.3,412.4,583.4,412.4z M270,421.2l36.9-1.3c1.1,0,2.1,0.8,2.1,1.9s-0.8,2.1-1.9,2.1l-36.9,1.3l0,0c-1.1,0-2.1-0.8-2.1-1.9
		C268.1,422.4,268.9,421.4,270,421.2z M257.1,463c-0.2,0-0.5,0.2-0.6,0.2c-0.8,0-1.8-0.6-1.9-1.5c-0.3-1.1,0.3-2.3,1.3-2.6
		l51.2-16.4c1.1-0.3,2.3,0.3,2.6,1.3c0.3,1.1-0.3,2.3-1.3,2.6L257.1,463z M315.3,471.4L290,493.9c-0.3,0.3-1,0.5-1.5,0.5
		c-0.6,0-1.1-0.2-1.6-0.6c-0.8-0.8-0.6-2.3,0.2-2.9l25.3-22.6c0.8-0.8,2.3-0.6,2.9,0.2C316.1,469.3,316.1,470.6,315.3,471.4z
		 M372.3,351.3c-1.9,2.4-5.3,2.9-7.7,1c-15.8-12.1-36.9-10.3-51.2,4.5c-1.1,1.1-2.6,1.6-4,1.6c-1.5,0-2.9-0.5-3.9-1.6
		c-2.3-2.1-2.3-5.6,0-7.9c18.5-18.9,45.8-21.1,66.1-5.5C373.8,345.5,374.3,348.9,372.3,351.3z M469.2,400.6L455,420.1
		c-1.8,2.4-4.4,4-7.4,4.4c-2.9,0.3-6-0.5-8.2-2.4L421,406.4c-1.5-1.1-2.1-3.1-1.8-4.8c0.3-1.8,1.5-3.4,3.2-4.2
		c11.1-4.8,31.3-7.3,43.3-5c1.8,0.3,3.4,1.6,4,3.2C470.5,397.1,470.3,399,469.2,400.6z M520.6,347.9c-2.4,1.8-6,1.3-7.7-1.3
		c-1.8-2.4-1.3-6,1.3-7.7c21.4-15.5,48.5-13.2,66.1,5.5c2.1,2.3,1.9,5.8-0.3,7.9c-1.1,1-2.4,1.5-3.9,1.5c-1.5,0-2.9-0.6-4-1.8
		C558.3,337.5,537.2,335.8,520.6,347.9z M617.3,486.5c-0.3,0.6-1.1,1-1.8,1c-0.3,0-0.8-0.2-1.1-0.3l-39.5-24.5
		c-1-0.6-1.3-1.9-0.6-2.9c0.6-1,1.9-1.3,2.9-0.6l39.5,24.5C617.6,484.3,617.9,485.5,617.3,486.5z M640.1,453.3
		c-0.2,1-1.1,1.6-2.1,1.6c-0.2,0-0.3,0-0.5,0l-55.9-13.7c-1.1-0.3-1.8-1.5-1.6-2.6c0.3-1.1,1.5-1.8,2.6-1.6l55.9,13.7
		C639.7,451.1,640.5,452.2,640.1,453.3z"/>
	<path class="st0" d="M579.7,352.3c2.3-2.1,2.4-5.6,0.3-7.9c-17.6-18.7-44.6-20.9-66.1-5.5c-2.4,1.8-3.1,5.3-1.3,7.7
		c1.8,2.4,5.3,3.1,7.7,1.3c16.8-12.1,37.9-10.5,51.4,4c1.1,1.1,2.6,1.8,4,1.8C577.3,353.7,578.7,353.2,579.7,352.3z"/>
	<path class="st0" d="M371.4,343.6c-20.3-15.6-47.5-13.4-66.1,5.5c-2.1,2.3-2.1,5.6,0,7.9c1.1,1.1,2.4,1.6,3.9,1.6s2.9-0.5,4-1.6
		c14.5-14.7,35.6-16.4,51.2-4.5c2.4,1.9,6,1.5,7.7-1C374.3,348.9,373.8,345.5,371.4,343.6z"/>
	<path class="st0" d="M616.6,483.6l-39.5-24.5c-1-0.6-2.3-0.3-2.9,0.6c-0.6,1-0.3,2.3,0.6,2.9l39.5,24.5c0.3,0.2,0.6,0.3,1.1,0.3
		c0.6,0,1.5-0.3,1.8-1C617.9,485.5,617.6,484.3,616.6,483.6z"/>
	<path class="st0" d="M638.5,450.7L582.6,437c-1.1-0.3-2.3,0.5-2.6,1.6c-0.3,1.1,0.5,2.3,1.6,2.6l55.9,13.7c0.2,0,0.3,0,0.5,0
		c1,0,1.8-0.6,2.1-1.6C640.5,452.2,639.7,451.1,638.5,450.7z"/>
	<path class="st0" d="M583.4,416.6h40.9c1.1,0,2.1-1,2.1-2.1s-1-2.1-2.1-2.1h-40.9c-1.1,0-2.1,1-2.1,2.1S582.3,416.6,583.4,416.6z"
		/>
	<path class="st0" d="M270.2,425.4L270.2,425.4l36.9-1.3c1.1,0,2.1-1,1.9-2.1c0-1.1-1.1-2.1-2.1-1.9l-36.9,1.3c-1.1,0-2.1,1-1.9,2.1
		C268.1,424.6,269,425.4,270.2,425.4z"/>
	<path class="st0" d="M309.6,444c-0.3-1.1-1.5-1.8-2.6-1.3L255.8,459c-1.1,0.3-1.8,1.5-1.3,2.6c0.3,1,1.1,1.5,1.9,1.5
		c0.2,0,0.5,0,0.6-0.2l51.2-16.4C309.5,446.2,310,444.9,309.6,444z"/>
	<path class="st0" d="M312.4,468.3l-25.3,22.6c-0.8,0.8-1,2.1-0.2,2.9c0.5,0.5,1,0.6,1.6,0.6c0.5,0,1-0.2,1.5-0.5l25.3-22.6
		c0.8-0.8,1-2.1,0.2-2.9C314.6,467.5,313.4,467.5,312.4,468.3z"/>
	<path class="st0" d="M465.8,392.1c-12.1-2.1-32.1,0.2-43.3,5c-1.8,0.8-2.9,2.3-3.2,4.2c-0.3,1.8,0.5,3.7,1.8,4.8l18.4,15.6
		c2.3,1.9,5.2,2.9,8.2,2.4c2.9-0.3,5.6-1.9,7.4-4.4l14.2-19.5c1.1-1.5,1.3-3.4,0.6-5.2C469.2,393.7,467.6,392.4,465.8,392.1z"/>
	<path class="st2" d="M693.2,664.9c-1-39.6-3.2-79.4-6.4-118.9c-3.2-39.6-7.6-79.1-12.9-118.4s-11.8-78.6-19.3-117.6
		c-3.9-19.5-8.1-38.8-12.6-58.2c-4.7-19.3-9.7-38.5-15.3-57.4c-5.6-19-11.9-37.7-19.3-55.9c-5.5-13.4-11.6-26.7-19-38.8
		c7.7,66.9,29.3,131.3,45,196.6c21.4,89.3,33.4,179.3,41.3,270.7c6.9,79.3,8.9,159.7-4,238.5c-3.9,23.4-9.5,54.6-32.6,66.7
		c-13.4,7.1-31.7,2.3-41.3-9.2c-0.3-0.3-0.5-0.6-0.6-1l0.6,1.9l1.3,3.1c3.9,8.2,9.7,15.5,16.9,20.6c3.7,2.6,7.6,4.8,11.8,6.4
		c2.1,0.8,4.2,1.5,6.4,1.9c1.1,0.3,2.1,0.5,3.2,0.6c1.1,0.2,1.9,0.5,3.2,0.5l3.5,0.3l3.7,0.2c2.3,0,4.2,0,6.3-0.3
		c4.2-0.6,8.1-2.3,11.6-4.5c3.5-2.3,6.3-5.5,8.5-9c0.5-1,1.1-1.9,1.5-2.7l0.6-1.3l0.6-1.8l0.3-0.8l0,0v-0.2l0.2-0.5l0.5-1.8l1-3.5
		c2.6-9.3,4.5-19,6.3-28.7c3.2-19.3,5.5-39,6.9-58.8C693.6,744.3,694,704.5,693.2,664.9z"/>
	<path class="st2" d="M319.2,232.9c29-1.8,57.4-8.5,85.2-16.6c25.3-7.3,51.1-13.9,75.9-22.9l-128.9,14c-2.9,0.3-5.6-1.8-6.1-4.7
		c-1.6-10.2-4-20.1-6.9-30s-6.3-19.7-10.3-29.2c-4-9.5-8.5-18.7-13.7-27.4c-3.2-5.5-6.8-10.6-10.6-15.5
		C321.9,140.4,315.9,188.9,319.2,232.9z"/>
	<path class="st2" d="M437.1,828.1c-45.1-3.5-90.4-4.8-135.5-9.3c-3.1,15.6-7.4,31.3-18.5,42.9c-12.1,12.7-30.1,16.1-45.9,11.1
		c2.9,6.8,7.9,12.7,14,16.6c3.2,1.9,6.6,3.5,10.2,4.4l2.7,0.5l2.7,0.3h2.6l3.1-0.2l2.6-0.3c0.8-0.2,1.5-0.2,2.1-0.3
		c1.3-0.3,2.7-0.6,3.9-1.3c2.6-1.1,4.8-2.7,6.6-4.8c1-1,1.8-2.1,2.4-3.4l0.5-0.8l0.6-1.1l1-2.3l4.2-9.7l17.1-38.7
		c1-2.1,3.1-3.4,5.2-3.4l162.9,4C466.9,831,452.1,829.2,437.1,828.1z"/>
	<path class="st2" d="M168.8,447.7c12.1,28.8-1.1,81.2-14.8,99.7c-4.8,6.6-11.4,12.7-19,15.6c1.1,0.2,2.4,0.3,3.7,0.3
		c10.5,0,23.2-7.4,30.5-17.7c5.3-7.6,11.3-26.1,16.6-46.7c0.8-20.5,2.1-41.1,3.9-61.6C182.3,439.9,175.4,443.5,168.8,447.7z"/>
	<path class="st1" d="M720.5,503.1c-9.8-14.2-15.8-42.7-8.5-62.2c-9.2-5.5-18.4-9.8-26.7-12.2c3.1,22.4,5.6,44.8,8.1,67.2
		c2.9,4.5,6,8.7,9.7,12.6c10.6,11.3,24,17.9,36.6,17.9c2.1,0,4.2-0.3,6.1-0.6C735.9,520.2,727.2,512.6,720.5,503.1z"/>
	<path class="st2" d="M199.4,765.4c-14.2-12.1-27.4-25.6-40.1-39.8c-4.4,6.4-11,10.8-19.5,10.3c-41.1-2.3-92.2-39-104.1-82
		c-1.1,4.2-1.5,9.2-0.2,15c8.1,36.7,78,98.9,167.7,119.4C201.8,780.7,200.6,773,199.4,765.4z"/>
	<path class="st3" d="M130.5,542.4c-1.6-16.8,3.5-33.8,9.8-49.8c2.3-8.1,5.3-16,9-23.2c1.6-3.9,3.5-7.6,5.5-11.3
		c-6.8,6-12.4,12.2-16.8,18.4c-14.8,20.9-22.6,47.4-19.3,65.6c1.5,8.4,5.2,14.5,11,18.5c2.1,1.5,4.7,2.3,7.6,2.6
		C133.5,557.2,131.1,550.2,130.5,542.4z"/>
	<path class="st3" d="M49.7,647.6c24-3.9,44.5,16.3,58.8,32.7c9.5,11,21.9,19.5,34.8,27.2c-3.4-3.9-6.8-7.7-10-11.8
		c-11.6-13.5-23.7-27.7-36.4-41.1c-10.8-11.4-25.5-18.9-37.4-18.9c-1.9,0-3.9,0.2-5.6,0.6c-6.4,1.5-14.5,6.8-17.7,16.3
		C40.1,650.2,44.7,648.5,49.7,647.6z"/>
	<path class="st3" d="M743.3,465.6c-3.9-3.9-7.9-7.6-12.1-11c7.7,9.7,13.4,20.6,16,30.3c0.2,0.3,0.2,0.8,0.3,1.1
		c0.8,1.6,1.6,3.2,2.4,5c4.4,11.1,5.3,21.1,2.7,32.4c2.4-1.1,4.7-2.4,6.6-4c4.8-4.4,7.3-9,7.4-14.3
		C767,494.9,759.1,481.7,743.3,465.6z"/>
	<path class="st3" d="M224.4,710c-5.5-67-7.6-134.4-5.2-201.6c2.6-72.4,9.8-144.5,22.6-215.8c9.8-55.4,22.1-111.2,39.8-165
		c-14.7,26.3-26.6,54.1-36.3,82.7c-11.1,32.6-19.7,65.9-26.6,99.6c-6.8,33.7-11.9,67.8-15.5,102.2c-3.7,34.3-6,68.6-6.9,103.1
		c-1,34.5-0.8,69,0.5,103.5c1.3,34.5,3.9,69,7.9,103.1c4,34.2,9.5,68.3,17.4,101.7c3.4,13.9,7.4,27.7,12.1,40.9
		c-4-33.4-6.4-66.7-8.1-99.4C225.2,746.7,224.7,728.4,224.4,710z"/>
	<path class="st3" d="M539.6,180c9.7-15.8,17.7-32.9,25-50c4.8-11.4,9.7-22.6,14.8-33.5c-0.6,0.6-1.3,1.3-1.9,1.9
		c-3.4,3.7-6.8,7.4-10.2,11.3c-6.6,7.7-12.7,15.6-18.7,23.8c-5.8,8.2-11.3,16.8-16.1,25.5c-2.4,4.4-4.8,8.9-6.9,13.4l-3.2,6.8
		l-2.9,6.9v0.2c-0.3,0.8-1,1.5-1.6,2.1C526.9,188.1,535.6,186.5,539.6,180z"/>
	<path class="st2" d="M529.8,615.7c-40.6-30.1-104.7-20.9-139.1,0c-50.6,30.8-92.7,86-72.7,143.7c12.9,37.4,78.5,40.6,110.7,42.2
		c25.3,1.3,50.6-0.2,76.1-1.8c20.8-1.3,45-1,63.6-11.1C638.7,750.6,570.8,646.4,529.8,615.7z"/>
	<g>
		<path class="st0" d="M479.6,479.6c-9.3,0-17.1-2.7-22.9-8.1c-9.3-8.5-13.4-23.7-12.2-45c0-0.2,0-0.6,0-1.1c0-0.2,0-0.3,0-0.6
			c0-2.1,1.8-3.9,3.9-4c2.1,0,3.9,1.8,3.9,3.9c0,0.5,0,0.8,0,1.3c0,0.2,0,0.3,0,0.6c-1,19,2.3,32.1,9.7,39c5.5,5,13.5,6.9,23.8,5.5
			c2.1-0.3,4,1.3,4.4,3.4c0.3,2.1-1.3,4-3.4,4.4C484.5,479.4,481.9,479.6,479.6,479.6z"/>
		<path class="st0" d="M420.5,476.7c-3.5,0-7.4-0.6-11.4-1.8c-2.1-0.6-3.2-2.7-2.7-4.8c0.6-2.1,2.7-3.2,4.8-2.7
			c9,2.6,16.3,1.6,21.6-2.9c9.8-8.2,12.4-27.9,10.6-43.7c-0.3-2.1,1.3-4,3.4-4.4c2.1-0.2,4,1.3,4.4,3.4c1.9,16.4-0.5,39.6-13.2,50.4
			C432.9,474.6,427.3,476.7,420.5,476.7z"/>
	</g>
	<path class="st4" d="M473.2,582.5c-6,1-12.4,1.3-18.5,1.3c-6.1,0-12.6-0.5-18.5-1.3c-5.2,10.2-11.3,23.5-18.5,41.3
		c-16,39.2-26.1,71.9-25.8,76.2c1.6,9,53.5,60.6,62.8,62.4c9.3-1.9,61.2-53.3,62.8-62.5c0.3-4.4-9.8-37.1-25.8-76.1
		C484.5,605.9,478.2,592.5,473.2,582.5z"/>
	<path class="st0" d="M480.9,580.9c8.7-2.1,15.6-5.6,18.4-11c0.2-0.2,0.2-0.3,0.2-0.5c1.6-5-7.6-18.2-9.5-20.8
		c-6.6-9-19.8-24-35.3-24c-12.4,0-24.8,7.6-34.8,21.4c-5,6.9-11.4,18.9-10,23.4c0,0.2,0.2,0.3,0.2,0.5c2.6,5.3,9.7,8.7,18.2,11
		c-20.9,41.7-45.8,111-44.2,120.2c1.9,11.1,58.2,69,70.6,69s68.6-57.8,70.6-69C526.7,692,501.9,622.7,480.9,580.9z M517.5,699.9
		c-1.6,9-53.5,60.6-62.8,62.5c-9.3-1.9-61.2-53.3-62.8-62.4c-0.3-4.4,9.8-37.1,25.8-76.2c7.3-17.7,13.4-31.1,18.5-41.3
		c6.1,1,12.4,1.3,18.5,1.3c6.1,0,12.4-0.5,18.5-1.3c5.2,10.2,11.3,23.5,18.5,41.3C507.7,662.8,517.8,695.5,517.5,699.9z
		 M417.4,567.2c1.3-6.3,16.3-34.8,37.2-34.8c17.1,0,35.1,27.9,37.2,34.8c-3.4,4.4-16.9,8.7-37.2,8.7S420.7,571.6,417.4,567.2z"/>
	<path class="st4" d="M454.7,575.9c20.1,0,33.7-4.4,37.2-8.7c-1.9-6.9-20-34.8-37.2-34.8c-20.9,0-35.9,28.4-37.2,34.8
		C420.7,571.6,434.4,575.9,454.7,575.9z"/>
	<path class="st5" d="M433.6,664.6c2.4-17.9,5-35.8,7.6-53.7c1.3-9.2,2.4-18.4,4.4-27.4c-3.2-0.2-6.3-0.5-9.3-1
		c-5.2,10.2-11.3,23.5-18.5,41.3c-16,39.2-26.1,71.9-25.8,76.2c1.6,9,53.5,60.6,62.8,62.4c2.4-0.5,8.1-4.5,14.8-10.3
		C437.7,733.5,428.7,700.5,433.6,664.6z"/>
	<path class="st3" d="M448.5,755.1c-18.9-17.6-33.7-40.3-35.1-66.6c-1.5-26.4,9.3-53.7,15.3-79.3c1.8-7.4,3.9-17.7,7.6-26.7
		c0,0,0,0-0.2,0c-5.2,10.2-11.3,23.5-18.5,41.3c-16,39.2-26.1,71.9-25.8,76.2c1.6,9,53.5,60.6,62.8,62.4c0.3,0,0.8-0.2,1.1-0.5
		C453.2,759.6,450.8,757.4,448.5,755.1z"/>
	<path class="st5" d="M454.8,569.3c-11.9-7.9-15.6-25.1-6.4-35.9c-17.6,4.7-29.8,28.2-31.1,33.8c3.2,4.4,16.9,8.7,37.2,8.7
		c4.8,0,9.3-0.3,13.4-0.6C463.4,573.8,458.9,571.9,454.8,569.3z"/>
	<path class="st3" d="M442.1,573.2c-8.4-6.6-12.9-15.8-11.6-27.7c-7.6,8.4-12.4,18.4-13.1,21.9c2.7,3.5,12.6,7.3,27.4,8.4
		C443.9,574.8,442.9,574,442.1,573.2z"/>
	<g>
		<path class="st4" d="M709.9,792.7c-14.5-8.1-37.1-85.1-41.4-100.4s-25.8-92.7-17.7-107.2c0.5-1,1.5-1.9,2.6-2.9
			c-24,8.5-40.8,16-43,20.1c-3.4,6,1.9,43.5,18.5,101.2c16.4,57.7,31.7,92.3,37.7,95.7c0,0,1.1,0.6,5.2,0.6c9.3,0,24.3-2.3,42.2-6.1
			C712.2,793.6,710.9,793.3,709.9,792.7z"/>
		<path class="st4" d="M909.7,517c0,0-1.1-0.6-5.2-0.6c-48.2,0-239.9,59.8-247,72.5c-9.2,16.6,39.6,187.7,56.1,196.9
			c0,0,1.1,0.6,5.2,0.6c42.5,0,238.6-57.5,247-72.5C975.1,697.4,926.3,526.3,909.7,517z"/>
		<path class="st6" d="M955,610.6c-4.4-15.3-26.9-92.3-41.4-100.4c-1.9-1.1-4.8-1.6-9-1.6c-23.2,0-86.5,15.6-138.9,30.9
			c-3.2,1-6.8,1.9-10.6,3.2c-12.4,3.4-24.8,6.8-36.6,10.3c-32.2,9.5-108,32.9-114.9,45.4c-8.1,14.5,13.4,91.8,17.7,107.2
			S648.2,798,662.7,806c1.9,1.1,4.8,1.6,9,1.6c23.2,0,86.5-15.6,138.9-30.9c3.2-1,6.8-1.9,10.6-3.2c12.4-3.4,24.8-6.8,36.6-10.3
			c32.2-9.5,108-32.9,114.9-45.4C980.8,703.2,959.4,626.1,955,610.6z M966,714c-8.2,14.8-204.5,72.5-247,72.5c-4,0-5.2-0.6-5.2-0.6
			c-16.6-9.2-65.4-180.5-56.1-196.9c7.1-12.7,198.8-72.5,247-72.5c4,0,5.2,0.6,5.2,0.6C926.3,526.3,975.1,697.4,966,714z
			 M666.4,799.4c-6-3.4-21.3-38-37.7-95.7c-16.4-57.7-21.8-95.2-18.5-101.2c2.3-4.2,19-11.6,43-20.1c-1.1,1-2.1,1.9-2.6,2.9
			c-8.1,14.5,13.4,91.8,17.7,107.2c4.4,15.3,26.9,92.3,41.4,100.4c1,0.6,2.3,1,3.9,1.3c-17.9,3.7-32.9,6.1-42.2,6.1
			C667.5,799.9,666.4,799.4,666.4,799.4z"/>
		<path class="st5" d="M708.5,760.3c-5.3-17.9-8.5-36.4-12.1-54.8c-7.4-38.7-43.2-92.7,0.5-121.5c23.7-15.6,55.6-21.3,82.3-29.6
			c11.9-3.7,24-7.4,35.9-11.1c5.2-2.1,10.5-4,15.8-5.8c23-8.1,46.7-15,70.7-20.9c-52.4,2.1-237.2,59.9-244.1,72.4
			c-9.2,16.6,39.6,187.7,56.1,196.9c0,0,1.1,0.6,5.2,0.6C713.8,778.3,710.7,767.9,708.5,760.3z"/>
		<path class="st3" d="M649,593.7c0.2-3.7,0.6-6.6,1.8-8.5c0.5-1,1.5-1.9,2.6-2.9c-24,8.5-40.8,16-43,20.1c-0.5,0.8-0.8,2.4-1,4.5
			c1,0.2,1.8,0.3,2.7,0.5C624.2,602,636.4,596.9,649,593.7z"/>
		<path class="st3" d="M661.4,595.1c14.3-13.7,38.7-19.8,56.9-26.6c49.1-18.4,99.6-32.6,150.7-44.5c10.5-2.4,20.8-4.8,31.4-7.4
			c-54.1,3.1-235.9,59.9-242.7,72.4c-1.1,1.9-1.3,6.1-1,11.9C657.9,598.8,659.5,596.9,661.4,595.1z"/>
		<path class="st5" d="M704.3,786.9c-4,0.6-8.2,1.3-12.2,1.3c-23.8-0.2-37.2-25.8-52-61.2c-16.6-39.3-22.7-80.6-29-122.6
			c-0.2-0.6-0.2-1.5-0.3-2.1c-0.2,0.2-0.2,0.3-0.3,0.5c-3.4,6,1.9,43.5,18.5,101.2c16.4,57.7,31.7,92.3,37.7,95.7
			c0,0,1.1,0.6,5.2,0.6c9.3,0,24.3-2.3,42.2-6.1c-1.6-0.3-2.9-0.6-3.9-1.3C708.1,791.7,706.2,789.6,704.3,786.9z"/>
		<path class="st7" d="M687.4,750.5c-1.3-3.4-2.6-6.9-3.7-10.5c0.8,3.5,1.6,6.9,2.7,10.3C686.7,750.5,687,750.5,687.4,750.5z"/>
		<path class="st7" d="M655.6,648.1c4.2,19.3,10.2,37.5,16.4,55.9c-1.6-5.2-2.7-9.3-3.4-11.8c-3.7-13.1-19.8-71.1-19.5-97
			c-0.8,0.5-1.6,1-2.6,1.5c0.2,1.1,0.3,2.3,0.5,3.5C649.3,616.2,652.1,632.3,655.6,648.1z"/>
		<path class="st5" d="M912,519.1c4.5,28.7,11.6,57.2,18.9,85.2c6.1,23.7,19.2,47.5,19.3,72.4c0.2,28.2-18.9,43.8-43.3,53.5
			c-40.9,16.1-84.8,26.9-127,39.6c-17.7,5.3-44,14.8-67.4,15.3c0.3,0.3,0.8,0.6,1.1,0.8c0,0,1.1,0.6,5.2,0.6
			c42.5,0,238.6-57.5,247-72.5C974.7,698.1,930.3,540.6,912,519.1z"/>
		<path class="st3" d="M933.7,568.5c1.5,5.8,3.1,11.4,4.4,17.2c7.7,33.4,18.2,66.2,21.3,100.6c3.2,34-31.7,42.1-56.4,53.2
			c-3.9,1.8-7.7,3.4-11.4,5.2c39.8-12.7,71.2-25,74.4-30.8C972.1,702.9,952.4,623.2,933.7,568.5z"/>
		<path class="st3" d="M659,788.8c3.1,6,5.6,9.7,7.4,10.6c0,0,1.1,0.6,5.2,0.6c6.6,0,16-1.1,26.9-3.1
			C684.3,797,670.4,794.6,659,788.8z"/>
	</g>
	<path class="st1" d="M896.3,591.6c-10.8,7.9-19.8,17.9-26.7,28.8c0.2,0,0.2,0.2,0.3,0.2c6.6,3.1,11.3,9,13.2,16.1
		c1.6,6.4,0.6,13.2-2.6,19.2c11,5,23,7.9,35.6,8.4l-2.4-7.9C907.5,635.2,901,613.6,896.3,591.6z"/>
	<path class="st1" d="M873,655.4c0.3-0.5,0.6-1,1-1.3c3.1-4.7,4-10.3,2.7-15.6c-1.3-5.3-4.8-9.7-9.7-11.9c-1.1-0.5-2.3-1-3.4-1.6
		c-23-9.7-50-10.5-75.7-2.3c-12.2,3.9-23.5,9.5-33.5,16.9c8.5,8.4,15,19.8,18.4,32.2c3.1,11.4,3.7,22.9,1.6,33.5
		c11.4,0.3,22.9-1.3,34.5-4.5C835.3,693.2,858.2,677.1,873,655.4z"/>
	<path class="st1" d="M767.8,705c2.1-10,1.6-20.8-1.3-31.4c-3.2-11.8-9.3-22.4-17.4-30c-14.3,11.8-25.1,26.7-30.6,42.7
		C731.7,696.8,749.1,703.4,767.8,705z M739.6,671.8c0.6-0.5,1.6-0.5,2.1,0.2c1.8,1.9,3.7,1.8,4.7,1.5c2.1-0.5,3.9-2.3,4.4-4.5
		c0.2-0.8,1-1.3,1.8-1.1c0.8,0.2,1.3,1,1.1,1.8c-0.8,3.2-3.4,5.8-6.4,6.6c0,0,0,0-0.2,0c-2.9,0.6-5.6-0.2-7.7-2.4
		C738.8,673.3,738.9,672.3,739.6,671.8z"/>
	<path class="st6" d="M901.8,585.4c-0.2-1.1-1-1.9-1.9-2.4c-1-0.5-2.1-0.3-3.1,0.3c-13.5,9.2-25,20.9-33.2,34.5
		c-23.7-9.3-51.2-9.8-77.7-1.5c-14.2,4.5-27.2,11.3-38.7,20.3l0,0c-17.1,13.4-29.8,30.9-35.6,49.8c-0.3,1.3,0,2.6,1,3.5
		c15.1,12.7,35.6,20.5,57.5,21.9l0,0l0,0c12.2,0.8,24.8-0.5,37.2-3.7c1.1-0.3,2.3-0.6,3.2-1c27.2-7.9,50.8-24.2,66.4-45.9
		c13.4,6.3,28.4,9.7,43.7,9.5c0.3,0,0.5,0,0.8-0.2c0.6-0.2,1.3-0.6,1.8-1.3c0.6-0.8,0.8-1.9,0.5-2.9l-3.5-12.2
		C913.4,632,906.5,608.8,901.8,585.4z M774.4,705.5c2.1-10.6,1.6-22.2-1.6-33.5c-3.5-12.6-10-23.8-18.4-32.2
		c10.2-7.4,21.4-13.1,33.5-16.9c25.9-8.2,52.9-7.4,75.7,2.3c1.1,0.5,2.4,1,3.4,1.6c4.8,2.3,8.2,6.6,9.7,11.9
		c1.3,5.3,0.3,11.1-2.7,15.6c-0.3,0.3-0.5,0.8-1,1.3c-14.8,21.8-37.7,38-64.3,45.6C797.2,704.2,785.6,705.7,774.4,705.5z
		 M749.1,643.6c7.9,7.7,14,18.2,17.4,30c2.9,10.6,3.4,21.6,1.3,31.4c-18.7-1.6-35.9-8.2-49.1-18.7
		C723.9,670.4,734.7,655.4,749.1,643.6z M880.6,655.9c3.2-5.8,4.2-12.7,2.6-19.2c-1.8-7.3-6.6-13.1-13.2-16.1
		c-0.2,0-0.2-0.2-0.3-0.2c6.9-11,16-20.9,26.7-28.8c4.7,22.1,11.1,43.7,17.4,64.6l2.4,7.9C903.6,663.8,891.4,660.9,880.6,655.9z"/>
	<path class="st6" d="M747.1,676.3L747.1,676.3c3.2-0.8,5.8-3.4,6.6-6.6c0.2-0.8-0.3-1.6-1.1-1.8c-0.8-0.2-1.6,0.3-1.8,1.1
		c-0.6,2.3-2.3,4-4.4,4.5c-1,0.3-3.1,0.3-4.7-1.5c-0.5-0.6-1.5-0.6-2.1-0.2c-0.6,0.5-0.6,1.5-0.2,2.1
		C741.3,676.2,744.2,677,747.1,676.3z"/>
	<path class="st2" d="M772.3,670.5c0.2,0.5,0.3,0.8,0.3,1.3c3.1,11.4,3.7,22.9,1.6,33.5c11.4,0.3,22.9-1.3,34.5-4.5
		c26.6-7.7,49.5-23.8,64.3-45.6c0.3-0.5,0.6-1,1-1.3c3.1-4.7,4-10.3,2.7-15.6c-0.3-1.5-1-2.9-1.6-4.2
		C848.5,661.8,807.1,679.1,772.3,670.5z"/>
	<path class="st3" d="M848.3,678.7c-10.2,5.3-20.9,9.8-32.2,12.6c-13.7,3.4-27.7,4.7-40.6,2.1c0,4-0.5,8.2-1.1,12.1
		c11.4,0.3,22.9-1.3,34.5-4.5c18.5-5.3,35.3-14.8,48.7-27.4C854.3,675.5,851.2,677.1,848.3,678.7z"/>
	<path class="st1" d="M758.3,687c-2.9,0.5-6,0.8-9,1c-1.3,0.3-2.6,0.5-3.9,0.6c-8.9,1.1-18.4-0.6-25.6-5.3c-0.3,1-0.8,2.1-1.1,3.1
		c13.2,10.5,30.6,17.1,49.1,18.7c1.5-6.8,1.6-14,0.6-21.4C765.3,685.2,762,686.3,758.3,687z"/>
	<path class="st2" d="M910.4,644.9c-0.3-0.2-0.8-0.3-1.1-0.5c-5-2.1-9.7-4.5-13.9-7.1c-7.4-4.7-16.3-11.6-23.8-19.8
		c-0.6,1-1.5,1.9-2.1,3.1c0.2,0,0.2,0.2,0.3,0.2c6.6,3.1,11.3,9,13.2,16.1c1.6,6.4,0.6,13.2-2.6,19.2c11,5,23,7.9,35.6,8.4l-2.4-7.9
		C912.6,652.5,911.5,648.6,910.4,644.9z"/>
</g>
</svg>
