<?xml version="1.0" encoding="utf-8"?>
<!-- Generator: Adobe Illustrator 22.1.0, SVG Export Plug-In . SVG Version: 6.00 Build 0)  -->
<svg version="1.1" id="Layer_1" xmlns="http://www.w3.org/2000/svg" xmlns:xlink="http://www.w3.org/1999/xlink" x="0px" y="0px"
	 viewBox="0 0 300 300" style="enable-background:new 0 0 300 300;" xml:space="preserve">
<style type="text/css">
	.st0{fill:#FFFFFF;}
	.st1{fill:#EEEEEE;}
	.st2{fill:#111111;}
	.st3{fill:#767676;}
	.st4{fill:#E50022;}
	.st5{fill:#FF7D87;}
</style>
<rect class="st0" width="300" height="300"/>
<g>
	<path class="st1" d="M38.5,221.5c0.4-9.2,0.9-18.4,1.7-27.7c-9.7,3.2-18.4,10.7-23.3,17.6c-6.6,9.4-10.1,21.3-8.7,29.5
		c0.7,3.7,2.3,6.5,4.9,8.3c1.1,0.8,2.5,1.2,4.2,1.2c4.7,0,10.5-3.3,13.7-7.9C33.4,239.1,36.1,230.8,38.5,221.5z"/>
	<path class="st1" d="M289,206.4c-7.9-8-17.8-14.2-26.1-16.6c1.3,10,2.5,20.1,3.6,30.2c1.3,2,2.7,3.9,4.3,5.7c4.8,5.1,10.8,8,16.5,8
		c3.5,0,6.6-1.1,8.9-3.1c2.2-1.9,3.3-4,3.3-6.4C299.6,219.6,296.1,213.6,289,206.4z"/>
	<path class="st2" d="M38.5,221.5c-2.4,9.3-5.1,17.6-7.5,21c-3.2,4.6-9,7.9-13.7,7.9c-0.2,0-0.3,0-0.5,0c-0.8,0-1.4-0.2-2.1-0.4
		c-0.2-0.1-0.3-0.1-0.5-0.2c-0.1-0.1-0.3-0.1-0.4-0.2c-0.1-0.1-0.3-0.1-0.4-0.2c-0.1-0.1-0.2-0.2-0.4-0.2c-2.6-1.8-4.2-4.6-4.9-8.3
		c-1.5-8.2,2-20,8.7-29.5c0.2-0.3,0.5-0.7,0.8-1c0.3-0.3,0.5-0.7,0.8-1c0.3-0.4,0.6-0.7,0.9-1c0,0,0.1-0.1,0.1-0.1
		c0.3-0.3,0.5-0.6,0.8-0.9c1.3-1.4,2.7-2.8,4.2-4.1c2-1.7,4.1-3.3,6.4-4.8c0.4-0.2,0.7-0.5,1.1-0.7c0.4-0.2,0.8-0.5,1.1-0.7
		c0,0,0.1,0,0.1-0.1c0.4-0.2,0.7-0.4,1.1-0.6c0.4-0.2,0.8-0.4,1.2-0.6c0.3-0.1,0.5-0.2,0.8-0.4c0.2-0.1,0.3-0.1,0.5-0.2
		c0.4-0.2,0.8-0.3,1.2-0.5c0.4-0.2,0.8-0.3,1.2-0.4c0.4-0.2,0.8-0.3,1.2-0.4C39.4,203,38.9,212.3,38.5,221.5z M19.3,315.1
		L19.3,315.1c-0.3-0.3-0.6-0.7-0.9-1.1C18.8,314.4,19,314.7,19.3,315.1z M292.5,202.9c-9.2-9.4-20.7-16.2-30.4-18.5
		c-2.3-16.4-5-32.7-8.2-48.9c-1.7-8.8-3.6-17.6-5.7-26.3c-2.1-8.7-4.3-17.5-6.9-26.1c-2.6-8.6-5.4-17.2-8.9-25.6
		c-3.5-8.4-7.3-16.7-12.9-24.2c-0.1-0.1-0.1-0.2-0.2-0.2c-1-1-2.5-1-3.5,0l0,0c-1.7,1.7-3.3,3.3-4.9,5c-1.6,1.7-3.2,3.5-4.7,5.2
		c-3,3.6-5.9,7.3-8.7,11.1c-2.7,3.8-5.2,7.8-7.5,11.9c-1.1,2.1-2.2,4.1-3.3,6.3l-1.5,3.2l-0.8,1.9l-69.7,7.6
		c-0.7-4-1.7-7.9-2.8-11.8c-1.4-4.6-3-9.2-4.8-13.6c-1.9-4.5-4-8.8-6.5-13c-2.5-4.2-5.4-8.2-8.9-11.8l0-0.1
		c-0.1-0.1-0.2-0.2-0.3-0.3c-1.1-0.8-2.6-0.5-3.4,0.6c-1.3,2-2.8,3.8-4,5.9l-1.9,3l-1.8,3c-4.1,6.8-7.7,13.8-10.9,21
		c-3.2,7.2-6.1,14.5-8.6,21.9c-5.1,14.8-9,30.1-12.1,45.4c-3.1,15.3-5.4,30.8-7,46.4c-0.2,2.2-0.4,4.4-0.6,6.6
		c-11.6,3.1-22,11.8-27.9,20.1c-7.5,10.6-11.2,23.7-9.5,33.2c0.9,5,3.3,9,7,11.6c2,1.4,4.4,2.1,7,2.1c6.4,0,13.6-4,17.8-10
		c1-1.3,1.9-3.3,2.8-5.6c-0.2,11.9,0,23.8,0.5,35.7c0.3,8.2,0.8,16.4,1.4,24.5h5c-0.7-8.2-1.1-16.5-1.5-24.7
		c-0.6-15.5-0.7-31-0.2-46.5c0.5-15.5,1.5-31,3.1-46.4c1.6-15.4,3.9-30.7,7-45.9c3.1-15.2,6.9-30.2,11.9-44.8
		c0.3-0.8,0.6-1.6,0.8-2.4c0.3-0.8,0.6-1.6,0.9-2.4c0.3-0.8,0.6-1.6,0.9-2.4c0.6-1.6,1.2-3.2,1.8-4.7c0.3-0.8,0.6-1.6,1-2.4
		c1-2.4,2-4.8,3.1-7.2c3.2-7,6.7-13.9,10.6-20.4l1.8-2.9L88,44c0.7-1.1,1.4-2.1,2.1-3.2c1.8,2.1,3.5,4.4,5,6.8
		c0.4,0.6,0.8,1.2,1.2,1.8c2.3,3.9,4.4,8.1,6.2,12.3c1.8,4.3,3.3,8.6,4.6,13.1c1.3,4.4,2.4,8.9,3.1,13.5c0.2,1.3,1.4,2.2,2.8,2.1
		l57.9-6.3h0l15.5-1.7c0.5-0.1,0.9-0.2,1.3-0.6h0c0.1-0.1,0.1-0.1,0.2-0.2c0,0,0,0,0-0.1c0.1-0.1,0.1-0.1,0.2-0.2
		c0.1-0.2,0.2-0.3,0.3-0.5l0,0l1.3-3.1l1.4-3.1c1-2,2-4,3.1-6c2.2-3.9,4.6-7.8,7.3-11.5c2.6-3.7,5.4-7.3,8.4-10.7
		c1.5-1.7,3-3.4,4.5-5.1c0.9-0.9,1.8-1.9,2.7-2.8c0.7,1,1.4,2.1,2,3.2c1.7,2.7,3.2,5.6,4.6,8.5c0.3,0.6,0.6,1.2,0.9,1.8
		c0.1,0.3,0.3,0.5,0.4,0.8c0.3,0.6,0.5,1.2,0.8,1.8c0.7,1.5,1.3,3,1.9,4.5c3.3,8.2,6.2,16.6,8.7,25.1c2.6,8.5,4.8,17.1,6.9,25.8
		c2.1,8.7,3.9,17.4,5.7,26.1c3.4,17.5,6.3,35.1,8.7,52.8c2.4,17.7,4.3,35.5,5.8,53.2c1.5,17.8,2.5,35.6,2.9,53.5
		c0,1.3,0.1,2.7,0.1,4h5c0-1.4,0-2.8-0.1-4.2c-0.4-17.9-1.4-35.9-2.9-53.8c-0.4-4.3-0.7-8.5-1.1-12.8c5.8,6,12.8,9.3,19.9,9.3
		c4.7,0,9-1.5,12.2-4.3c0.2-0.2,0.4-0.4,0.6-0.5v-22C298.1,209,295.7,206.1,292.5,202.9z M296.1,230.6c-0.2,0.2-0.5,0.4-0.7,0.6
		c-0.3,0.2-0.5,0.4-0.8,0.6c-0.3,0.2-0.5,0.3-0.8,0.5c0,0-0.1,0-0.1,0.1c-0.3,0.2-0.6,0.3-0.9,0.4c0,0,0,0,0,0
		c-0.3,0.1-0.5,0.2-0.8,0.3c-0.4,0.1-0.8,0.2-1.3,0.4c-0.2,0-0.3,0.1-0.5,0.1c-0.2,0-0.4,0.1-0.5,0.1c-0.5,0.1-0.9,0.1-1.4,0.1
		c-0.1,0-0.1,0-0.2,0c0,0-0.1,0-0.1,0c-0.2,0-0.4,0-0.6,0c-5.7,0-11.7-2.9-16.5-8c-1.6-1.8-3.1-3.7-4.3-5.7
		c-1.1-10.1-2.2-20.1-3.6-30.2c0.5,0.1,1,0.3,1.4,0.5c0.3,0.1,0.6,0.2,1,0.3c0.1,0,0.2,0.1,0.4,0.1c0.2,0.1,0.3,0.1,0.5,0.2
		c0.4,0.1,0.8,0.3,1.2,0.5c0.2,0.1,0.5,0.2,0.8,0.3c0.3,0.1,0.5,0.2,0.8,0.3c0.5,0.2,1,0.4,1.4,0.7c0,0,0.1,0,0.1,0
		c0.5,0.2,1,0.5,1.5,0.8c0,0,0,0,0,0c1,0.5,2,1.1,3,1.7c0.3,0.2,0.7,0.4,1,0.6c1.1,0.7,2.2,1.4,3.2,2.2c0.2,0.2,0.5,0.3,0.7,0.5
		c0.5,0.4,1,0.7,1.5,1.1c0.5,0.4,1,0.7,1.4,1.1c0.5,0.4,1.1,0.9,1.6,1.3c0.4,0.3,0.8,0.7,1.3,1.1c0,0,0,0,0,0
		c0.2,0.2,0.4,0.4,0.6,0.6c0.4,0.4,0.8,0.7,1.2,1.1c0.5,0.5,1,1,1.5,1.5c7.1,7.2,10.6,13.2,10.5,17.7
		C299.4,226.5,298.3,228.6,296.1,230.6z"/>
	<path class="st1" d="M266.5,296c-0.4-17.8-1.4-35.7-2.9-53.5c-1.5-17.8-3.4-35.5-5.8-53.2c-2.4-17.7-5.3-35.3-8.7-52.8
		c-1.7-8.8-3.6-17.5-5.7-26.1c-2.1-8.7-4.3-17.3-6.9-25.8c-2.5-8.5-5.4-17-8.7-25.1c-0.6-1.5-1.3-3-1.9-4.5
		c-0.3-0.6-0.5-1.2-0.8-1.8c-0.1-0.3-0.2-0.6-0.4-0.8c-0.3-0.6-0.6-1.2-0.9-1.8c-0.7-1.4-1.4-2.7-2.1-4.1c-0.1-0.2-0.2-0.3-0.2-0.5
		c-0.7-1.4-1.5-2.7-2.3-4c-0.6-1.1-1.3-2.2-2-3.2c-0.9,0.9-1.8,1.8-2.7,2.8c-1.5,1.7-3.1,3.3-4.5,5.1c-3,3.4-5.8,7-8.4,10.7
		c-2.6,3.7-5,7.5-7.3,11.5c-1.1,2-2.1,4-3.1,6l-1.4,3.1l-1.3,3.1l0,0c-0.1,0.2-0.2,0.4-0.3,0.5c0,0.1-0.1,0.1-0.2,0.2c0,0,0,0,0,0.1
		c-0.1,0.1-0.1,0.1-0.2,0.2h0c-0.4,0.3-0.8,0.5-1.3,0.6l-15.5,1.7h0l-57.9,6.3c-1.3,0.2-2.5-0.8-2.8-2.1c-0.7-4.5-1.8-9-3.1-13.5
		c-1.3-4.4-2.9-8.8-4.6-13.1c-1.8-4.3-3.8-8.4-6.2-12.3c-0.4-0.6-0.8-1.2-1.2-1.8c-0.5-0.9-1.1-1.7-1.7-2.5c0-0.1-0.1-0.1-0.1-0.2
		c-1-1.4-2-2.7-3.1-4c-0.7,1-1.5,2.1-2.1,3.2l-1.9,2.9l-1.8,2.9c-3.9,6.6-7.5,13.4-10.6,20.4c-1.1,2.4-2.1,4.8-3.1,7.2
		c-0.3,0.8-0.6,1.6-1,2.4c-0.6,1.6-1.2,3.2-1.8,4.7c-0.3,0.8-0.6,1.6-0.9,2.4c-0.3,0.8-0.6,1.6-0.9,2.4c-0.3,0.8-0.6,1.6-0.8,2.4
		c-5,14.6-8.8,29.6-11.9,44.8c-3.1,15.2-5.3,30.5-7,45.9c-1.6,15.4-2.7,30.9-3.1,46.4c-0.5,15.5-0.4,31,0.2,46.5
		c0.3,8.2,0.8,16.5,1.5,24.7h221.7C266.5,298.7,266.5,297.3,266.5,296z M217.2,182.5h18.4c0.5,0,0.9,0.4,0.9,0.9
		c0,0.5-0.4,0.9-0.9,0.9h-18.4c-0.5,0-0.9-0.4-0.9-0.9C216.2,183,216.7,182.5,217.2,182.5z M186,149.5c9.6-7,21.8-6,29.7,2.5
		c1,1,0.9,2.6-0.1,3.5c-0.5,0.4-1.1,0.7-1.7,0.7c-0.7,0-1.3-0.3-1.8-0.8c-6.1-6.5-15.6-7.3-23.1-1.8c-1.1,0.8-2.7,0.6-3.5-0.5
		C184.6,151.9,184.8,150.3,186,149.5z M165.8,177.2l-6.4,8.8c-0.4,0.5-0.8,0.9-1.4,1.3c-0.1,0-0.2,0.1-0.2,0.1
		c-0.5,0.3-1.1,0.5-1.7,0.5c-0.4,0-0.9,0-1.3,0c-0.2,0-0.3-0.1-0.5-0.1c-0.7-0.2-1.3-0.5-1.9-1l-8.2-7c-0.6-0.5-0.9-1.4-0.8-2.2
		c0.1-0.8,0.7-1.5,1.4-1.9c5-2.2,14.1-3.2,19.5-2.3c0.8,0.2,1.5,0.7,1.8,1.5C166.4,175.7,166.3,176.5,165.8,177.2z M92.9,185.9
		c0.5,0,1,0.4,1,0.9c0,0.5-0.4,1-0.9,1l-16.6,0.6h0c-0.5,0-0.9-0.4-0.9-0.9c0-0.5,0.4-1,0.9-1L92.9,185.9z M70.2,205.3
		c-0.4,0-0.8-0.2-0.9-0.7c-0.2-0.5,0.1-1,0.6-1.2l23-7.4c0.5-0.2,1,0.1,1.2,0.6c0.2,0.5-0.1,1-0.6,1.2l-23,7.4
		C70.4,205.3,70.3,205.3,70.2,205.3z M96.6,209l-11.4,10.1c-0.2,0.2-0.4,0.2-0.6,0.2c-0.3,0-0.5-0.1-0.7-0.3c-0.3-0.4-0.3-1,0.1-1.3
		l11.4-10.1c0.4-0.3,1-0.3,1.3,0.1C97.1,208.1,97,208.7,96.6,209z M95.8,157.6c-0.5,0.5-1.1,0.8-1.8,0.8c-0.6,0-1.3-0.2-1.8-0.7
		c-1-1-1-2.6,0-3.5c8.3-8.5,20.5-9.5,29.7-2.5c1.1,0.8,1.3,2.4,0.5,3.5c-0.8,1.1-2.4,1.3-3.5,0.5C111.7,150.2,102.3,151,95.8,157.6z
		 M232.3,215.8c-0.2,0.3-0.5,0.5-0.8,0.5c-0.2,0-0.3-0.1-0.5-0.1l-17.7-11c-0.4-0.3-0.6-0.9-0.3-1.3c0.3-0.4,0.8-0.6,1.3-0.3
		l17.7,11C232.5,214.8,232.6,215.4,232.3,215.8z M242.6,200.9c-0.1,0.4-0.5,0.7-0.9,0.7c-0.1,0-0.1,0-0.2,0l-25.1-6.1
		c-0.5-0.1-0.8-0.6-0.7-1.1c0.1-0.5,0.6-0.8,1.1-0.7l25.2,6.1C242.4,199.9,242.8,200.4,242.6,200.9z"/>
	<path class="st2" d="M215.5,155.5c1-0.9,1.1-2.5,0.1-3.5c-7.9-8.4-20.1-9.4-29.7-2.5c-1.1,0.8-1.4,2.4-0.6,3.5
		c0.8,1.1,2.4,1.4,3.5,0.6c7.5-5.4,17-4.7,23.1,1.8c0.5,0.5,1.2,0.8,1.8,0.8C214.4,156.2,215,156,215.5,155.5z"/>
	<path class="st2" d="M121.9,151.6c-9.1-7-21.4-6-29.7,2.5c-1,1-1,2.6,0,3.5c0.5,0.5,1.1,0.7,1.8,0.7c0.6,0,1.3-0.3,1.8-0.7
		c6.5-6.6,16-7.4,23.1-2c1.1,0.8,2.7,0.6,3.5-0.5C123.2,154,123,152.4,121.9,151.6z"/>
	<path class="st2" d="M232,214.5l-17.7-11c-0.4-0.3-1-0.1-1.3,0.3c-0.3,0.4-0.1,1,0.3,1.3l17.7,11c0.2,0.1,0.3,0.1,0.5,0.1
		c0.3,0,0.6-0.2,0.8-0.4C232.6,215.4,232.5,214.8,232,214.5z"/>
	<path class="st2" d="M241.9,199.7l-25.1-6.1c-0.5-0.1-1,0.2-1.1,0.7c-0.1,0.5,0.2,1,0.7,1.1l25.1,6.1c0.1,0,0.1,0,0.2,0
		c0.4,0,0.8-0.3,0.9-0.7C242.7,200.4,242.4,199.9,241.9,199.7z"/>
	<path class="st2" d="M217.2,184.4h18.4c0.5,0,0.9-0.4,0.9-0.9s-0.4-0.9-0.9-0.9h-18.4c-0.5,0-0.9,0.4-0.9,0.9
		S216.7,184.4,217.2,184.4z"/>
	<path class="st2" d="M76.4,188.4C76.4,188.4,76.4,188.4,76.4,188.4l16.6-0.6c0.5,0,0.9-0.5,0.9-1c0-0.5-0.5-0.9-1-0.9l-16.6,0.6
		c-0.5,0-0.9,0.5-0.9,1C75.5,188,75.9,188.4,76.4,188.4z"/>
	<path class="st2" d="M94.2,196.7c-0.2-0.5-0.7-0.8-1.2-0.6l-23,7.4c-0.5,0.2-0.8,0.7-0.6,1.2c0.1,0.4,0.5,0.7,0.9,0.7
		c0.1,0,0.2,0,0.3,0l23-7.4C94,197.7,94.3,197.2,94.2,196.7z"/>
	<path class="st2" d="M95.4,207.6L84,217.8c-0.4,0.3-0.4,0.9-0.1,1.3c0.2,0.2,0.4,0.3,0.7,0.3c0.2,0,0.4-0.1,0.6-0.2L96.6,209
		c0.4-0.3,0.4-0.9,0.1-1.3C96.4,207.3,95.8,207.3,95.4,207.6z"/>
	<path class="st2" d="M164.3,173.4c-5.4-1-14.4,0.1-19.5,2.3c-0.8,0.3-1.3,1-1.4,1.9c-0.1,0.8,0.2,1.7,0.8,2.2l8.2,7.1
		c1,0.9,2.3,1.3,3.7,1.1s2.5-0.9,3.3-1.9l6.4-8.8c0.5-0.7,0.6-1.6,0.3-2.3C165.8,174.1,165.1,173.6,164.3,173.4z"/>
	<path class="st3" d="M266.5,300h-6.1c-0.1-16.1-1-32.2-2.4-48.2c-3.6-41.1-9-81.5-18.6-121.6c-7-29.3-16.7-58.3-20.2-88.3
		c1.7,2.7,3.2,5.6,4.6,8.5c0.3,0.6,0.6,1.2,0.9,1.8c0.1,0.3,0.3,0.5,0.4,0.8c0.3,0.6,0.5,1.2,0.8,1.8c0.7,1.5,1.3,3,1.9,4.5
		c3.3,8.2,6.2,16.6,8.7,25.1c2.6,8.5,4.8,17.1,6.9,25.8c2.1,8.7,3.9,17.4,5.7,26.1c3.4,17.5,6.3,35.1,8.7,52.8
		c2.4,17.7,4.3,35.5,5.8,53.2c1.5,17.8,2.5,35.6,2.9,53.5C266.5,297.3,266.5,298.7,266.5,300z"/>
	<path class="st3" d="M98.4,101.9c13-0.8,25.7-3.9,38.3-7.5c11.3-3.3,23-6.2,34.1-10.3l-57.9,6.3c-1.3,0.1-2.5-0.8-2.7-2.1
		c-0.7-4.5-1.8-9-3.1-13.5c-1.3-4.4-2.9-8.8-4.6-13.1c-1.8-4.3-3.8-8.4-6.2-12.3c-1.5-2.4-3.1-4.8-4.8-7
		C99.6,60.3,97,82.1,98.4,101.9z"/>
	<path class="st3" d="M30.9,198.4c5.4,13-0.5,36.5-6.6,44.9c-2.2,3-5.1,5.7-8.5,7c0.5,0.1,1.1,0.2,1.6,0.2c4.7,0,10.5-3.3,13.7-7.9
		c2.4-3.4,5-11.7,7.5-21c0.4-9.2,0.9-18.4,1.7-27.7C37,194.9,33.8,196.5,30.9,198.4z"/>
	<path class="st1" d="M278.8,223.3c-4.4-6.4-7.1-19.2-3.9-28c-4.1-2.5-8.2-4.4-12-5.5c1.3,10,2.5,20.1,3.6,30.2
		c1.3,2,2.7,3.9,4.3,5.7c4.8,5.1,10.8,8,16.5,8c0.9,0,1.9-0.1,2.7-0.3C285.6,231,281.7,227.6,278.8,223.3z"/>
	<path class="st0" d="M13.6,241c-0.7-7.5,1.6-15.2,4.4-22.4c1-3.7,2.4-7.2,4.1-10.4c0.7-1.7,1.6-3.4,2.5-5.1c-3,2.6-5.6,5.5-7.5,8.3
		c-6.6,9.4-10.1,21.3-8.7,29.5c0.7,3.7,2.3,6.5,4.9,8.3c0.9,0.7,2.1,1,3.4,1.1C15,247.6,13.9,244.4,13.6,241z"/>
	<path class="st0" d="M19.4,315.1L19.4,315.1c-0.3-0.3-0.6-0.7-0.9-1.1C18.8,314.4,19,314.7,19.4,315.1z"/>
	<path class="st0" d="M289,206.4c-1.7-1.7-3.6-3.4-5.4-4.9c3.4,4.4,6,9.3,7.2,13.6c0,0.2,0.1,0.3,0.1,0.5c0.4,0.7,0.8,1.5,1.1,2.2
		c1.9,5,2.4,9.5,1.2,14.6c1.1-0.5,2.1-1.1,2.9-1.8c2.2-1.9,3.3-4,3.3-6.4C299.6,219.6,296.1,213.6,289,206.4z"/>
	<path class="st0" d="M53.5,225.7c-0.9,24.8-0.4,49.6,1.1,74.3h-9.8c-0.7-8.2-1.1-16.5-1.5-24.7c-0.6-15.5-0.7-31-0.2-46.5
		c0.5-15.5,1.5-31,3.1-46.4c1.6-15.4,3.9-30.7,7-45.9c3.1-15.2,6.9-30.2,11.9-44.8c0.3-0.8,0.6-1.6,0.8-2.4c0.3-0.8,0.6-1.6,0.9-2.4
		c0.3-0.8,0.6-1.6,0.9-2.4c0.6-1.6,1.2-3.2,1.8-4.7c0.3-0.8,0.6-1.6,1-2.4c3.2-7.8,6.8-15.5,11-22.9c-8,24.1-13.5,49.2-17.9,74.1
		C57.9,160.8,54.7,193.2,53.5,225.7z"/>
	<path class="st0" d="M197.5,78.1c4.3-7.1,8-14.8,11.2-22.4c2.2-5.1,4.3-10.2,6.6-15.1c-0.3,0.3-0.6,0.6-0.8,0.9
		c-1.5,1.7-3.1,3.4-4.5,5.1c-3,3.4-5.8,7-8.4,10.7c-2.6,3.7-5.1,7.5-7.3,11.5c-1.1,2-2.1,4-3.1,6l-1.4,3.1l-1.3,3.1l0,0
		c-0.2,0.4-0.4,0.7-0.7,0.9C191.7,81.8,195.7,81,197.5,78.1z"/>
	<path class="st3" d="M214.9,300H103.3c6.5-10.5,16.4-19.5,27.2-26.1c3.5-2.1,7.6-4,12.1-5.4c1.4-0.4,2.8-0.8,4.3-1.2
		c0.5-0.1,1-0.2,1.6-0.4c1.8-0.4,3.6-0.7,5.5-1c5.5-0.8,11.2-0.9,16.8-0.3c1.4,0.2,2.7,0.4,4.1,0.6c6.5,1.2,12.8,3.7,18.1,7.7
		C199.9,279.1,208.5,288.9,214.9,300z"/>
	<g>
		<path class="st2" d="M170.5,212.7c-4.2,0-7.7-1.2-10.3-3.6c-4.2-3.9-6-10.7-5.5-20.2c0-0.1,0-0.3,0-0.5c0-0.1,0-0.2,0-0.3
			c0-1,0.8-1.8,1.7-1.8c0.9,0,1.8,0.8,1.8,1.7c0,0.2,0,0.4,0,0.6c0,0.1,0,0.2,0,0.3c-0.5,8.6,1,14.4,4.4,17.5
			c2.5,2.3,6.1,3.1,10.7,2.5c1-0.1,1.8,0.5,2,1.5c0.1,1-0.5,1.8-1.5,2C172.7,212.6,171.6,212.7,170.5,212.7z"/>
		<path class="st2" d="M144,211.4c-1.6,0-3.3-0.3-5.1-0.8c-0.9-0.3-1.5-1.2-1.2-2.2s1.2-1.5,2.2-1.2c4.1,1.2,7.3,0.7,9.7-1.3
			c4.4-3.7,5.6-12.5,4.8-19.6c-0.1-1,0.6-1.8,1.5-1.9c0.9-0.1,1.8,0.6,1.9,1.5c0.8,7.4-0.2,17.8-6,22.7
			C149.6,210.5,147,211.4,144,211.4z"/>
	</g>
	<path class="st4" d="M184.3,300h-50.1c2-6.1,4.9-14,8.4-22.5c1.6-3.8,3-7.2,4.3-10.1c1.5-3.2,2.8-6,4-8.4c0,0,0,0,0.1,0
		c0.6,0.1,1.2,0.2,1.8,0.2c0.8,0.1,1.6,0.2,2.3,0.2c1.4,0.1,2.8,0.1,4.1,0.1c2.7,0,5.6-0.2,8.3-0.6c1,2,2.1,4.2,3.2,6.7
		c1.5,3.4,3.2,7.3,5.1,11.8C179.4,286,182.3,293.9,184.3,300z"/>
	<path class="st2" d="M174.9,266.3c-1.3-2.8-2.5-5.5-3.8-8c3.9-1,7-2.5,8.2-4.9c0-0.1,0.1-0.2,0.1-0.2c0.7-2.3-3.4-8.2-4.3-9.3
		c-2.9-4-8.9-10.8-15.9-10.8c-5.6,0-11.1,3.4-15.6,9.6c-2.3,3.1-5.2,8.5-4.5,10.5c0,0.1,0,0.2,0.1,0.2c1.2,2.4,4.3,3.9,8.2,4.9
		c-1.6,3.1-3.2,6.6-4.8,10.3c-4.7,10.6-9.3,22.6-12.1,31.5h3.7c2-6.1,4.9-14,8.4-22.5c1.6-3.8,3-7.2,4.3-10.1c1.5-3.2,2.8-6,4-8.4
		c0,0,0,0,0.1,0c0.6,0.1,1.2,0.2,1.8,0.2c0.8,0.1,1.6,0.2,2.3,0.2c1.4,0.1,2.8,0.1,4.1,0.1c2.7,0,5.6-0.2,8.3-0.6
		c1,2,2.1,4.2,3.2,6.7c1.5,3.4,3.2,7.3,5.1,11.8c3.5,8.6,6.4,16.5,8.4,22.5h3.7C185,290.6,179.9,277.5,174.9,266.3z M165.3,255.7
		L165.3,255.7c-0.5,0.1-0.9,0.1-1.4,0.1c-0.4,0-0.8,0.1-1.2,0.1c-1.1,0.1-2.3,0.1-3.5,0.1c-1.6,0-3.1-0.1-4.4-0.2
		c-0.8-0.1-1.6-0.1-2.4-0.2c-0.4,0-0.8-0.1-1.1-0.2c-0.3,0-0.6-0.1-0.9-0.1c-0.1,0-0.2,0-0.3,0c-0.6-0.1-1.2-0.2-1.8-0.4
		c-1.8-0.5-3.3-1-4.3-1.6c-0.2-0.1-0.3-0.2-0.5-0.3c-0.2-0.1-0.3-0.2-0.5-0.4c-0.1-0.1-0.2-0.2-0.3-0.2c-0.1-0.1-0.2-0.2-0.3-0.3
		c0-0.1,0-0.2,0.1-0.3c0,0,0,0,0,0c0-0.1,0-0.2,0.1-0.2c0,0,0-0.1,0.1-0.1c0-0.1,0.1-0.2,0.1-0.3c0-0.1,0.1-0.2,0.1-0.3
		c0.2-0.6,0.6-1.3,1-2.1c0-0.1,0.1-0.2,0.1-0.3c0.2-0.4,0.4-0.7,0.6-1.1c0.1-0.2,0.2-0.4,0.3-0.6c0.1-0.2,0.2-0.4,0.4-0.6
		c0.1-0.2,0.3-0.4,0.4-0.6c0.1-0.1,0.1-0.2,0.2-0.3c0-0.1,0.1-0.2,0.2-0.3c0.1-0.2,0.3-0.4,0.4-0.6c0,0,0,0,0,0
		c0.1-0.2,0.3-0.4,0.5-0.6c0.1-0.2,0.3-0.3,0.4-0.5c0.1-0.1,0.1-0.1,0.2-0.2c0.5-0.5,1-1.1,1.5-1.6c0.2-0.2,0.4-0.4,0.6-0.5
		c0.1-0.1,0.3-0.3,0.4-0.4c0.1-0.1,0.2-0.1,0.2-0.2c0.2-0.2,0.3-0.3,0.5-0.4c0.2-0.2,0.4-0.3,0.6-0.5c0.2-0.2,0.4-0.3,0.6-0.5
		c0.2-0.1,0.4-0.3,0.7-0.4c0.7-0.4,1.4-0.8,2.1-1.1c0.2-0.1,0.5-0.2,0.7-0.3c0.2-0.1,0.5-0.2,0.7-0.2c0.9-0.2,1.8-0.4,2.8-0.4
		c7.7,0,15.8,12.5,16.7,15.7C174.8,253.6,171,255.1,165.3,255.7z"/>
	<path class="st4" d="M159.3,256c9.1,0,15.2-1.9,16.7-3.9c-0.9-3.1-9-15.7-16.7-15.7c-9.4,0-16.1,12.8-16.7,15.6
		C144,254.1,150.2,256,159.3,256z"/>
	<path class="st5" d="M152.8,259.2c0.8,0.1,1.6,0.2,2.3,0.2c-0.5,2.2-0.8,4.4-1.1,6.6c-0.3,1.9-0.5,3.9-0.8,5.8
		c-1.2,8-2.3,16.1-3.4,24.1c-0.2,1.4-0.3,2.8-0.4,4.1h-15.2c2-6.1,4.9-14,8.4-22.5c1.6-3.8,3-7.2,4.3-10.1c1.5-3.2,2.8-6,4-8.4
		c0,0,0,0,0.1,0C151.6,259,152.2,259.1,152.8,259.2z"/>
	<path class="st0" d="M151,259c-1.1,2.6-1.9,5.4-2.5,8c-0.4,1.4-0.7,2.8-0.9,4c-2.1,9.4-5.8,19.3-6.7,29h-6.7c2-6.1,4.9-14,8.4-22.5
		c1.6-3.8,3-7.2,4.3-10.1C148.4,264.1,149.8,261.3,151,259C151,259,151,259,151,259z"/>
	<path class="st5" d="M159.4,253c-5.3-3.5-7-11.3-2.9-16.1c-7.9,2.1-13.4,12.7-13.9,15.2c1.5,2,7.6,3.9,16.7,3.9
		c2.2,0,4.2-0.1,6-0.3C163.2,255.1,161.2,254.2,159.4,253z"/>
	<path class="st0" d="M153.7,254.8c-3.8-3-5.8-7.1-5.2-12.5c-3.4,3.8-5.6,8.3-5.9,9.8c1.2,1.6,5.6,3.2,12.3,3.8
		C154.4,255.5,154,255.1,153.7,254.8z"/>
</g>
</svg>
